<svg width="24" height="26" viewBox="0 0 24 26" fill="none" xmlns="http://www.w3.org/2000/svg">
<path d="M22.9933 13.7974L18.7518 12.0107L14.739 13.7311L14.5437 13.8149L14.3484 13.7311L11.2304 12.3943L10.0966 13.9061L9.69812 14.4373L9.29969 13.9061L8.12731 12.343L5.51772 13.4618L5.32241 13.5455L5.12711 13.4618L0.999997 11.6923V21.8287L5.32241 23.682L9.42364 21.9236L9.61895 21.8398L9.81426 21.9236L14.5437 23.9513L18.5538 22.232L18.7491 22.1482L18.9444 22.232L23.0013 23.9713L22.9933 13.7974ZM18.9425 11.0101L23.6844 13.0076L23.9889 13.1359L23.9891 13.4666L23.998 24.7278L23.9986 25.4843L23.3047 25.1868L18.7491 23.2336L14.739 24.953L14.5437 25.0367L14.3484 24.953L9.61897 22.9252L5.51773 24.6836L5.32242 24.7674L5.12712 24.6836L0.304706 22.616L0 22.4854V22.157V10.9352V10.1781L0.695321 10.4762L5.32244 12.4601L8.09512 11.2713L8.45351 11.1177L8.68886 11.4315L9.69815 12.7771L10.6689 11.4828L10.9043 11.169L11.2627 11.3227L14.5437 12.7294L18.5539 11.0101L18.7465 10.9275L18.9425 11.0101Z" fill="#5C968B"/>
<path d="M9.69356 7.54682C9.01985 7.54682 8.40981 7.27363 7.96821 6.83206C7.52658 6.3905 7.25342 5.78044 7.25342 5.10677C7.25342 4.43304 7.52659 3.823 7.96819 3.3814C8.40979 2.93979 9.01983 2.66663 9.69356 2.66663C10.3672 2.66663 10.9773 2.93981 11.4189 3.38141C11.8604 3.82302 12.1336 4.43306 12.1336 5.10677C12.1336 5.78044 11.8604 6.3905 11.4189 6.83206C10.9773 7.27363 10.3672 7.54682 9.69356 7.54682ZM8.67525 6.12502C8.93583 6.38559 9.29588 6.54679 9.69356 6.54679C10.0912 6.54679 10.4513 6.38559 10.7118 6.12502C10.9724 5.86446 11.1336 5.50441 11.1336 5.10677C11.1336 4.70909 10.9724 4.34903 10.7118 4.08845C10.4512 3.82785 10.0912 3.66665 9.69356 3.66665C9.29586 3.66665 8.93581 3.82785 8.67523 4.08844C8.41465 4.34902 8.25344 4.70907 8.25344 5.10677C8.25344 5.50441 8.41466 5.86447 8.67525 6.12502Z" fill="#5C968B"/>
<path d="M5.33342 13.3334L0.666748 11.3334V22L5.33342 24L10.0001 22.6667L14.6667 24.6667L18.6667 22.6667L23.3334 24.6667V13.3334L18.6667 11.3334L14.6667 13.3334L11.3334 12L9.33342 14V13.3334L8.00008 12L5.33342 13.3334Z" fill="#5C968B"/>
<path fill-rule="evenodd" clip-rule="evenodd" d="M0 10.3223L5.31175 12.5987L8.13164 11.1888L9.66667 12.7238L11.1728 11.2177L14.6363 12.6031L18.6451 10.5987L24 12.8937V25.6777L18.6883 23.4012L14.6883 25.4012L9.95524 23.3728L5.28858 24.7061L0 22.4396V10.3223ZM8.66667 13.6094L7.86836 12.8111L5.35492 14.0679L1.33333 12.3443V21.5604L5.37809 23.2938L10.0448 21.9605L14.6451 23.9321L18.6451 21.9321L22.6667 23.6556V13.7729L18.6883 12.0679L14.697 14.0635L11.4939 12.7822L8.66667 15.6094V13.6094Z" fill="#5C968B"/>
<path d="M15.1861 13.0029V24.1009H14.186V13.0029H15.1861Z" fill="black"/>
<path d="M5.82254 13.0029V24.1009H4.82251V13.0029H5.82254Z" fill="black"/>
<path d="M19.378 11.7249V22.823H18.3779V11.7249H19.378Z" fill="black"/>
<path d="M9.54247 1.00002C8.47223 1.00002 7.50326 1.43384 6.80192 2.13517C6.10059 2.83651 5.66677 3.80548 5.66677 4.87572C5.66677 5.30878 5.73546 5.72086 5.86236 6.10202C5.99475 6.49972 6.19072 6.86955 6.43839 7.19984L9.54247 11.3384L12.6465 7.19984C12.8941 6.86957 13.0901 6.49972 13.2225 6.10197C13.3493 5.72084 13.418 5.30878 13.418 4.87572C13.418 3.80548 12.9842 2.83651 12.2829 2.13517C11.5816 1.43384 10.6126 1.00002 9.54247 1.00002ZM6.09489 1.42814C6.97725 0.54578 8.1962 0 9.54247 0C10.8887 0 12.1076 0.54578 12.9899 1.42814C13.8723 2.31049 14.418 3.52941 14.418 4.87568C14.418 5.40919 14.3301 5.92672 14.1678 6.41448C14.0004 6.91741 13.754 7.38326 13.4434 7.79751L9.94091 12.4673L9.54249 12.9985L9.14404 12.4673L5.64151 7.79751C5.3309 7.38328 5.08443 6.91743 4.91703 6.41454C4.75465 5.92678 4.66675 5.40925 4.66675 4.87572C4.66675 3.52945 5.21255 2.31049 6.09489 1.42814Z" fill="#5C968B"/>
<path d="M10.2942 12.6945V22.4557H9.29419V12.6945H10.2942Z" fill="black"/>
</svg>
