<svg width="24" height="24" viewBox="0 0 24 24" fill="none" xmlns="http://www.w3.org/2000/svg">
<path d="M0 3.01288C1.18076 3.01288 2.36153 3.01288 3.57807 3.01288C3.60169 3.13217 3.6253 3.25145 3.64964 3.37436C3.80793 3.98784 4.11692 4.54412 4.60202 5.00673C4.64732 5.05015 4.68962 5.09487 4.732 5.14054C4.96196 5.37528 5.27903 5.56096 5.5818 5.71332C5.61985 5.73298 5.61985 5.73298 5.65867 5.75303C6.09727 5.97448 6.56073 6.10422 7.06185 6.14997C7.15615 6.15985 7.15615 6.15985 7.18 6.18112C7.22428 6.18326 7.26865 6.1839 7.313 6.18396C7.35633 6.1841 7.35633 6.1841 7.40054 6.18423C7.43285 6.18423 7.46517 6.18422 7.49749 6.1842C7.5313 6.18427 7.56511 6.18434 7.59892 6.18442C7.6911 6.18461 7.78328 6.18466 7.87546 6.18467C7.93312 6.18469 7.99079 6.18473 8.04845 6.18479C8.24988 6.18499 8.4513 6.18507 8.65272 6.18506C8.83999 6.18504 9.02725 6.18527 9.21452 6.1856C9.37551 6.18588 9.53651 6.186 9.6975 6.18598C9.79355 6.18598 9.88959 6.18604 9.98563 6.18626C10.0762 6.18647 10.1668 6.18647 10.2575 6.18632C10.3061 6.18628 10.3547 6.18646 10.4033 6.18664C10.6516 6.1859 10.8954 6.16759 11.1323 6.09739C11.2189 6.07213 11.3051 6.04804 11.3932 6.02696C12.3995 5.75611 13.2431 5.12284 13.7412 4.30389C13.7516 4.28659 13.7619 4.26929 13.7726 4.25147C13.7823 4.2354 13.7919 4.21934 13.8019 4.20278C13.9174 4.0044 13.9915 3.79216 14.0648 3.57901C14.0721 3.55778 14.0794 3.53655 14.087 3.51467C14.1329 3.37762 14.168 3.24515 14.1861 3.10283C14.193 3.05541 14.193 3.05541 14.2169 3.01288C15.3976 3.01288 16.5784 3.01288 17.795 3.01288C17.8084 4.29873 17.8084 4.29873 17.8113 4.83978C17.8119 4.96339 17.8126 5.08699 17.8133 5.21059C17.8134 5.23382 17.8134 5.23382 17.8136 5.25753C17.815 5.50651 17.8176 5.75546 17.8207 6.00443C17.8239 6.26057 17.8257 6.5167 17.8264 6.77285C17.8268 6.91647 17.8278 7.06005 17.8303 7.20366C17.8326 7.33925 17.8332 7.47477 17.8327 7.61038C17.8328 7.65975 17.8335 7.70912 17.8348 7.75848C17.8441 8.13143 17.7348 8.36707 17.5025 8.67519C17.4365 8.76669 17.3817 8.8629 17.3268 8.95997C17.2303 9.12721 17.1283 9.29087 17.0227 9.45367C16.9303 9.59651 16.8418 9.74099 16.7543 9.88625C16.6673 10.0306 16.579 10.1737 16.4845 10.3142C16.3692 10.4856 16.2639 10.6614 16.1583 10.8377C16.0527 11.0135 15.9438 11.1874 15.8331 11.3607C15.7454 11.4983 15.6596 11.6368 15.5751 11.776C15.4828 11.9278 15.3885 12.0783 15.2918 12.2279C15.1752 12.4082 15.0635 12.5907 14.9529 12.774C14.8688 12.913 14.7825 13.0506 14.694 13.1874C14.5764 13.369 14.4636 13.5527 14.3522 13.7373C14.2663 13.8795 14.1789 14.0206 14.0887 14.1606C14.0538 14.2151 14.0246 14.2652 14.0022 14.325C13.9865 14.325 13.9707 14.325 13.9545 14.325C13.9481 14.3435 13.9418 14.362 13.9352 14.3811C13.9074 14.4511 13.8739 14.511 13.8331 14.5757C13.8184 14.599 13.8038 14.6223 13.7887 14.6463C13.7729 14.6712 13.7571 14.6961 13.7413 14.721C13.7251 14.7467 13.7089 14.7724 13.6928 14.7982C13.6603 14.8499 13.6277 14.9016 13.5951 14.9533C13.5309 15.0554 13.4675 15.1579 13.4044 15.2606C13.3882 15.2867 13.3882 15.2867 13.3717 15.3134C13.3196 15.398 13.2679 15.4827 13.2165 15.5676C13.1616 15.6575 13.1046 15.7464 13.0473 15.8351C12.9294 16.0179 12.8142 16.2018 12.7022 16.3875C12.594 16.5668 12.4829 16.7441 12.3688 16.9203C12.2773 17.0621 12.1897 17.2056 12.1028 17.3497C12.0073 17.5082 11.9092 17.6646 11.8052 17.8188C11.6928 17.9873 11.5903 18.1608 11.487 18.3338C11.4732 18.3568 11.4594 18.3798 11.4453 18.4036C11.4267 18.4347 11.4267 18.4347 11.4079 18.4664C11.3783 18.5139 11.3783 18.5139 11.3544 18.5351C11.3507 18.5685 11.3485 18.602 11.347 18.6356C11.346 18.6573 11.345 18.6791 11.3439 18.7015C11.3429 18.7256 11.3418 18.7496 11.3408 18.7744C11.3396 18.7996 11.3384 18.8249 11.3372 18.8508C11.334 18.9203 11.331 18.9898 11.3279 19.0593C11.3247 19.1323 11.3214 19.2054 11.3181 19.2784C11.3125 19.4015 11.3071 19.5246 11.3017 19.6478C11.2955 19.789 11.2891 19.9302 11.2827 20.0714C11.2765 20.208 11.2704 20.3446 11.2643 20.4812C11.2617 20.5389 11.2591 20.5966 11.2565 20.6542C11.2484 20.8338 11.2412 21.0134 11.2352 21.193C11.2343 21.2155 11.2334 21.238 11.2326 21.2612C11.2304 21.3232 11.2289 21.3853 11.2276 21.4473C11.2269 21.4652 11.2262 21.483 11.2255 21.5014C11.2243 21.6143 11.246 21.6777 11.3306 21.7671C11.4045 21.8001 11.4658 21.8038 11.5453 21.7884C11.6382 21.7457 11.7223 21.6933 11.8076 21.6396C11.9868 21.5271 12.1674 21.4168 12.3488 21.3073C12.3778 21.2898 12.4068 21.2723 12.4359 21.2547C12.5766 21.1697 12.7173 21.0848 12.8581 20.9998C12.9378 20.9517 13.0175 20.9036 13.0972 20.8555C13.1129 20.846 13.1286 20.8365 13.1448 20.8268C13.3295 20.7153 13.514 20.6037 13.6981 20.4913C13.7154 20.4808 13.7327 20.4702 13.7505 20.4594C13.845 20.4017 13.9392 20.3438 14.0332 20.2856C14.0542 20.2727 14.0752 20.2598 14.0968 20.2464C14.1372 20.2216 14.1775 20.1966 14.2178 20.1715C14.2357 20.1605 14.2537 20.1495 14.2721 20.1381C14.288 20.1283 14.3038 20.1184 14.3202 20.1083C14.36 20.0873 14.36 20.0873 14.4077 20.0873C14.414 20.0723 14.4204 20.0573 14.4269 20.0418C14.4569 19.9778 14.492 19.919 14.53 19.8585C14.5521 19.8231 14.5521 19.8231 14.5748 19.7869C14.5906 19.7617 14.6065 19.7365 14.6224 19.7112C14.6386 19.6855 14.6547 19.6597 14.6709 19.6339C14.7031 19.5824 14.7354 19.5309 14.7677 19.4795C14.8298 19.3805 14.8916 19.2814 14.9534 19.1823C14.9631 19.1667 14.9729 19.151 14.983 19.1349C15.0306 19.0589 15.0306 19.0589 15.0756 18.9816C15.0914 18.9816 15.1071 18.9816 15.1233 18.9816C15.1258 18.9665 15.1283 18.9514 15.1309 18.9359C15.1492 18.8679 15.1782 18.8181 15.2169 18.7573C15.2314 18.7344 15.2458 18.7114 15.2607 18.6878C15.2766 18.663 15.2924 18.6383 15.3082 18.6135C15.3411 18.5615 15.3739 18.5095 15.4067 18.4575C15.415 18.4443 15.4233 18.4312 15.4318 18.4176C15.5112 18.292 15.588 18.1651 15.6645 18.0381C15.7697 17.864 15.8778 17.6917 15.9886 17.5204C16.0999 17.3477 16.2077 17.1733 16.3153 16.9988C16.4231 16.824 16.5319 16.6499 16.6425 16.4766C16.7601 16.2922 16.874 16.1062 16.9868 15.9195C17.0888 15.751 17.1937 15.5843 17.2999 15.4179C17.3984 15.2634 17.4949 15.1079 17.5898 14.9516C17.6457 14.86 17.7028 14.7712 17.7711 14.6865C17.779 14.6865 17.7868 14.6865 17.795 14.6865C17.795 17.7599 17.795 20.8333 17.795 23.9998C11.9226 23.9998 6.05028 23.9998 0 23.9998C0 17.0741 0 10.1484 0 3.01288Z" fill="#5C968B"/>
<path d="M9.32649 0.0785715C9.51748 0.166147 9.67299 0.26445 9.79462 0.424101C9.81264 0.447015 9.83066 0.46993 9.84923 0.493539C9.94965 0.635335 9.98341 0.766379 9.98098 0.933092C9.98078 0.950742 9.98059 0.968392 9.98038 0.986578C9.97127 1.28534 9.84941 1.51381 9.60976 1.72116C9.52261 1.78642 9.43494 1.82838 9.33115 1.86968C9.28955 1.88636 9.28955 1.88636 9.24712 1.90338C9.22608 1.91166 9.20504 1.91995 9.18337 1.92848C9.20358 1.92853 9.22379 1.92858 9.24461 1.92864C9.73678 1.92989 10.2289 1.9315 10.7211 1.93349C10.9591 1.93445 11.1971 1.93529 11.4351 1.93585C11.6426 1.93634 11.8501 1.93705 12.0576 1.93802C12.1674 1.93853 12.2773 1.93893 12.3871 1.93906C12.4906 1.93919 12.594 1.93962 12.6975 1.94027C12.7354 1.94045 12.7733 1.94053 12.8111 1.9405C13.1146 1.94029 13.3466 1.96653 13.5725 2.16238C13.7587 2.36799 13.761 2.61185 13.7395 2.86407C13.691 3.22868 13.5938 3.59926 13.4055 3.92724C13.3918 3.95188 13.3781 3.97652 13.3639 4.00191C13.2138 4.26623 13.0305 4.50042 12.8023 4.71631C12.76 4.75429 12.76 4.75429 12.7376 4.79903C12.7218 4.79903 12.7061 4.79903 12.6899 4.79903C12.6846 4.81104 12.6792 4.82304 12.6738 4.83541C12.4143 5.2352 11.6144 5.5181 11.1482 5.63644C11.0504 5.65915 10.9528 5.67694 10.8531 5.69209C10.8301 5.69572 10.807 5.69934 10.7832 5.70307C10.4517 5.74742 10.1173 5.74201 9.78288 5.74243C9.72937 5.74251 9.67585 5.74265 9.62233 5.7428C9.4345 5.74331 9.24666 5.74359 9.05883 5.74367C8.88558 5.74375 8.71234 5.74438 8.5391 5.74527C8.38887 5.74602 8.23864 5.74634 8.08841 5.74635C7.99935 5.74637 7.91029 5.74654 7.82123 5.74716C6.80075 5.7538 5.90068 5.52407 5.15207 4.88409C5.12578 4.8623 5.12578 4.8623 5.09896 4.84007C4.85091 4.62833 4.6556 4.38273 4.48417 4.11861C4.47267 4.10159 4.46117 4.08456 4.44932 4.06703C4.37069 3.94745 4.3183 3.82466 4.26948 3.69334C4.26112 3.6717 4.26112 3.6717 4.25259 3.64962C4.10122 3.2569 3.92503 2.7242 4.09682 2.31488C4.19932 2.15463 4.35104 2.01685 4.55025 1.95868C4.623 1.94646 4.69301 1.94673 4.76705 1.94638C4.78349 1.94628 4.79994 1.94617 4.81688 1.94606C4.87197 1.94574 4.92705 1.94556 4.98214 1.94538C5.02163 1.94518 5.06113 1.94496 5.10063 1.94474C5.20786 1.94417 5.31509 1.94372 5.42233 1.9433C5.53439 1.94283 5.64645 1.94225 5.75852 1.94168C5.97073 1.94062 6.18294 1.93966 6.39515 1.93874C6.63675 1.93769 6.87834 1.93653 7.11993 1.93535C7.61691 1.93293 8.1139 1.93066 8.61088 1.92848C8.58874 1.92219 8.58874 1.92219 8.56616 1.91576C8.54681 1.91016 8.52746 1.90455 8.50752 1.89878C8.48833 1.89326 8.46915 1.88775 8.44938 1.88207C8.38422 1.86078 8.33616 1.83238 8.28289 1.79293C8.26515 1.7798 8.2474 1.76667 8.22912 1.75314C7.99405 1.56903 7.81729 1.34946 7.79333 1.06408C7.78256 0.779672 7.84548 0.558422 8.06 0.3383C8.38788 0.0291252 8.87272 -0.0941416 9.32649 0.0785715Z" fill="#5C968B"/>
<path d="M16.0296 11.9435C16.1256 11.9562 16.1954 11.9835 16.2796 12.0261C16.3051 12.0389 16.3306 12.0517 16.3568 12.0649C16.3978 12.0857 16.3978 12.0857 16.4396 12.1069C16.4977 12.1362 16.5559 12.1653 16.6141 12.1945C16.6289 12.2019 16.6437 12.2094 16.659 12.217C16.8108 12.293 16.9643 12.3662 17.1179 12.4392C17.3067 12.5291 17.493 12.6215 17.6766 12.7197C17.8552 12.8147 18.0395 12.9001 18.2241 12.9854C18.2083 13.0548 18.1798 13.1096 18.1419 13.1717C18.1297 13.1917 18.1175 13.2117 18.1049 13.2323C18.085 13.2647 18.085 13.2647 18.0646 13.2977C18.0508 13.3202 18.037 13.3428 18.0228 13.366C17.9098 13.5502 17.7948 13.7333 17.6794 13.9162C17.5889 14.0598 17.4997 14.2041 17.4116 14.3489C17.3025 14.5282 17.1905 14.706 17.0773 14.8833C16.9847 15.0288 16.895 15.1756 16.8063 15.323C16.7028 15.4948 16.5955 15.6641 16.4843 15.832C16.3524 16.0313 16.2277 16.2333 16.1055 16.4375C16.0017 16.6108 15.8943 16.7822 15.7852 16.953C15.6974 17.0906 15.6117 17.2291 15.5272 17.3683C15.433 17.5232 15.3366 17.6768 15.2379 17.8294C15.1439 17.975 15.0534 18.1217 14.9663 18.2707C14.8965 18.3893 14.8225 18.5055 14.7474 18.6215C14.6417 18.785 14.5392 18.9498 14.4388 19.1159C14.4129 19.1587 14.387 19.2015 14.361 19.2443C14.3083 19.3313 14.3083 19.3313 14.2557 19.4183C14.227 19.4655 14.198 19.5127 14.169 19.5597C14.1609 19.5731 14.1529 19.5865 14.1446 19.6003C14.0386 19.7706 13.8809 19.8587 13.7023 19.9624C13.6507 19.9927 13.5991 20.0231 13.5476 20.0535C13.5341 20.0613 13.5207 20.0692 13.5069 20.0774C13.351 20.169 13.1964 20.2623 13.0419 20.3558C13.0278 20.3643 13.0138 20.3728 12.9993 20.3816C12.7954 20.5049 12.593 20.6301 12.3916 20.7566C12.272 20.8316 12.1512 20.9033 12.027 20.9719C11.9756 21.001 11.9266 21.032 11.8775 21.0641C11.8075 21.108 11.8075 21.108 11.7597 21.108C11.7474 20.5913 11.7669 20.0758 11.7902 19.5597C11.7925 19.5066 11.7948 19.4536 11.7971 19.4005C11.8008 19.3156 11.8047 19.2306 11.8087 19.1457C11.8102 19.1139 11.8116 19.0822 11.813 19.0505C11.83 18.6598 11.83 18.6598 11.9354 18.5026C11.9465 18.4856 11.9577 18.4686 11.9692 18.4512C11.9813 18.4333 11.9933 18.4154 12.0057 18.3969C12.0318 18.3572 12.0578 18.3175 12.0838 18.2778C12.0973 18.2572 12.1107 18.2367 12.1246 18.2155C12.1917 18.1114 12.2552 18.0056 12.3188 17.8999C12.4334 17.7099 12.551 17.5217 12.6706 17.3342C12.7727 17.1739 12.8721 17.0123 12.9708 16.8503C13.0459 16.7271 13.1221 16.6045 13.1995 16.4824C13.3353 16.2683 13.4686 16.0529 13.6025 15.8378C13.6383 15.7803 13.6742 15.7228 13.7102 15.6653C13.8031 15.5166 13.8954 15.3675 13.9866 15.2179C14.1044 15.0244 14.2247 14.8324 14.3479 14.6416C14.4453 14.4903 14.5392 14.3374 14.6325 14.184C14.7188 14.0423 14.8071 13.9017 14.8965 13.7615C14.9976 13.6028 15.0971 13.4435 15.1947 13.2831C15.3047 13.1022 15.4176 12.9228 15.5316 12.7438C15.6364 12.5792 15.7386 12.4133 15.8398 12.2469C15.9017 12.145 15.9646 12.0438 16.0296 11.9435Z" fill="#5C968B"/>
<path d="M19.9417 5.67072C20.0599 5.70919 20.1691 5.76188 20.2801 5.81424C20.3107 5.8286 20.3107 5.8286 20.3419 5.84326C20.4615 5.89984 20.5783 5.95903 20.6934 6.02264C20.8207 6.08874 20.9543 6.14482 21.0867 6.2023C21.0867 6.21633 21.0867 6.23037 21.0867 6.24483C21.1073 6.25041 21.1279 6.256 21.1491 6.26175C21.2306 6.2876 21.3009 6.31917 21.3763 6.35679C21.3966 6.36687 21.3966 6.36687 21.4173 6.37714C21.4458 6.39132 21.4742 6.40555 21.5027 6.41982C21.5454 6.44126 21.5881 6.46254 21.6309 6.48379C21.7932 6.56458 21.9538 6.64757 22.1124 6.73388C22.0987 6.81115 22.0758 6.86838 22.0318 6.93588C22.0198 6.95443 22.0079 6.97298 21.9956 6.99209C21.9759 7.02216 21.9759 7.02216 21.9559 7.05283C21.9275 7.09681 21.8992 7.1408 21.871 7.18481C21.8484 7.21987 21.8484 7.21987 21.8254 7.25563C21.7438 7.3836 21.6642 7.51258 21.5846 7.64156C21.5682 7.66812 21.5518 7.69467 21.5354 7.72123C21.4652 7.83489 21.3951 7.94862 21.3251 8.06243C21.2123 8.24585 21.0982 8.42849 20.9823 8.61037C20.8596 8.80293 20.7404 8.99702 20.6227 9.19204C20.5367 9.33441 20.4482 9.47525 20.3565 9.61482C20.3209 9.66838 20.3209 9.66838 20.2995 9.73201C20.2838 9.73201 20.268 9.73201 20.2518 9.73201C20.2455 9.75036 20.2393 9.76872 20.2328 9.78762C20.2038 9.86039 20.1683 9.92313 20.126 9.9905C20.1184 10.0027 20.1108 10.015 20.1029 10.0276C20.0781 10.0673 20.0531 10.107 20.0282 10.1466C20.002 10.1884 19.976 10.2302 19.9499 10.272C19.9324 10.3001 19.9148 10.3281 19.8973 10.3562C19.8216 10.4772 19.7474 10.5989 19.6733 10.7208C19.5712 10.8885 19.4658 11.0544 19.3589 11.2197C19.2547 11.3817 19.1552 11.5457 19.056 11.7102C18.9686 11.8548 18.8784 11.9978 18.7863 12.1401C18.688 12.2918 18.5944 12.444 18.5105 12.6026C18.4333 12.5885 18.3722 12.5636 18.3031 12.53C18.2809 12.5192 18.2587 12.5084 18.2359 12.4974C18.2118 12.4856 18.1878 12.4738 18.1631 12.4617C18.1379 12.4494 18.1128 12.4372 18.0868 12.4246C18.0053 12.3848 17.9239 12.3449 17.8426 12.3049C17.8156 12.2916 17.7886 12.2784 17.7607 12.2647C17.4603 12.117 17.1612 11.9674 16.8639 11.8147C16.7334 11.7479 16.6019 11.6856 16.4657 11.6284C16.4108 11.6029 16.3642 11.5737 16.3159 11.5394C16.3314 11.4725 16.3576 11.4198 16.3947 11.3602C16.406 11.3417 16.4174 11.3233 16.4291 11.3043C16.4476 11.2747 16.4476 11.2747 16.4665 11.2444C16.4928 11.2019 16.5191 11.1594 16.5453 11.1169C16.5655 11.0843 16.5655 11.0843 16.5861 11.0511C16.6236 10.9905 16.6608 10.9297 16.6978 10.8689C16.8309 10.6499 16.9666 10.4324 17.1047 10.216C17.1993 10.0672 17.2911 9.9172 17.3819 9.76657C17.4679 9.62398 17.5552 9.48272 17.6488 9.34396C17.7627 9.17471 17.8664 9.00072 17.9702 8.82645C18.0798 8.64262 18.1926 8.46078 18.3096 8.28058C18.4003 8.14026 18.4871 7.99822 18.5731 7.85552C18.6606 7.71032 18.7494 7.56637 18.8444 7.42494C18.969 7.23934 19.0834 7.049 19.1983 6.85856C19.2726 6.73559 19.3483 6.61341 19.4247 6.49147C19.4882 6.38992 19.5512 6.28809 19.6139 6.1861C19.7204 6.01277 19.8282 5.84053 19.9417 5.67072Z" fill="#5C968B"/>
<path d="M2.68967 7.85297C2.71138 7.85287 2.73309 7.85277 2.75547 7.85267C2.82891 7.85242 2.90234 7.85262 2.97578 7.85281C3.02869 7.85273 3.0816 7.85261 3.13451 7.85247C3.28044 7.85216 3.42637 7.85225 3.5723 7.85241C3.71335 7.8525 3.8544 7.85229 3.99544 7.85209C4.30187 7.85167 4.60829 7.85162 4.91471 7.85173C5.18289 7.85183 5.45108 7.85182 5.71926 7.85169C5.75519 7.85168 5.79112 7.85166 5.82705 7.85165C5.8812 7.85162 5.93534 7.8516 5.98948 7.85157C6.49307 7.85134 6.99666 7.85124 7.50025 7.85141C7.52875 7.85142 7.52875 7.85142 7.55782 7.85143C7.71209 7.85148 7.86637 7.85154 8.02064 7.85159C8.62245 7.85181 9.22425 7.85163 9.82606 7.85114C10.5018 7.85058 11.1775 7.85031 11.8532 7.85046C11.9252 7.85048 11.9972 7.85049 12.0693 7.8505C12.087 7.85051 12.1047 7.85051 12.123 7.85052C12.391 7.85056 12.659 7.85039 12.927 7.85012C13.2317 7.8498 13.5364 7.84978 13.8412 7.85016C13.9967 7.85034 14.1523 7.85038 14.3079 7.85006C14.4502 7.84977 14.5924 7.84987 14.7347 7.85028C14.7863 7.85036 14.8379 7.85029 14.8896 7.85007C14.9595 7.8498 15.0293 7.85004 15.0992 7.85041C15.1195 7.85021 15.1397 7.85 15.1606 7.84979C15.2563 7.85086 15.3029 7.85471 15.3857 7.90159C15.4654 7.97602 15.4652 8.0325 15.4641 8.13192C15.4539 8.20311 15.4203 8.23871 15.3618 8.28632C15.2683 8.31413 15.1793 8.31062 15.0818 8.3105C15.0601 8.31056 15.0384 8.31061 15.0161 8.31067C14.9428 8.31084 14.8695 8.31085 14.7962 8.31086C14.7434 8.31095 14.6905 8.31104 14.6377 8.31114C14.4921 8.3114 14.3464 8.31152 14.2008 8.31161C14.06 8.31173 13.9192 8.31194 13.7784 8.31215C13.4011 8.31269 13.0239 8.31301 12.6466 8.31328C12.5217 8.31337 12.3968 8.31347 12.2719 8.31357C11.6079 8.31411 10.944 8.31458 10.2801 8.31484C10.1263 8.31491 9.97245 8.31497 9.81862 8.31503C9.7995 8.31504 9.78039 8.31505 9.7607 8.31506C9.14073 8.31532 8.52076 8.31597 7.90078 8.31686C7.26366 8.31777 6.62653 8.31834 5.98941 8.31845C5.89948 8.31846 5.80955 8.31848 5.71963 8.3185C5.70193 8.31851 5.68423 8.31851 5.66599 8.31852C5.38081 8.31859 5.09562 8.31902 4.81043 8.31958C4.52396 8.32014 4.23749 8.3203 3.95102 8.32007C3.79573 8.31996 3.64045 8.32002 3.48516 8.32055C3.34315 8.32102 3.20114 8.32101 3.05912 8.32061C3.00761 8.32055 2.95609 8.32067 2.90458 8.32099C2.83481 8.32139 2.76507 8.32114 2.6953 8.32073C2.67508 8.321 2.65486 8.32128 2.63403 8.32156C2.53066 8.3202 2.49254 8.31598 2.40894 8.25635C2.33859 8.17467 2.33765 8.13369 2.33765 8.03116C2.41655 7.87292 2.50465 7.85167 2.68967 7.85297Z" fill="black"/>
<path d="M2.60832 11.2388C2.62678 11.2388 2.64524 11.2388 2.66425 11.2389C2.68377 11.2388 2.70329 11.2388 2.7234 11.2387C2.78965 11.2386 2.8559 11.2386 2.92215 11.2386C2.96979 11.2385 3.01743 11.2384 3.06507 11.2383C3.19664 11.2381 3.32822 11.2381 3.4598 11.238C3.60144 11.2379 3.74309 11.2377 3.88474 11.2375C4.21097 11.2371 4.53719 11.2369 4.86342 11.2367C5.02456 11.2366 5.18569 11.2365 5.34683 11.2364C5.89817 11.236 6.44951 11.2357 7.00085 11.2356C7.03548 11.2356 7.07011 11.2355 7.10474 11.2355C7.13051 11.2355 7.13051 11.2355 7.15679 11.2355C7.2438 11.2355 7.33082 11.2355 7.41783 11.2354C7.44373 11.2354 7.44373 11.2354 7.47016 11.2354C8.03012 11.2353 8.59009 11.2348 9.15005 11.2341C9.74176 11.2333 10.3335 11.2329 10.9252 11.2328C10.9901 11.2328 11.055 11.2328 11.12 11.2328C11.136 11.2328 11.152 11.2328 11.1684 11.2328C11.426 11.2328 11.6835 11.2324 11.9411 11.232C12.1999 11.2316 12.4587 11.2314 12.7175 11.2316C12.8577 11.2317 12.998 11.2317 13.1382 11.2313C13.2666 11.2309 13.3949 11.2309 13.5232 11.2313C13.5697 11.2313 13.6162 11.2312 13.6627 11.231C13.7258 11.2307 13.7888 11.2309 13.8519 11.2312C13.8792 11.2309 13.8792 11.2309 13.907 11.2305C14.0295 11.232 14.0993 11.2574 14.1933 11.3268C14.253 11.4066 14.2518 11.4447 14.241 11.5394C14.1907 11.6242 14.1518 11.677 14.0501 11.7095C13.9853 11.7136 13.9229 11.7153 13.8581 11.715C13.8385 11.7151 13.8188 11.7152 13.7986 11.7153C13.7325 11.7155 13.6664 11.7154 13.6003 11.7153C13.5525 11.7154 13.5048 11.7155 13.4571 11.7157C13.3257 11.716 13.1942 11.716 13.0627 11.716C12.9211 11.716 12.7794 11.7163 12.6378 11.7166C12.3441 11.717 12.0504 11.7172 11.7566 11.7173C11.7407 11.7173 11.7247 11.7173 11.7083 11.7173C11.6923 11.7173 11.6763 11.7173 11.6598 11.7173C11.4826 11.7174 11.3054 11.7175 11.1282 11.7177C10.5932 11.7181 10.0582 11.7184 9.52322 11.7185C9.49754 11.7185 9.49754 11.7185 9.47135 11.7185C9.40199 11.7185 9.33263 11.7185 9.26327 11.7185C9.21106 11.7185 9.15885 11.7185 9.10664 11.7186C9.08077 11.7186 9.08077 11.7186 9.05437 11.7186C8.51213 11.7186 7.96989 11.7191 7.42765 11.7199C6.81872 11.7207 6.20978 11.7212 5.60085 11.7212C5.53595 11.7212 5.47106 11.7212 5.40616 11.7213C5.39018 11.7213 5.3742 11.7213 5.35774 11.7213C5.1003 11.7213 4.84286 11.7216 4.58542 11.7221C4.32682 11.7226 4.06823 11.7227 3.80963 11.7224C3.66946 11.7223 3.5293 11.7223 3.38914 11.7228C3.26093 11.7232 3.13274 11.7231 3.00454 11.7227C2.95805 11.7226 2.91157 11.7227 2.86508 11.723C2.80208 11.7234 2.73913 11.7231 2.67613 11.7227C2.6488 11.7231 2.6488 11.7231 2.62091 11.7235C2.52575 11.7221 2.48536 11.7127 2.4107 11.6582C2.33657 11.5749 2.32869 11.5216 2.32925 11.4174C2.34288 11.3417 2.39162 11.3086 2.45718 11.263C2.49876 11.2259 2.5529 11.239 2.60832 11.2388Z" fill="black"/>
<path d="M20.3952 4.92657C20.4689 4.94003 20.5245 4.96226 20.589 4.99659C20.6076 5.00642 20.6263 5.01624 20.6455 5.02637C20.6652 5.03685 20.685 5.04734 20.7053 5.05814C20.8299 5.12351 20.9536 5.18828 21.0839 5.2442C21.2828 5.33024 21.4725 5.43151 21.6639 5.52996C21.7745 5.58687 21.8854 5.64348 21.9964 5.70003C22.0175 5.71081 22.0386 5.72159 22.0604 5.7327C22.1834 5.79531 22.3069 5.85685 22.4317 5.91657C22.4818 5.9411 22.5313 5.9662 22.5808 5.99182C22.5958 5.99961 22.6109 6.0074 22.6264 6.01543C22.6559 6.03069 22.6852 6.04604 22.7145 6.06148C22.7831 6.09705 22.8449 6.12668 22.9237 6.13859C22.9237 6.15262 22.9237 6.16665 22.9237 6.18111C22.9426 6.18591 22.9616 6.19071 22.9812 6.19565C23.0912 6.23163 23.1898 6.28032 23.2919 6.33128C23.3128 6.34166 23.3337 6.35204 23.3553 6.36273C23.4183 6.39415 23.4811 6.42579 23.5439 6.45754C23.5622 6.46676 23.5805 6.47599 23.5994 6.4855C23.6487 6.51044 23.6977 6.53573 23.7466 6.56119C23.761 6.56851 23.7754 6.57583 23.7903 6.58338C23.879 6.63037 23.9432 6.67632 23.9971 6.75522C24.0096 6.86157 23.9812 6.92476 23.9245 7.01761C23.9169 7.03027 23.9092 7.04292 23.9014 7.05596C23.8764 7.09718 23.851 7.13817 23.8256 7.17916C23.8082 7.20776 23.7908 7.23637 23.7734 7.265C23.642 7.48035 23.5071 7.69394 23.3708 7.90685C23.3198 7.98662 23.2702 8.0669 23.2218 8.14797C23.1486 8.27054 23.0721 8.39133 22.9952 8.51211C22.88 8.69327 22.7657 8.87488 22.6523 9.05698C22.6374 9.0809 22.6225 9.10483 22.6072 9.12948C22.5616 9.20276 22.516 9.27605 22.4704 9.34935C22.4098 9.44682 22.3492 9.54428 22.2886 9.64172C22.2737 9.66557 22.2589 9.68942 22.2436 9.71399C22.1481 9.8671 22.0517 10.0197 21.9546 10.172C21.848 10.3393 21.744 10.5077 21.6415 10.677C21.6035 10.7397 21.5655 10.8023 21.5275 10.865C21.505 10.9022 21.4825 10.9393 21.46 10.9765C21.4313 11.0239 21.4023 11.071 21.3732 11.1182C21.3611 11.1383 21.3611 11.1383 21.3488 11.1587C21.2899 11.2533 21.2216 11.3413 21.1108 11.3906C21.037 11.3924 20.9675 11.3862 20.8961 11.3694C20.816 11.2997 20.7802 11.2455 20.7668 11.1469C20.7689 11.0218 20.843 10.9288 20.914 10.8245C20.9427 10.7808 20.9714 10.7371 21.0001 10.6934C21.022 10.6604 21.022 10.6604 21.0443 10.6266C21.1087 10.5281 21.1694 10.4279 21.23 10.3275C21.327 10.1679 21.4261 10.0095 21.5267 9.8517C21.6463 9.66416 21.7624 9.47511 21.8771 9.28516C21.978 9.1185 22.082 8.95361 22.1871 8.78904C22.2802 8.6428 22.3707 8.4954 22.46 8.34732C22.566 8.17177 22.6747 7.99796 22.7865 7.82528C22.9127 7.62961 23.0344 7.43173 23.1561 7.2338C23.1641 7.22086 23.1721 7.20792 23.1803 7.19458C23.2021 7.1592 23.2238 7.12381 23.2456 7.08841C23.2815 7.03165 23.2815 7.03165 23.3292 6.96786C23.3292 6.94681 23.3292 6.92575 23.3292 6.90407C23.3154 6.89778 23.3017 6.8915 23.2875 6.88503C22.8759 6.69644 22.4708 6.49871 22.0724 6.28876C21.9865 6.24364 21.8997 6.20273 21.81 6.16384C21.6738 6.10431 21.5443 6.03683 21.414 5.96768C21.1568 5.83138 20.8938 5.70414 20.6308 5.57685C20.48 5.50298 20.3303 5.42726 20.1805 5.35184C20.1947 5.24832 20.2455 5.16912 20.3012 5.0794C20.3102 5.06467 20.3192 5.04994 20.3285 5.03476C20.3506 4.99863 20.3729 4.96259 20.3952 4.92657Z" fill="#5C968B"/>
<path d="M2.59102 14.6386C2.6191 14.6385 2.64717 14.6383 2.67609 14.6382C2.70708 14.6383 2.73807 14.6384 2.76999 14.6384C2.80313 14.6384 2.83626 14.6383 2.8694 14.6382C2.96066 14.638 3.05192 14.638 3.14319 14.6381C3.24153 14.6382 3.33987 14.638 3.43822 14.6378C3.63097 14.6376 3.82372 14.6375 4.01648 14.6376C4.17311 14.6376 4.32974 14.6376 4.48638 14.6375C4.51978 14.6375 4.51978 14.6375 4.55385 14.6374C4.59908 14.6374 4.64431 14.6374 4.68954 14.6374C5.11403 14.6371 5.53852 14.6372 5.96301 14.6373C6.35156 14.6374 6.74011 14.6372 7.12866 14.6368C7.52736 14.6364 7.92605 14.6362 8.32475 14.6363C8.5487 14.6363 8.77264 14.6362 8.99658 14.6359C9.18724 14.6357 9.3779 14.6357 9.56856 14.6359C9.66587 14.636 9.76318 14.6361 9.86049 14.6358C9.94954 14.6356 10.0386 14.6356 10.1276 14.6359C10.1752 14.636 10.2227 14.6358 10.2703 14.6356C10.2985 14.6357 10.3267 14.6359 10.3557 14.636C10.3801 14.636 10.4044 14.636 10.4295 14.636C10.5319 14.6483 10.5943 14.6856 10.6597 14.7556C10.6961 14.8348 10.6874 14.8808 10.6627 14.9629C10.6192 15.0205 10.5894 15.0594 10.5196 15.0905C10.476 15.0926 10.4323 15.0933 10.3886 15.0934C10.3606 15.0935 10.3326 15.0937 10.3037 15.0938C10.2727 15.0938 10.2416 15.0938 10.2096 15.0938C10.1765 15.0939 10.1435 15.094 10.1104 15.0941C10.0191 15.0943 9.92781 15.0945 9.83654 15.0945C9.73823 15.0947 9.63992 15.0949 9.54161 15.0951C9.30402 15.0957 9.06644 15.096 8.82886 15.0963C8.76178 15.0963 8.6947 15.0964 8.62763 15.0965C8.21133 15.097 7.79503 15.0975 7.37873 15.0978C7.28227 15.0978 7.18581 15.0979 7.08934 15.098C7.06537 15.098 7.04139 15.098 7.01669 15.098C6.62815 15.0983 6.23962 15.099 5.85108 15.0999C5.45241 15.1008 5.05374 15.1013 4.65507 15.1014C4.43114 15.1015 4.20721 15.1017 3.98328 15.1024C3.79259 15.103 3.60191 15.1032 3.41123 15.103C3.31391 15.1029 3.2166 15.103 3.11928 15.1035C3.0302 15.104 2.94113 15.1039 2.85204 15.1035C2.80453 15.1035 2.75702 15.1039 2.70951 15.1043C2.47903 15.1025 2.47903 15.1025 2.39053 15.0392C2.32682 14.9728 2.31487 14.9407 2.30969 14.8565C2.31638 14.7889 2.34364 14.7424 2.38545 14.6865C2.46689 14.6381 2.49538 14.6387 2.59102 14.6386Z" fill="black"/>
<path d="M2.55779 18.0222C2.57908 18.0221 2.60037 18.022 2.62231 18.022C2.64585 18.022 2.66939 18.022 2.69364 18.022C2.71854 18.0219 2.74343 18.0219 2.76908 18.0218C2.85304 18.0216 2.937 18.0216 3.02097 18.0216C3.08094 18.0215 3.14092 18.0214 3.2009 18.0212C3.36423 18.021 3.52756 18.0208 3.69089 18.0207C3.79283 18.0207 3.89478 18.0206 3.99673 18.0205C4.27889 18.0202 4.56105 18.02 4.84322 18.0199C4.86128 18.0199 4.87935 18.0199 4.89796 18.0199C4.92513 18.0199 4.92513 18.0199 4.95284 18.0199C4.98954 18.0199 5.02624 18.0199 5.06294 18.0199C5.09025 18.0199 5.09025 18.0199 5.1181 18.0199C5.4131 18.0198 5.7081 18.0194 6.0031 18.0189C6.30584 18.0184 6.60857 18.0182 6.91131 18.0181C7.08134 18.0181 7.25136 18.018 7.42139 18.0176C7.58129 18.0172 7.74119 18.0172 7.90109 18.0174C7.95986 18.0174 8.01862 18.0173 8.07738 18.0171C8.15746 18.0168 8.23753 18.017 8.31761 18.0172C8.34099 18.017 8.36437 18.0168 8.38846 18.0167C8.5335 18.0176 8.61717 18.0344 8.72596 18.1247C8.76768 18.1971 8.77346 18.2655 8.75429 18.3439C8.69764 18.4077 8.69764 18.4077 8.63502 18.4503C8.61928 18.4503 8.60353 18.4503 8.58731 18.4503C8.58731 18.4643 8.58731 18.4783 8.58731 18.4928C7.81485 18.4947 7.04238 18.4962 6.26991 18.4971C6.17873 18.4972 6.08754 18.4973 5.99635 18.4975C5.9782 18.4975 5.96005 18.4975 5.94134 18.4975C5.64736 18.4979 5.35338 18.4986 5.05939 18.4994C4.75776 18.5001 4.45614 18.5006 4.15451 18.5008C3.96837 18.5009 3.78223 18.5013 3.59609 18.502C3.45339 18.5025 3.31069 18.5025 3.16799 18.5024C3.10942 18.5024 3.05086 18.5026 2.9923 18.5029C2.91244 18.5034 2.83259 18.5032 2.75272 18.503C2.72947 18.5033 2.70622 18.5035 2.68227 18.5038C2.51484 18.5024 2.43953 18.4706 2.31525 18.3705C2.27602 18.2965 2.28836 18.2286 2.31376 18.1526C2.38554 18.0556 2.42939 18.0224 2.55779 18.0222Z" fill="black"/>
<path d="M21.5078 4.28877C21.5591 4.31564 21.61 4.34318 21.6605 4.37133C21.7119 4.39878 21.7634 4.42619 21.8149 4.45356C21.8371 4.46581 21.8594 4.47806 21.8823 4.49068C21.9418 4.52107 22.0003 4.54422 22.0645 4.56536C22.0645 4.57939 22.0645 4.59343 22.0645 4.60788C22.0855 4.61368 22.1064 4.61947 22.128 4.62544C22.2538 4.66489 22.3659 4.72398 22.482 4.78198C22.5063 4.79372 22.5306 4.80547 22.5557 4.81757C22.7306 4.90484 22.865 4.99406 22.9471 5.16073C22.9722 5.34934 22.956 5.49558 22.8279 5.64979C22.7192 5.63828 22.6419 5.61323 22.547 5.56507C22.5214 5.55218 22.4958 5.5393 22.4695 5.52603C22.4299 5.50572 22.4299 5.50572 22.3895 5.485C22.3633 5.47179 22.3371 5.45857 22.3102 5.44496C22.1999 5.38911 22.0904 5.33272 21.9834 5.27212C21.9079 5.22945 21.8308 5.19364 21.75 5.1594C21.5585 5.07633 21.3753 4.981 21.191 4.88622C21.0669 4.82245 20.942 4.7601 20.8167 4.69825C20.7981 4.6891 20.7796 4.67995 20.7605 4.67053C20.7181 4.64962 20.6757 4.62875 20.6333 4.60788C20.6848 4.4508 20.7807 4.35919 20.921 4.25704C21.1057 4.17525 21.3325 4.20692 21.5078 4.28877Z" fill="#5C968B"/>
<path d="M8.85007 0.477936C9.0251 0.467006 9.16845 0.521836 9.30032 0.623872C9.42911 0.747622 9.45659 0.882651 9.45183 1.04781C9.43565 1.18948 9.34847 1.30435 9.23127 1.39691C9.07769 1.48926 8.91142 1.50607 8.73034 1.48196C8.55106 1.43114 8.46025 1.32758 8.37253 1.18428C8.36365 1.17076 8.35476 1.15725 8.3456 1.14333C8.2927 1.03104 8.30237 0.896749 8.35017 0.784593C8.43775 0.644581 8.55308 0.531917 8.72885 0.485245C8.76932 0.483773 8.80981 0.481823 8.85007 0.477936Z" fill="black"/>
<path d="M17.7711 14.6866C17.779 14.6866 17.7868 14.6866 17.795 14.6866C17.795 17.76 17.795 20.8335 17.795 24C11.9226 24 6.05028 24 0 24C0 23.993 0 23.986 0 23.9787C5.86446 23.9787 11.7289 23.9787 17.7711 23.9787C17.7632 20.9615 17.7554 17.9442 17.7472 14.8355C17.7118 14.8881 17.7118 14.8881 17.6757 14.9418C17.6235 14.9803 17.6235 14.9803 17.5803 15.0056C17.613 14.9274 17.6527 14.8577 17.701 14.7863C17.7136 14.7675 17.7262 14.7488 17.7391 14.7294C17.755 14.7082 17.755 14.7082 17.7711 14.6866Z" fill="#5C968B"/>
<path d="M2.67319 11.2339C2.69283 11.2338 2.71248 11.2338 2.73271 11.2337C2.79896 11.2335 2.8652 11.2338 2.93145 11.2341C2.97925 11.2341 3.02706 11.234 3.07486 11.2339C3.20655 11.2338 3.33824 11.234 3.46993 11.2344C3.61182 11.2346 3.7537 11.2345 3.89559 11.2345C4.14153 11.2345 4.38747 11.2347 4.63341 11.235C4.89139 11.2354 5.14936 11.2356 5.40734 11.2357C5.43139 11.2357 5.43139 11.2357 5.45593 11.2357C5.53734 11.2357 5.61876 11.2358 5.70018 11.2358C6.27706 11.2359 6.85394 11.2363 7.43082 11.237C7.9913 11.2375 8.55178 11.238 9.11226 11.2383C9.13817 11.2383 9.13817 11.2383 9.1646 11.2383C9.33806 11.2384 9.51151 11.2385 9.68496 11.2385C10.0383 11.2387 10.3917 11.2389 10.745 11.2391C10.7694 11.2391 10.7694 11.2391 10.7943 11.2391C11.8795 11.2397 12.9647 11.2407 14.0499 11.2418C14.0499 11.2488 14.0499 11.2558 14.0499 11.263C14.0255 11.263 14.0011 11.263 13.976 11.263C12.9016 11.2629 11.8272 11.2629 10.7529 11.2637C10.7366 11.2637 10.7203 11.2637 10.7036 11.2637C10.3503 11.264 9.99691 11.2643 9.64358 11.2646C9.4703 11.2648 9.29703 11.265 9.12376 11.2651C9.0979 11.2651 9.0979 11.2651 9.07151 11.2652C8.51238 11.2656 7.95325 11.2657 7.39412 11.2656C6.81965 11.2654 6.24519 11.2657 5.67073 11.2665C5.58963 11.2666 5.50854 11.2667 5.42744 11.2668C5.41148 11.2668 5.39552 11.2669 5.37908 11.2669C5.1219 11.2672 4.86473 11.2671 4.60755 11.2668C4.34915 11.2665 4.09076 11.2667 3.83236 11.2674C3.69229 11.2677 3.55223 11.2679 3.41216 11.2674C3.28404 11.2671 3.15594 11.2673 3.02782 11.2679C2.98136 11.2681 2.9349 11.268 2.88844 11.2677C2.82548 11.2673 2.76257 11.2677 2.69961 11.2683C2.6814 11.268 2.66319 11.2677 2.64443 11.2673C2.57495 11.2687 2.52086 11.2713 2.4678 11.3138C2.43899 11.3455 2.41204 11.3786 2.38535 11.4119C2.36961 11.4119 2.35387 11.4119 2.33765 11.4119C2.39679 11.2493 2.49302 11.2323 2.67319 11.2339Z" fill="#5C968B"/>
<path d="M17.7709 14.6866C17.7788 14.6866 17.7867 14.6866 17.7948 14.6866C17.7948 17.76 17.7948 20.8335 17.7948 24C17.7869 24 17.779 24 17.7709 24C17.763 20.9757 17.7552 17.9514 17.7471 14.8355C17.7116 14.8881 17.7116 14.8881 17.6755 14.9418C17.6233 14.9803 17.6233 14.9803 17.5801 15.0056C17.6128 14.9274 17.6525 14.8577 17.7008 14.7863C17.7134 14.7675 17.726 14.7488 17.7389 14.7294C17.7495 14.7153 17.76 14.7012 17.7709 14.6866Z" fill="#5C968B"/>
<path d="M9.30301 1.86481C9.31876 1.87182 9.3345 1.87884 9.35072 1.88607C9.34285 1.89309 9.33498 1.9001 9.32687 1.90733C10.5863 1.91435 11.8458 1.92137 13.1435 1.9286C13.1435 1.93561 13.1435 1.94263 13.1435 1.94986C11.8132 1.94986 10.4828 1.94986 9.11218 1.94986C9.17632 1.91175 9.23034 1.8864 9.30301 1.86481Z" fill="#5C968B"/>
<path d="M16.9842 10.4126C16.9921 10.4407 16.9999 10.4687 17.0081 10.4977C16.9923 10.4977 16.9766 10.4977 16.9604 10.4977C16.9618 10.5174 16.9633 10.5371 16.9648 10.5575C16.9604 10.6252 16.9604 10.6252 16.929 10.6585C16.9158 10.6685 16.9025 10.6786 16.8888 10.689C16.877 10.707 16.8652 10.725 16.853 10.7435C16.8172 10.7953 16.8172 10.7953 16.7457 10.8379C16.7799 10.7334 16.8301 10.6464 16.8918 10.5535C16.9007 10.5398 16.9095 10.5262 16.9187 10.5122C16.9404 10.4789 16.9623 10.4458 16.9842 10.4126Z" fill="#5C968B"/>
<path d="M14.0734 3.56573C14.0967 3.6307 14.0974 3.67014 14.0752 3.73518C14.07 3.75083 14.0647 3.76648 14.0593 3.7826C14.0537 3.79875 14.048 3.81489 14.0421 3.83153C14.0367 3.84767 14.0313 3.86382 14.0258 3.88045C13.9573 4.08127 13.9573 4.08127 13.8588 4.13985C13.8867 4.04782 13.919 3.95958 13.9574 3.87048C13.9992 3.76987 14.0359 3.66765 14.0734 3.56573Z" fill="#5C968B"/>
<path d="M15.7674 17.8762C15.7831 17.9042 15.7989 17.9323 15.8151 17.9612C15.7823 18.0037 15.7823 18.0037 15.7435 18.0463C15.7278 18.0463 15.712 18.0463 15.6958 18.0463C15.7037 18.0673 15.7116 18.0884 15.7197 18.1101C15.69 18.1895 15.6568 18.1991 15.5765 18.2376C15.6163 18.1066 15.6929 17.9935 15.7674 17.8762Z" fill="#5C968B"/>
<path d="M14.074 15.0692C14.0975 15.1343 14.1008 15.1748 14.074 15.2393C14.042 15.284 14.042 15.284 14.0039 15.3283C13.9852 15.3505 13.9852 15.3505 13.966 15.3731C13.9309 15.4094 13.9309 15.4094 13.8832 15.4306C13.9229 15.2996 13.9995 15.1865 14.074 15.0692Z" fill="#5C968B"/>
<path d="M8.82025 0.458707C8.83688 0.458899 8.85352 0.459091 8.87066 0.459288C8.91151 0.459787 8.95235 0.46055 8.99319 0.461365C8.99319 0.468382 8.99319 0.475399 8.99319 0.482628C8.97074 0.484711 8.9483 0.486794 8.92517 0.488941C8.70231 0.509938 8.70231 0.509938 8.51611 0.610208C8.52208 0.559708 8.52208 0.559708 8.53997 0.503892C8.62481 0.447926 8.71946 0.456499 8.82025 0.458707Z" fill="#5C968B"/>
<path d="M9.30301 1.86481C9.31876 1.87182 9.3345 1.87884 9.35072 1.88607C9.34285 1.89309 9.33498 1.9001 9.32687 1.90733C9.39771 1.91435 9.46856 1.92137 9.54155 1.9286C9.54155 1.93561 9.54155 1.94263 9.54155 1.94986C9.39986 1.94986 9.25817 1.94986 9.11218 1.94986C9.17632 1.91175 9.23034 1.8864 9.30301 1.86481Z" fill="#5C968B"/>
<path d="M14.7175 19.556C14.7253 19.556 14.7332 19.556 14.7413 19.556C14.7473 19.6264 14.7473 19.6264 14.7413 19.7048C14.6951 19.742 14.6951 19.742 14.6459 19.7686C14.638 19.7897 14.6302 19.8107 14.622 19.8324C14.6063 19.8324 14.5906 19.8324 14.5743 19.8324C14.6146 19.7368 14.6654 19.6468 14.7175 19.556Z" fill="#5C968B"/>
<path d="M15.5288 18.2587C15.5602 18.2657 15.5917 18.2727 15.6242 18.2799C15.5823 18.3716 15.5095 18.448 15.4095 18.4926C15.4441 18.412 15.4847 18.3355 15.5288 18.2587Z" fill="#5C968B"/>
<path d="M20.1087 9.85974C20.1323 9.85974 20.1559 9.85974 20.1802 9.85974C20.1542 9.94002 20.1347 9.99732 20.061 10.0511C20.061 10.002 20.061 9.95287 20.061 9.90227C20.0767 9.90227 20.0925 9.90227 20.1087 9.90227C20.1087 9.88823 20.1087 9.8742 20.1087 9.85974Z" fill="#5C968B"/>
<path d="M21.4444 9.98743C21.468 9.99444 21.4916 10.0015 21.5159 10.0087C21.4572 10.1291 21.4572 10.1291 21.3922 10.1655C21.3779 10.1699 21.3636 10.1743 21.3489 10.1788C21.3775 10.1132 21.408 10.0499 21.4444 9.98743Z" fill="#5C968B"/>
<path d="M18.9878 7.2019C18.9957 7.2019 19.0036 7.2019 19.0117 7.2019C19.0266 7.27367 19.0266 7.27367 19.0355 7.35075C19.0198 7.36478 19.004 7.37882 18.9878 7.39327C18.9642 7.37924 18.9406 7.36521 18.9163 7.35075C18.961 7.24975 18.961 7.24975 18.9878 7.2019Z" fill="#5C968B"/>
<path d="M12.4993 20.5978C12.5229 20.5978 12.5466 20.5978 12.5709 20.5978C12.536 20.6912 12.476 20.7016 12.3801 20.7467C12.3722 20.7256 12.3643 20.7046 12.3562 20.6829C12.4034 20.6689 12.4507 20.6548 12.4993 20.6404C12.4993 20.6263 12.4993 20.6123 12.4993 20.5978Z" fill="#5C968B"/>
<path d="M17.3178 9.88092C17.339 9.93382 17.3458 9.95712 17.3207 10.0098C17.3119 10.0234 17.303 10.037 17.2939 10.051C17.286 10.0721 17.2782 10.0931 17.27 10.1148C17.2464 10.1148 17.2228 10.1148 17.1985 10.1148C17.2277 10.0286 17.2629 9.95654 17.3178 9.88092Z" fill="#5C968B"/>
<path d="M16.5306 15.6008C16.5542 15.6149 16.5778 15.6289 16.6022 15.6434C16.5707 15.6925 16.5392 15.7416 16.5068 15.7922C16.4989 15.7922 16.491 15.7922 16.4829 15.7922C16.5038 15.6248 16.5038 15.6248 16.5306 15.6008Z" fill="#5C968B"/>
<path d="M21.0867 10.5615C21.1046 10.596 21.1046 10.596 21.1105 10.6465C21.0347 10.7654 21.0347 10.7654 20.9674 10.7954C20.9966 10.7092 21.0318 10.6371 21.0867 10.5615Z" fill="#5C968B"/>
<path d="M8.61118 0.525146C8.62692 0.532163 8.64267 0.53918 8.65889 0.54641C8.59591 0.602545 8.53294 0.65868 8.46806 0.716517C8.45231 0.7095 8.43657 0.702483 8.42035 0.695253C8.48396 0.638551 8.54757 0.581849 8.61118 0.525146Z" fill="#5C968B"/>
<path d="M17.0795 15.7709C17.0873 15.7709 17.0952 15.7709 17.1033 15.7709C17.1078 15.82 17.1078 15.82 17.1033 15.8772C17.069 15.9117 17.069 15.9117 17.0318 15.941C17.0239 15.962 17.016 15.9831 17.0079 16.0048C16.9922 16.0048 16.9764 16.0048 16.9602 16.0048C16.9948 15.9242 17.0354 15.8477 17.0795 15.7709Z" fill="#5C968B"/>
<path d="M17.6755 9.30688C17.7001 9.36617 17.7004 9.38913 17.677 9.45041C17.6686 9.4662 17.6603 9.48199 17.6516 9.49825C17.628 9.49825 17.6044 9.49825 17.5801 9.49825C17.6087 9.4327 17.6392 9.36934 17.6755 9.30688Z" fill="#5C968B"/>
<path d="M18.1053 8.6051C18.121 8.63317 18.1368 8.66124 18.153 8.69016C18.1294 8.70068 18.1294 8.70068 18.1053 8.71142C18.0783 8.7543 18.0783 8.7543 18.0576 8.79647C18.0419 8.79647 18.0261 8.79647 18.0099 8.79647C18.0385 8.73091 18.069 8.66756 18.1053 8.6051Z" fill="#5C968B"/>
<path d="M14.0974 20.3214C14.0239 20.3869 13.9349 20.408 13.835 20.4278C13.9821 20.2872 13.9821 20.2872 14.0974 20.3214Z" fill="#5C968B"/>
<path d="M17.2465 14.4313C17.2544 14.4453 17.2622 14.4593 17.2703 14.4738C17.2861 14.4808 17.3018 14.4878 17.318 14.4951C17.2944 14.5372 17.2708 14.5793 17.2465 14.6226C17.2386 14.6226 17.2307 14.6226 17.2226 14.6226C17.2203 14.4918 17.2203 14.4918 17.2226 14.4525C17.2305 14.4455 17.2384 14.4385 17.2465 14.4313Z" fill="#5C968B"/>
<path d="M18.8209 11.9861C18.8366 11.9932 18.8524 12.0002 18.8686 12.0074C18.8371 12.0565 18.8056 12.1056 18.7732 12.1563C18.7574 12.1282 18.7417 12.1001 18.7255 12.0712C18.757 12.0431 18.7884 12.0151 18.8209 11.9861Z" fill="#5C968B"/>
<path d="M20.3952 4.92657C20.4267 4.93359 20.4582 4.94061 20.4907 4.94784C20.4907 4.96187 20.4907 4.97591 20.4907 4.99036C20.4434 5.01142 20.3962 5.03247 20.3475 5.05415C20.3633 5.01205 20.379 4.96995 20.3952 4.92657Z" fill="#5C968B"/>
<path d="M13.3823 3.73584C13.4059 3.74286 13.4295 3.74987 13.4538 3.7571C13.4459 3.80622 13.4381 3.85534 13.43 3.90595C13.4221 3.89191 13.4142 3.87788 13.4061 3.86342C13.3904 3.86342 13.3746 3.86342 13.3584 3.86342C13.3663 3.82132 13.3741 3.77922 13.3823 3.73584Z" fill="#5C968B"/>
<path d="M13.9545 19.6198C13.9702 19.6479 13.986 19.6759 14.0022 19.7049C14.0179 19.7049 14.0337 19.7049 14.0499 19.7049C14.042 19.7259 14.0341 19.747 14.026 19.7687C14.0024 19.7757 13.9788 19.7827 13.9545 19.7899C13.9545 19.7338 13.9545 19.6776 13.9545 19.6198Z" fill="#5C968B"/>
<path d="M16.0059 17.4933C16.0216 17.5214 16.0374 17.5495 16.0536 17.5784C16.0142 17.6135 15.9749 17.6486 15.9343 17.6847C15.9343 17.6062 15.9649 17.5618 16.0059 17.4933Z" fill="#5C968B"/>
<path d="M14.7893 13.9423C14.8086 13.9781 14.8086 13.9781 14.8131 14.0273C14.755 14.0858 14.755 14.0858 14.6938 14.1336C14.7191 14.0613 14.7418 14.0058 14.7893 13.9423Z" fill="#5C968B"/>
</svg>
