<svg width="24" height="26" viewBox="0 0 24 26" fill="none" xmlns="http://www.w3.org/2000/svg">
<path d="M22.9933 13.7974L18.7518 12.0107L14.739 13.7311L14.5437 13.8149L14.3484 13.7311L11.2304 12.3943L10.0966 13.9061L9.69812 14.4373L9.29969 13.9061L8.12731 12.343L5.51772 13.4618L5.32241 13.5455L5.12711 13.4618L0.999997 11.6923V21.8287L5.32241 23.682L9.42364 21.9236L9.61895 21.8398L9.81426 21.9236L14.5437 23.9513L18.5538 22.232L18.7491 22.1482L18.9444 22.232L23.0013 23.9713L22.9933 13.7974ZM18.9425 11.0101L23.6844 13.0076L23.9889 13.1359L23.9891 13.4666L23.998 24.7278L23.9986 25.4843L23.3047 25.1868L18.7491 23.2336L14.739 24.953L14.5437 25.0367L14.3484 24.953L9.61897 22.9252L5.51773 24.6836L5.32242 24.7674L5.12712 24.6836L0.304706 22.616L0 22.4854V22.157V10.9352V10.1781L0.695321 10.4762L5.32244 12.4601L8.09512 11.2713L8.45351 11.1177L8.68886 11.4315L9.69815 12.7771L10.6689 11.4828L10.9043 11.169L11.2627 11.3227L14.5437 12.7294L18.5539 11.0101L18.7465 10.9275L18.9425 11.0101Z" fill="#083345"/>
<path d="M9.6935 7.54688C9.01979 7.54688 8.40975 7.27369 7.96815 6.83213C7.52652 6.39056 7.25336 5.7805 7.25336 5.10683C7.25336 4.4331 7.52652 3.82306 7.96813 3.38146C8.40973 2.93985 9.01977 2.66669 9.6935 2.66669C10.3672 2.66669 10.9772 2.93987 11.4188 3.38148C11.8604 3.82308 12.1335 4.43312 12.1335 5.10683C12.1335 5.7805 11.8604 6.39056 11.4188 6.83213C10.9772 7.27369 10.3672 7.54688 9.6935 7.54688ZM8.67519 6.12509C8.93577 6.38565 9.29582 6.54685 9.6935 6.54685C10.0912 6.54685 10.4512 6.38565 10.7118 6.12509C10.9723 5.86452 11.1335 5.50447 11.1335 5.10683C11.1335 4.70915 10.9723 4.34909 10.7118 4.08852C10.4512 3.82792 10.0911 3.66671 9.6935 3.66671C9.2958 3.66671 8.93574 3.82792 8.67517 4.0885C8.41458 4.34908 8.25338 4.70913 8.25338 5.10683C8.25338 5.50447 8.4146 5.86453 8.67519 6.12509Z" fill="#083345"/>
<path d="M5.33335 13.3333L0.666687 11.3333V22L5.33335 24L10 22.6666L14.6667 24.6666L18.6667 22.6666L23.3334 24.6666V13.3333L18.6667 11.3333L14.6667 13.3333L11.3334 12L9.33335 14V13.3333L8.00002 12L5.33335 13.3333Z" fill="#083345"/>
<path fill-rule="evenodd" clip-rule="evenodd" d="M0 10.3223L5.31175 12.5988L8.13164 11.1888L9.66667 12.7239L11.1728 11.2178L14.6363 12.6032L18.6451 10.5988L24 12.8938V25.6777L18.6883 23.4012L14.6883 25.4012L9.95524 23.3728L5.28858 24.7062L0 22.4396V10.3223ZM8.66667 13.6095L7.86836 12.8112L5.35492 14.0679L1.33333 12.3444V21.5604L5.37809 23.2939L10.0448 21.9606L14.6451 23.9321L18.6451 21.9321L22.6667 23.6557V13.773L18.6883 12.0679L14.697 14.0635L11.4939 12.7823L8.66667 15.6095V13.6095Z" fill="#083345"/>
<path d="M15.186 13.0029V24.1009H14.186V13.0029H15.186Z" fill="white"/>
<path d="M5.82248 13.0029V24.1009H4.82245V13.0029H5.82248Z" fill="white"/>
<path d="M19.378 11.7249V22.823H18.378V11.7249H19.378Z" fill="white"/>
<path d="M9.54241 1.00002C8.47217 1.00002 7.5032 1.43384 6.80186 2.13517C6.10053 2.83651 5.66671 3.80548 5.66671 4.87572C5.66671 5.30878 5.7354 5.72086 5.8623 6.10202C5.99469 6.49972 6.19066 6.86955 6.43832 7.19984L9.54241 11.3384L12.6465 7.19984C12.8941 6.86957 13.09 6.49972 13.2224 6.10197C13.3493 5.72084 13.418 5.30878 13.418 4.87572C13.418 3.80548 12.9841 2.83651 12.2828 2.13517C11.5815 1.43384 10.6126 1.00002 9.54241 1.00002ZM6.09483 1.42814C6.97718 0.54578 8.19614 0 9.54241 0C10.8886 0 12.1075 0.54578 12.9899 1.42814C13.8722 2.31049 14.418 3.52941 14.418 4.87568C14.418 5.40919 14.3301 5.92672 14.1677 6.41448C14.0003 6.91741 13.7539 7.38326 13.4433 7.79751L9.94085 12.4673L9.54243 12.9985L9.14397 12.4673L5.64145 7.79751C5.33084 7.38328 5.08437 6.91743 4.91697 6.41454C4.75459 5.92678 4.66669 5.40925 4.66669 4.87572C4.66669 3.52945 5.21249 2.31049 6.09483 1.42814Z" fill="#083345"/>
<path d="M10.2943 12.6945V22.4557H9.29425V12.6945H10.2943Z" fill="white"/>
</svg>
