<svg width="24" height="24" viewBox="0 0 24 24" fill="none" xmlns="http://www.w3.org/2000/svg">
<path d="M0 3.01294C1.18076 3.01294 2.36153 3.01294 3.57807 3.01294C3.60169 3.13223 3.6253 3.25151 3.64964 3.37442C3.80793 3.9879 4.11692 4.54419 4.60202 5.00679C4.64732 5.05021 4.68962 5.09493 4.732 5.1406C4.96196 5.37534 5.27903 5.56102 5.5818 5.71338C5.61985 5.73304 5.61985 5.73304 5.65867 5.75309C6.09727 5.97454 6.56073 6.10428 7.06185 6.15003C7.15615 6.15991 7.15615 6.15991 7.18 6.18118C7.22428 6.18332 7.26865 6.18396 7.313 6.18402C7.35633 6.18416 7.35633 6.18416 7.40054 6.1843C7.43285 6.18429 7.46517 6.18428 7.49749 6.18427C7.5313 6.18433 7.56511 6.1844 7.59892 6.18448C7.6911 6.18467 7.78328 6.18472 7.87546 6.18473C7.93312 6.18475 7.99079 6.18479 8.04845 6.18485C8.24988 6.18505 8.4513 6.18513 8.65272 6.18512C8.83999 6.1851 9.02725 6.18533 9.21452 6.18566C9.37551 6.18594 9.53651 6.18606 9.6975 6.18604C9.79354 6.18604 9.88959 6.1861 9.98563 6.18632C10.0762 6.18653 10.1668 6.18653 10.2575 6.18638C10.3061 6.18634 10.3547 6.18652 10.4033 6.1867C10.6516 6.18596 10.8954 6.16765 11.1323 6.09745C11.2189 6.07219 11.3051 6.0481 11.3932 6.02702C12.3995 5.75617 13.2431 5.1229 13.7412 4.30395C13.7516 4.28665 13.7619 4.26935 13.7726 4.25153C13.7823 4.23546 13.7919 4.2194 13.8019 4.20285C13.9174 4.00446 13.9915 3.79222 14.0648 3.57908C14.0721 3.55784 14.0794 3.53661 14.087 3.51473C14.1329 3.37768 14.168 3.24521 14.1861 3.10289C14.193 3.05547 14.193 3.05547 14.2169 3.01294C15.3976 3.01294 16.5784 3.01294 17.795 3.01294C17.8084 4.29879 17.8084 4.29879 17.8113 4.83984C17.8119 4.96345 17.8126 5.08705 17.8133 5.21065C17.8134 5.23389 17.8134 5.23389 17.8136 5.25759C17.815 5.50657 17.8176 5.75553 17.8207 6.00449C17.8239 6.26063 17.8257 6.51676 17.8264 6.77291C17.8268 6.91654 17.8278 7.06011 17.8303 7.20372C17.8326 7.33931 17.8332 7.47483 17.8327 7.61044C17.8328 7.65981 17.8335 7.70918 17.8348 7.75854C17.8441 8.13149 17.7348 8.36713 17.5025 8.67525C17.4365 8.76675 17.3817 8.86296 17.3268 8.96003C17.2303 9.12727 17.1283 9.29093 17.0227 9.45373C16.9303 9.59657 16.8418 9.74106 16.7543 9.88631C16.6673 10.0307 16.579 10.1737 16.4845 10.3142C16.3692 10.4857 16.2639 10.6615 16.1583 10.8377C16.0527 11.0135 15.9438 11.1875 15.8331 11.3608C15.7454 11.4984 15.6596 11.6369 15.5751 11.7761C15.4828 11.9279 15.3885 12.0784 15.2918 12.2279C15.1752 12.4083 15.0635 12.5907 14.9529 12.774C14.8688 12.913 14.7825 13.0507 14.694 13.1874C14.5764 13.3691 14.4636 13.5527 14.3522 13.7374C14.2663 13.8795 14.1789 14.0207 14.0887 14.1606C14.0538 14.2152 14.0246 14.2653 14.0022 14.325C13.9865 14.325 13.9707 14.325 13.9545 14.325C13.9481 14.3435 13.9418 14.3621 13.9352 14.3811C13.9074 14.4512 13.8739 14.5111 13.8331 14.5757C13.8184 14.599 13.8038 14.6224 13.7887 14.6464C13.7729 14.6713 13.7571 14.6962 13.7413 14.7211C13.7251 14.7468 13.7089 14.7725 13.6928 14.7982C13.6603 14.8499 13.6277 14.9016 13.5951 14.9533C13.5309 15.0555 13.4675 15.158 13.4044 15.2606C13.3882 15.2868 13.3882 15.2868 13.3717 15.3135C13.3196 15.398 13.2679 15.4827 13.2165 15.5676C13.1616 15.6576 13.1046 15.7464 13.0473 15.8352C12.9294 16.018 12.8142 16.2018 12.7022 16.3876C12.594 16.5668 12.4829 16.7441 12.3688 16.9204C12.2773 17.0622 12.1897 17.2057 12.1028 17.3497C12.0073 17.5083 11.9092 17.6646 11.8052 17.8189C11.6928 17.9874 11.5903 18.1608 11.487 18.3339C11.4732 18.3569 11.4594 18.3799 11.4453 18.4036C11.4267 18.4347 11.4267 18.4347 11.4079 18.4665C11.3783 18.5139 11.3783 18.5139 11.3544 18.5352C11.3507 18.5686 11.3485 18.6021 11.347 18.6356C11.346 18.6574 11.345 18.6791 11.3439 18.7015C11.3429 18.7256 11.3418 18.7497 11.3408 18.7745C11.3396 18.7997 11.3384 18.8249 11.3372 18.8509C11.334 18.9204 11.331 18.9899 11.3279 19.0593C11.3247 19.1324 11.3214 19.2054 11.3181 19.2784C11.3125 19.4016 11.3071 19.5247 11.3017 19.6478C11.2955 19.7891 11.2891 19.9303 11.2827 20.0715C11.2765 20.2081 11.2704 20.3447 11.2643 20.4813C11.2617 20.539 11.2591 20.5966 11.2565 20.6543C11.2484 20.8339 11.2412 21.0135 11.2352 21.1931C11.2343 21.2156 11.2334 21.2381 11.2326 21.2612C11.2304 21.3233 11.2289 21.3853 11.2276 21.4474C11.2269 21.4652 11.2262 21.4831 11.2255 21.5015C11.2243 21.6144 11.246 21.6778 11.3306 21.7672C11.4045 21.8002 11.4658 21.8038 11.5453 21.7885C11.6382 21.7458 11.7223 21.6933 11.8076 21.6396C11.9868 21.5272 12.1674 21.4169 12.3488 21.3074C12.3778 21.2899 12.4068 21.2723 12.4359 21.2548C12.5766 21.1698 12.7173 21.0848 12.8581 20.9999C12.9378 20.9518 13.0175 20.9037 13.0972 20.8555C13.1129 20.8461 13.1286 20.8366 13.1448 20.8268C13.3295 20.7153 13.514 20.6037 13.6981 20.4914C13.7154 20.4809 13.7327 20.4703 13.7505 20.4594C13.845 20.4018 13.9392 20.3438 14.0332 20.2857C14.0542 20.2727 14.0752 20.2598 14.0968 20.2465C14.1372 20.2216 14.1775 20.1966 14.2178 20.1716C14.2357 20.1606 14.2537 20.1495 14.2721 20.1382C14.288 20.1283 14.3038 20.1185 14.3202 20.1084C14.36 20.0874 14.36 20.0874 14.4077 20.0874C14.414 20.0724 14.4204 20.0574 14.4269 20.0419C14.4569 19.9779 14.492 19.9191 14.53 19.8586C14.5521 19.8231 14.5521 19.8231 14.5748 19.787C14.5906 19.7617 14.6065 19.7365 14.6224 19.7113C14.6386 19.6855 14.6547 19.6597 14.6709 19.6339C14.7031 19.5825 14.7354 19.531 14.7677 19.4795C14.8298 19.3806 14.8916 19.2815 14.9534 19.1824C14.9631 19.1667 14.9729 19.1511 14.983 19.1349C15.0306 19.0589 15.0306 19.0589 15.0756 18.9817C15.0914 18.9817 15.1071 18.9817 15.1233 18.9817C15.1258 18.9666 15.1283 18.9515 15.1309 18.9359C15.1492 18.868 15.1782 18.8181 15.2169 18.7574C15.2313 18.7344 15.2458 18.7115 15.2607 18.6879C15.2766 18.6631 15.2924 18.6383 15.3082 18.6136C15.3411 18.5616 15.3739 18.5096 15.4067 18.4575C15.415 18.4444 15.4233 18.4312 15.4318 18.4177C15.5112 18.292 15.588 18.1652 15.6645 18.0381C15.7697 17.8641 15.8778 17.6918 15.9886 17.5205C16.0999 17.3478 16.2077 17.1734 16.3153 16.9988C16.4231 16.8241 16.5319 16.65 16.6425 16.4766C16.7601 16.2922 16.874 16.1063 16.9868 15.9195C17.0888 15.7511 17.1937 15.5843 17.2999 15.418C17.3984 15.2634 17.4949 15.108 17.5898 14.9516C17.6457 14.8601 17.7028 14.7713 17.7711 14.6865C17.779 14.6865 17.7868 14.6865 17.795 14.6865C17.795 17.7599 17.795 20.8333 17.795 23.9999C11.9226 23.9999 6.05028 23.9999 0 23.9999C0 17.0742 0 10.1485 0 3.01294Z" fill="#083345"/>
<path d="M9.32646 0.0785715C9.51745 0.166147 9.67296 0.26445 9.79459 0.424101C9.81261 0.447015 9.83063 0.46993 9.8492 0.493539C9.94962 0.635335 9.98338 0.766379 9.98095 0.933092C9.98075 0.950742 9.98056 0.968392 9.98035 0.986578C9.97124 1.28534 9.84938 1.51381 9.60973 1.72116C9.52258 1.78642 9.43491 1.82838 9.33112 1.86968C9.28952 1.88636 9.28952 1.88636 9.24709 1.90338C9.22605 1.91166 9.20501 1.91995 9.18334 1.92848C9.20355 1.92853 9.22376 1.92858 9.24458 1.92864C9.73675 1.92989 10.2289 1.9315 10.7211 1.93349C10.9591 1.93445 11.1971 1.93529 11.4351 1.93585C11.6426 1.93634 11.8501 1.93705 12.0576 1.93802C12.1674 1.93853 12.2772 1.93893 12.387 1.93906C12.4905 1.93919 12.594 1.93962 12.6975 1.94027C12.7353 1.94045 12.7732 1.94053 12.8111 1.9405C13.1146 1.94029 13.3466 1.96653 13.5724 2.16238C13.7587 2.36799 13.761 2.61185 13.7394 2.86407C13.6909 3.22868 13.5938 3.59926 13.4055 3.92724C13.3918 3.95188 13.378 3.97652 13.3639 4.00191C13.2138 4.26623 13.0305 4.50042 12.8023 4.71631C12.76 4.75429 12.76 4.75429 12.7376 4.79903C12.7218 4.79903 12.7061 4.79903 12.6899 4.79903C12.6845 4.81104 12.6792 4.82304 12.6737 4.83541C12.4143 5.2352 11.6144 5.5181 11.1482 5.63644C11.0504 5.65915 10.9528 5.67694 10.8531 5.69209C10.83 5.69571 10.8069 5.69934 10.7832 5.70307C10.4516 5.74742 10.1173 5.74201 9.78285 5.74243C9.72934 5.74251 9.67582 5.74265 9.6223 5.7428C9.43447 5.74331 9.24663 5.74359 9.0588 5.74367C8.88555 5.74375 8.71231 5.74438 8.53907 5.74527C8.38884 5.74602 8.23861 5.74634 8.08838 5.74635C7.99932 5.74637 7.91026 5.74654 7.8212 5.74716C6.80072 5.7538 5.90065 5.52407 5.15204 4.88409C5.12575 4.8623 5.12575 4.8623 5.09893 4.84007C4.85088 4.62833 4.65557 4.38273 4.48414 4.11861C4.47264 4.10159 4.46114 4.08456 4.44929 4.06703C4.37066 3.94745 4.31827 3.82466 4.26945 3.69334C4.26109 3.6717 4.26109 3.6717 4.25256 3.64962C4.10119 3.2569 3.925 2.7242 4.09679 2.31488C4.19929 2.15463 4.35101 2.01685 4.55022 1.95868C4.62297 1.94646 4.69298 1.94673 4.76702 1.94638C4.78346 1.94628 4.79991 1.94617 4.81685 1.94606C4.87194 1.94574 4.92702 1.94556 4.98211 1.94538C5.0216 1.94518 5.0611 1.94496 5.10059 1.94474C5.20783 1.94417 5.31506 1.94372 5.4223 1.9433C5.53436 1.94283 5.64642 1.94225 5.75849 1.94168C5.9707 1.94062 6.18291 1.93966 6.39512 1.93874C6.63672 1.93769 6.87831 1.93653 7.1199 1.93535C7.61688 1.93293 8.11386 1.93066 8.61085 1.92848C8.58871 1.92219 8.58871 1.92219 8.56613 1.91576C8.54678 1.91016 8.52743 1.90455 8.50749 1.89878C8.4883 1.89326 8.46912 1.88775 8.44935 1.88207C8.38419 1.86078 8.33613 1.83238 8.28286 1.79293C8.26511 1.7798 8.24737 1.76667 8.22909 1.75314C7.99402 1.56903 7.81726 1.34946 7.79329 1.06408C7.78253 0.779672 7.84545 0.558421 8.05997 0.3383C8.38785 0.0291252 8.87269 -0.0941416 9.32646 0.0785715Z" fill="#083345"/>
<path d="M16.0296 11.9435C16.1256 11.9562 16.1954 11.9835 16.2796 12.0261C16.3051 12.0389 16.3306 12.0517 16.3568 12.0649C16.3978 12.0857 16.3978 12.0857 16.4396 12.1069C16.4977 12.1362 16.5559 12.1653 16.6141 12.1945C16.6289 12.2019 16.6437 12.2094 16.659 12.217C16.8108 12.293 16.9643 12.3662 17.1179 12.4392C17.3067 12.5291 17.493 12.6215 17.6766 12.7197C17.8552 12.8147 18.0395 12.9001 18.2241 12.9854C18.2083 13.0548 18.1798 13.1096 18.1419 13.1717C18.1297 13.1917 18.1175 13.2117 18.1049 13.2323C18.085 13.2647 18.085 13.2647 18.0646 13.2977C18.0508 13.3202 18.037 13.3428 18.0228 13.366C17.9098 13.5502 17.7948 13.7333 17.6794 13.9162C17.5889 14.0598 17.4997 14.2041 17.4116 14.3489C17.3025 14.5282 17.1905 14.706 17.0773 14.8833C16.9847 15.0288 16.895 15.1756 16.8063 15.323C16.7028 15.4948 16.5955 15.6641 16.4843 15.832C16.3524 16.0313 16.2277 16.2333 16.1055 16.4375C16.0017 16.6108 15.8943 16.7822 15.7852 16.953C15.6974 17.0906 15.6117 17.2291 15.5272 17.3683C15.433 17.5232 15.3366 17.6768 15.2379 17.8294C15.1439 17.975 15.0534 18.1217 14.9663 18.2707C14.8965 18.3893 14.8225 18.5055 14.7474 18.6215C14.6417 18.785 14.5392 18.9498 14.4388 19.1159C14.4129 19.1587 14.387 19.2015 14.361 19.2443C14.3083 19.3313 14.3083 19.3313 14.2557 19.4183C14.227 19.4655 14.198 19.5127 14.169 19.5597C14.1609 19.5731 14.1529 19.5865 14.1446 19.6003C14.0386 19.7706 13.8809 19.8587 13.7023 19.9624C13.6507 19.9927 13.5991 20.0231 13.5476 20.0535C13.5341 20.0613 13.5207 20.0692 13.5069 20.0774C13.351 20.169 13.1964 20.2623 13.0419 20.3558C13.0278 20.3643 13.0138 20.3728 12.9993 20.3816C12.7954 20.5049 12.593 20.6301 12.3916 20.7566C12.272 20.8316 12.1512 20.9033 12.027 20.9719C11.9756 21.001 11.9266 21.032 11.8775 21.0641C11.8075 21.108 11.8075 21.108 11.7597 21.108C11.7474 20.5913 11.7669 20.0758 11.7902 19.5597C11.7925 19.5066 11.7948 19.4536 11.7971 19.4005C11.8008 19.3156 11.8047 19.2306 11.8087 19.1457C11.8102 19.1139 11.8116 19.0822 11.813 19.0505C11.83 18.6598 11.83 18.6598 11.9354 18.5026C11.9465 18.4856 11.9577 18.4686 11.9692 18.4512C11.9813 18.4333 11.9933 18.4154 12.0057 18.3969C12.0318 18.3572 12.0578 18.3175 12.0838 18.2778C12.0973 18.2572 12.1107 18.2367 12.1246 18.2155C12.1917 18.1114 12.2552 18.0056 12.3188 17.8999C12.4334 17.7099 12.551 17.5217 12.6706 17.3342C12.7727 17.1739 12.8721 17.0123 12.9708 16.8503C13.0459 16.7271 13.1221 16.6045 13.1995 16.4824C13.3353 16.2683 13.4686 16.0529 13.6025 15.8378C13.6383 15.7803 13.6742 15.7228 13.7102 15.6653C13.8031 15.5166 13.8954 15.3675 13.9866 15.2179C14.1044 15.0244 14.2247 14.8324 14.3479 14.6416C14.4453 14.4903 14.5392 14.3374 14.6325 14.184C14.7188 14.0423 14.8071 13.9017 14.8965 13.7615C14.9976 13.6028 15.0971 13.4435 15.1947 13.2831C15.3047 13.1022 15.4176 12.9228 15.5316 12.7438C15.6364 12.5792 15.7386 12.4133 15.8398 12.2469C15.9017 12.145 15.9646 12.0438 16.0296 11.9435Z" fill="#083345"/>
<path d="M19.9417 5.67065C20.0599 5.70913 20.1691 5.76182 20.2801 5.81418C20.3107 5.82854 20.3107 5.82854 20.3418 5.8432C20.4615 5.89978 20.5782 5.95897 20.6933 6.02258C20.8207 6.08868 20.9542 6.14476 21.0867 6.20224C21.0867 6.21627 21.0867 6.23031 21.0867 6.24476C21.1072 6.25035 21.1278 6.25593 21.1491 6.26169C21.2305 6.28753 21.3008 6.31911 21.3763 6.35673C21.3965 6.3668 21.3965 6.3668 21.4172 6.37708C21.4457 6.39126 21.4742 6.40549 21.5026 6.41976C21.5453 6.44119 21.5881 6.46248 21.6309 6.48373C21.7932 6.56452 21.9537 6.64751 22.1124 6.73382C22.0986 6.81109 22.0758 6.86832 22.0318 6.93582C22.0198 6.95437 22.0079 6.97292 21.9956 6.99203C21.9759 7.0221 21.9759 7.0221 21.9558 7.05277C21.9275 7.09675 21.8992 7.14074 21.8709 7.18475C21.8484 7.21981 21.8484 7.21981 21.8254 7.25557C21.7437 7.38353 21.6642 7.51252 21.5846 7.6415C21.5682 7.66806 21.5518 7.69461 21.5354 7.72116C21.4651 7.83483 21.395 7.94856 21.3251 8.06236C21.2123 8.24579 21.0982 8.42843 20.9823 8.61031C20.8596 8.80287 20.7404 8.99696 20.6227 9.19197C20.5366 9.33435 20.4482 9.47519 20.3565 9.61475C20.3208 9.66831 20.3208 9.66831 20.2995 9.73195C20.2837 9.73195 20.268 9.73195 20.2518 9.73195C20.2455 9.7503 20.2392 9.76865 20.2328 9.78756C20.2037 9.86033 20.1682 9.92307 20.126 9.99043C20.1184 10.0027 20.1107 10.0149 20.1029 10.0275C20.0781 10.0673 20.0531 10.1069 20.0281 10.1466C20.002 10.1884 19.9759 10.2302 19.9498 10.272C19.9323 10.3 19.9148 10.3281 19.8973 10.3561C19.8216 10.4772 19.7473 10.5988 19.6733 10.7207C19.5712 10.8884 19.4658 11.0543 19.3589 11.2197C19.2547 11.3816 19.1551 11.5457 19.056 11.7101C18.9686 11.8547 18.8784 11.9977 18.7862 12.14C18.688 12.2918 18.5944 12.444 18.5104 12.6025C18.4332 12.5884 18.3722 12.5635 18.3031 12.5299C18.2809 12.5191 18.2587 12.5084 18.2358 12.4973C18.2118 12.4855 18.1878 12.4738 18.1631 12.4616C18.1379 12.4494 18.1127 12.4371 18.0868 12.4245C18.0053 12.3847 17.9239 12.3448 17.8425 12.3048C17.8155 12.2916 17.7885 12.2783 17.7607 12.2646C17.4603 12.1169 17.1612 11.9673 16.8639 11.8146C16.7333 11.7479 16.6018 11.6855 16.4656 11.6283C16.4107 11.6029 16.3642 11.5736 16.3159 11.5393C16.3314 11.4725 16.3576 11.4197 16.3946 11.3601C16.406 11.3417 16.4173 11.3233 16.429 11.3043C16.4476 11.2746 16.4476 11.2746 16.4665 11.2443C16.4927 11.2018 16.519 11.1593 16.5453 11.1168C16.5655 11.0843 16.5655 11.0843 16.5861 11.051C16.6236 10.9904 16.6607 10.9296 16.6977 10.8688C16.8309 10.6499 16.9665 10.4324 17.1047 10.2159C17.1993 10.0671 17.2911 9.91714 17.3819 9.76651C17.4678 9.62392 17.5552 9.48266 17.6487 9.3439C17.7627 9.17465 17.8663 9.00066 17.9702 8.82639C18.0798 8.64256 18.1926 8.46072 18.3095 8.28052C18.4003 8.1402 18.4871 7.99816 18.5731 7.85546C18.6606 7.71026 18.7494 7.56631 18.8444 7.42488C18.969 7.23928 19.0833 7.04894 19.1983 6.85849C19.2725 6.73553 19.3483 6.61335 19.4246 6.49141C19.4882 6.38986 19.5512 6.28803 19.6138 6.18604C19.7203 6.01271 19.8282 5.84047 19.9417 5.67065Z" fill="#083345"/>
<path d="M2.68965 7.85291C2.71136 7.85281 2.73308 7.85271 2.75545 7.85261C2.82889 7.85235 2.90232 7.85256 2.97576 7.85275C3.02867 7.85267 3.08158 7.85255 3.1345 7.85241C3.28043 7.8521 3.42635 7.85219 3.57228 7.85235C3.71333 7.85244 3.85438 7.85223 3.99543 7.85203C4.30185 7.85161 4.60827 7.85156 4.9147 7.85167C5.18288 7.85177 5.45106 7.85176 5.71924 7.85163C5.75517 7.85162 5.79111 7.8516 5.82704 7.85158C5.88118 7.85156 5.93532 7.85154 5.98947 7.85151C6.49306 7.85128 6.99665 7.85118 7.50024 7.85135C7.52873 7.85136 7.52873 7.85136 7.5578 7.85137C7.71208 7.85142 7.86635 7.85148 8.02063 7.85153C8.62243 7.85175 9.22424 7.85157 9.82604 7.85108C10.5018 7.85052 11.1775 7.85025 11.8532 7.8504C11.9252 7.85042 11.9972 7.85043 12.0692 7.85044C12.087 7.85045 12.1047 7.85045 12.123 7.85045C12.391 7.8505 12.659 7.85033 12.927 7.85005C13.2317 7.84974 13.5364 7.84972 13.8411 7.8501C13.9967 7.85028 14.1523 7.85032 14.3079 7.85C14.4502 7.84971 14.5924 7.8498 14.7347 7.85022C14.7863 7.8503 14.8379 7.85023 14.8895 7.85001C14.9594 7.84974 15.0293 7.84998 15.0992 7.85035C15.1195 7.85015 15.1397 7.84994 15.1606 7.84973C15.2563 7.8508 15.3029 7.85465 15.3857 7.90153C15.4654 7.97596 15.4652 8.03244 15.4641 8.13186C15.4539 8.20305 15.4202 8.23865 15.3618 8.28626C15.2683 8.31407 15.1793 8.31056 15.0817 8.31044C15.0601 8.3105 15.0384 8.31055 15.0161 8.31061C14.9428 8.31078 14.8695 8.31079 14.7962 8.3108C14.7433 8.31089 14.6905 8.31098 14.6377 8.31108C14.4921 8.31134 14.3464 8.31146 14.2007 8.31155C14.06 8.31167 13.9192 8.31188 13.7784 8.31209C13.4011 8.31263 13.0239 8.31295 12.6466 8.31322C12.5217 8.31331 12.3968 8.31341 12.2718 8.31351C11.6079 8.31405 10.944 8.31452 10.2801 8.31478C10.1263 8.31484 9.97244 8.31491 9.8186 8.31497C9.79949 8.31498 9.78038 8.31499 9.76068 8.315C9.14071 8.31525 8.52074 8.31591 7.90077 8.3168C7.26364 8.31771 6.62652 8.31827 5.98939 8.31839C5.89946 8.3184 5.80954 8.31842 5.71961 8.31844C5.70191 8.31845 5.68421 8.31845 5.66598 8.31845C5.38079 8.31853 5.0956 8.31896 4.81042 8.31952C4.52395 8.32008 4.23748 8.32024 3.951 8.32001C3.79572 8.3199 3.64044 8.31996 3.48515 8.32049C3.34313 8.32096 3.20112 8.32095 3.0591 8.32055C3.00759 8.32049 2.95608 8.32061 2.90457 8.32093C2.83479 8.32133 2.76506 8.32108 2.69528 8.32067C2.67506 8.32094 2.65485 8.32122 2.63402 8.3215C2.53065 8.32014 2.49252 8.31592 2.40892 8.25629C2.33857 8.17461 2.33763 8.13363 2.33763 8.0311C2.41653 7.87286 2.50463 7.85161 2.68965 7.85291Z" fill="white"/>
<path d="M2.60834 11.2388C2.62679 11.2389 2.64525 11.2389 2.66427 11.2389C2.68379 11.2389 2.7033 11.2388 2.72341 11.2388C2.78966 11.2386 2.85592 11.2386 2.92217 11.2386C2.96981 11.2386 3.01745 11.2385 3.06508 11.2384C3.19666 11.2382 3.32824 11.2381 3.45981 11.2381C3.60146 11.238 3.74311 11.2378 3.88475 11.2376C4.21098 11.2372 4.53721 11.237 4.86344 11.2368C5.02457 11.2367 5.18571 11.2366 5.34684 11.2365C5.89818 11.2361 6.44953 11.2358 7.00087 11.2356C7.0355 11.2356 7.07013 11.2356 7.10476 11.2356C7.13052 11.2356 7.13052 11.2356 7.1568 11.2356C7.24382 11.2356 7.33083 11.2355 7.41785 11.2355C7.44375 11.2355 7.44375 11.2355 7.47018 11.2355C8.03014 11.2353 8.5901 11.2348 9.15006 11.2341C9.74177 11.2334 10.3335 11.233 10.9252 11.2329C10.9901 11.2329 11.0551 11.2329 11.12 11.2329C11.136 11.2329 11.152 11.2329 11.1684 11.2329C11.426 11.2328 11.6835 11.2325 11.9411 11.2321C12.1999 11.2316 12.4587 11.2315 12.7175 11.2317C12.8577 11.2318 12.998 11.2318 13.1383 11.2313C13.2666 11.231 13.3949 11.231 13.5232 11.2313C13.5697 11.2314 13.6162 11.2313 13.6627 11.231C13.7258 11.2307 13.7889 11.2309 13.8519 11.2312C13.8792 11.2309 13.8792 11.2309 13.907 11.2306C14.0295 11.232 14.0993 11.2575 14.1933 11.3268C14.253 11.4067 14.2518 11.4448 14.241 11.5395C14.1907 11.6242 14.1518 11.677 14.0502 11.7096C13.9853 11.7136 13.9229 11.7154 13.8581 11.7151C13.8385 11.7152 13.8189 11.7153 13.7987 11.7153C13.7325 11.7156 13.6664 11.7155 13.6003 11.7154C13.5526 11.7155 13.5048 11.7156 13.4571 11.7157C13.3257 11.716 13.1942 11.7161 13.0627 11.7161C12.9211 11.7161 12.7795 11.7164 12.6378 11.7166C12.3441 11.7171 12.0504 11.7173 11.7567 11.7174C11.7407 11.7174 11.7247 11.7174 11.7083 11.7174C11.6923 11.7174 11.6763 11.7174 11.6598 11.7174C11.4826 11.7175 11.3054 11.7176 11.1282 11.7177C10.5932 11.7182 10.0582 11.7185 9.52323 11.7186C9.49756 11.7186 9.49756 11.7186 9.47137 11.7186C9.402 11.7186 9.33264 11.7186 9.26328 11.7186C9.21107 11.7186 9.15887 11.7186 9.10666 11.7186C9.08078 11.7186 9.08078 11.7186 9.05438 11.7186C8.51214 11.7187 7.9699 11.7192 7.42767 11.7199C6.81873 11.7208 6.2098 11.7213 5.60087 11.7213C5.53597 11.7213 5.47107 11.7213 5.40617 11.7213C5.3902 11.7213 5.37422 11.7213 5.35775 11.7213C5.10031 11.7213 4.84288 11.7217 4.58544 11.7222C4.32684 11.7227 4.06824 11.7228 3.80964 11.7225C3.66948 11.7223 3.52932 11.7223 3.38915 11.7228C3.26095 11.7232 3.13276 11.7232 3.00456 11.7228C2.95807 11.7227 2.91158 11.7228 2.8651 11.7231C2.8021 11.7235 2.73914 11.7232 2.67614 11.7228C2.64881 11.7232 2.64881 11.7232 2.62093 11.7236C2.52577 11.7222 2.48537 11.7127 2.41072 11.6582C2.33658 11.5749 2.3287 11.5217 2.32927 11.4174C2.3429 11.3418 2.39163 11.3087 2.4572 11.263C2.49878 11.226 2.55291 11.2391 2.60834 11.2388Z" fill="white"/>
<path d="M20.3952 4.92664C20.4689 4.94009 20.5245 4.96232 20.589 4.99666C20.6076 5.00648 20.6263 5.0163 20.6455 5.02643C20.6652 5.03691 20.685 5.0474 20.7053 5.0582C20.8299 5.12357 20.9536 5.18834 21.0839 5.24426C21.2828 5.3303 21.4725 5.43157 21.6639 5.53002C21.7745 5.58694 21.8854 5.64354 21.9964 5.70009C22.0175 5.71087 22.0386 5.72165 22.0604 5.73276C22.1834 5.79537 22.3069 5.85691 22.4317 5.91663C22.4818 5.94116 22.5313 5.96626 22.5808 5.99188C22.5958 5.99967 22.6109 6.00746 22.6264 6.01549C22.6559 6.03075 22.6852 6.0461 22.7145 6.06155C22.7831 6.09711 22.8449 6.12675 22.9237 6.13865C22.9237 6.15268 22.9237 6.16671 22.9237 6.18117C22.9426 6.18597 22.9616 6.19077 22.9812 6.19571C23.0912 6.23169 23.1898 6.28038 23.2919 6.33135C23.3128 6.34172 23.3337 6.3521 23.3553 6.36279C23.4183 6.39421 23.4811 6.42585 23.5439 6.4576C23.5622 6.46682 23.5805 6.47605 23.5994 6.48556C23.6487 6.51051 23.6977 6.53579 23.7466 6.56126C23.761 6.56858 23.7754 6.5759 23.7903 6.58344C23.879 6.63043 23.9432 6.67638 23.9971 6.75528C24.0096 6.86163 23.9812 6.92482 23.9245 7.01767C23.9169 7.03033 23.9092 7.04298 23.9014 7.05603C23.8764 7.09724 23.851 7.13823 23.8256 7.17922C23.8082 7.20782 23.7908 7.23644 23.7734 7.26506C23.642 7.48042 23.5071 7.694 23.3708 7.90691C23.3198 7.98668 23.2702 8.06696 23.2218 8.14803C23.1486 8.2706 23.0721 8.39139 22.9952 8.51217C22.88 8.69333 22.7657 8.87494 22.6523 9.05704C22.6374 9.08097 22.6225 9.10489 22.6072 9.12954C22.5616 9.20282 22.516 9.27612 22.4704 9.34941C22.4098 9.44688 22.3492 9.54434 22.2886 9.64178C22.2737 9.66563 22.2589 9.68948 22.2436 9.71405C22.1481 9.86717 22.0517 10.0197 21.9546 10.172C21.848 10.3393 21.744 10.5077 21.6415 10.677C21.6035 10.7397 21.5655 10.8024 21.5275 10.865C21.505 10.9022 21.4825 10.9394 21.46 10.9766C21.4313 11.0239 21.4023 11.0711 21.3732 11.1183C21.3611 11.1383 21.3611 11.1383 21.3488 11.1588C21.2899 11.2533 21.2216 11.3413 21.1108 11.3907C21.037 11.3925 20.9675 11.3863 20.8961 11.3694C20.816 11.2998 20.7802 11.2456 20.7668 11.147C20.7689 11.0218 20.843 10.9288 20.914 10.8246C20.9427 10.7809 20.9714 10.7372 21.0001 10.6935C21.022 10.6604 21.022 10.6604 21.0443 10.6267C21.1087 10.5281 21.1694 10.4279 21.23 10.3275C21.327 10.1679 21.4261 10.0095 21.5267 9.85176C21.6463 9.66422 21.7624 9.47517 21.8771 9.28522C21.978 9.11856 22.082 8.95367 22.1871 8.7891C22.2802 8.64287 22.3707 8.49546 22.46 8.34738C22.566 8.17184 22.6747 7.99802 22.7865 7.82534C22.9127 7.62967 23.0344 7.43179 23.1561 7.23386C23.1641 7.22092 23.1721 7.20798 23.1803 7.19464C23.2021 7.15927 23.2238 7.12387 23.2456 7.08847C23.2815 7.03171 23.2815 7.03171 23.3292 6.96792C23.3292 6.94687 23.3292 6.92582 23.3292 6.90413C23.3154 6.89784 23.3017 6.89156 23.2875 6.88509C22.8759 6.6965 22.4708 6.49877 22.0724 6.28882C21.9865 6.2437 21.8997 6.20279 21.81 6.1639C21.6738 6.10437 21.5443 6.03689 21.414 5.96775C21.1568 5.83144 20.8938 5.7042 20.6308 5.57691C20.48 5.50304 20.3303 5.42732 20.1805 5.3519C20.1947 5.24838 20.2455 5.16918 20.3012 5.07947C20.3102 5.06473 20.3192 5.05 20.3285 5.03482C20.3506 4.99869 20.3729 4.96265 20.3952 4.92664Z" fill="#083345"/>
<path d="M2.59101 14.6386C2.61908 14.6385 2.64715 14.6384 2.67607 14.6383C2.70706 14.6383 2.73805 14.6384 2.76998 14.6385C2.80311 14.6384 2.83625 14.6384 2.86938 14.6383C2.96065 14.638 3.05191 14.6381 3.14317 14.6382C3.24151 14.6382 3.33986 14.638 3.4382 14.6379C3.63095 14.6376 3.82371 14.6376 4.01646 14.6376C4.17309 14.6377 4.32973 14.6376 4.48636 14.6375C4.51976 14.6375 4.51976 14.6375 4.55384 14.6375C4.59907 14.6375 4.6443 14.6374 4.68953 14.6374C5.11402 14.6372 5.5385 14.6372 5.96299 14.6374C6.35155 14.6375 6.7401 14.6372 7.12865 14.6368C7.52734 14.6364 7.92604 14.6362 8.32474 14.6363C8.54868 14.6364 8.77262 14.6363 8.99657 14.636C9.18723 14.6358 9.37788 14.6357 9.56854 14.636C9.66585 14.6361 9.76316 14.6361 9.86048 14.6359C9.94953 14.6356 10.0386 14.6357 10.1276 14.636C10.1752 14.6361 10.2227 14.6359 10.2703 14.6356C10.2985 14.6358 10.3267 14.6359 10.3557 14.6361C10.38 14.6361 10.4044 14.6361 10.4295 14.6361C10.5318 14.6484 10.5943 14.6857 10.6597 14.7557C10.6961 14.8349 10.6874 14.8809 10.6627 14.963C10.6192 15.0205 10.5894 15.0595 10.5196 15.0906C10.476 15.0927 10.4323 15.0934 10.3886 15.0935C10.3606 15.0936 10.3326 15.0937 10.3037 15.0938C10.2727 15.0938 10.2416 15.0938 10.2096 15.0939C10.1765 15.0939 10.1434 15.094 10.1103 15.0941C10.0191 15.0944 9.9278 15.0945 9.83653 15.0946C9.73822 15.0947 9.6399 15.095 9.54159 15.0952C9.30401 15.0957 9.06642 15.096 8.82884 15.0963C8.76176 15.0964 8.69469 15.0965 8.62761 15.0966C8.21132 15.0971 7.79502 15.0976 7.37872 15.0978C7.28226 15.0979 7.18579 15.098 7.08933 15.098C7.06535 15.098 7.04138 15.0981 7.01667 15.0981C6.62814 15.0983 6.2396 15.0991 5.85106 15.0999C5.4524 15.1008 5.05373 15.1013 4.65506 15.1015C4.43113 15.1015 4.2072 15.1018 3.98326 15.1025C3.79258 15.1031 3.6019 15.1033 3.41121 15.1031C3.31389 15.103 3.21658 15.103 3.11927 15.1035C3.03018 15.104 2.94111 15.104 2.85203 15.1036C2.80452 15.1035 2.75701 15.104 2.7095 15.1044C2.47901 15.1026 2.47901 15.1026 2.39051 15.0393C2.32681 14.9729 2.31485 14.9408 2.30968 14.8566C2.31636 14.7889 2.34363 14.7425 2.38543 14.6866C2.46688 14.6382 2.49537 14.6387 2.59101 14.6386Z" fill="white"/>
<path d="M2.55779 18.0221C2.57908 18.0221 2.60037 18.022 2.62231 18.0219C2.64585 18.0219 2.66939 18.0219 2.69364 18.0219C2.71854 18.0219 2.74343 18.0218 2.76908 18.0218C2.85304 18.0216 2.937 18.0215 3.02097 18.0215C3.08094 18.0214 3.14092 18.0213 3.2009 18.0212C3.36423 18.0209 3.52756 18.0208 3.69089 18.0207C3.79283 18.0206 3.89478 18.0205 3.99673 18.0204C4.27889 18.0202 4.56105 18.02 4.84322 18.0199C4.86128 18.0199 4.87935 18.0199 4.89796 18.0199C4.92513 18.0199 4.92513 18.0199 4.95284 18.0199C4.98954 18.0198 5.02624 18.0198 5.06294 18.0198C5.09025 18.0198 5.09025 18.0198 5.1181 18.0198C5.4131 18.0197 5.7081 18.0194 6.0031 18.0189C6.30584 18.0184 6.60857 18.0181 6.91131 18.0181C7.08134 18.018 7.25136 18.0179 7.42139 18.0175C7.58129 18.0172 7.74119 18.0171 7.90109 18.0173C7.95986 18.0173 8.01862 18.0173 8.07738 18.017C8.15746 18.0168 8.23753 18.0169 8.31761 18.0171C8.34099 18.0169 8.36437 18.0168 8.38846 18.0166C8.5335 18.0175 8.61717 18.0343 8.72596 18.1246C8.76768 18.197 8.77346 18.2654 8.75429 18.3439C8.69764 18.4077 8.69764 18.4077 8.63502 18.4502C8.61928 18.4502 8.60353 18.4502 8.58731 18.4502C8.58731 18.4642 8.58731 18.4783 8.58731 18.4927C7.81485 18.4947 7.04238 18.4962 6.26991 18.4971C6.17873 18.4972 6.08754 18.4973 5.99635 18.4974C5.9782 18.4974 5.96005 18.4974 5.94134 18.4975C5.64736 18.4978 5.35338 18.4985 5.05939 18.4993C4.75776 18.5001 4.45614 18.5006 4.15451 18.5007C3.96837 18.5008 3.78223 18.5012 3.59609 18.5019C3.45339 18.5024 3.31069 18.5025 3.16799 18.5023C3.10942 18.5024 3.05086 18.5025 2.9923 18.5029C2.91244 18.5033 2.83259 18.5032 2.75272 18.503C2.72947 18.5032 2.70622 18.5035 2.68227 18.5037C2.51484 18.5024 2.43953 18.4705 2.31525 18.3705C2.27602 18.2964 2.28836 18.2286 2.31376 18.1525C2.38554 18.0555 2.42939 18.0223 2.55779 18.0221Z" fill="white"/>
<path d="M21.5078 4.28871C21.5592 4.31558 21.6101 4.34311 21.6605 4.37127C21.712 4.39872 21.7634 4.42613 21.8149 4.4535C21.8372 4.46575 21.8594 4.478 21.8823 4.49062C21.9418 4.52101 22.0003 4.54416 22.0646 4.5653C22.0646 4.57933 22.0646 4.59336 22.0646 4.60782C22.0855 4.61362 22.1065 4.61941 22.1281 4.62538C22.2538 4.66483 22.366 4.72392 22.482 4.78192C22.5063 4.79366 22.5306 4.80541 22.5557 4.81751C22.7306 4.90478 22.8651 4.994 22.9472 5.16067C22.9722 5.34928 22.956 5.49552 22.8279 5.64973C22.7192 5.63822 22.6419 5.61317 22.547 5.56501C22.5215 5.55212 22.4959 5.53924 22.4695 5.52597C22.4299 5.50566 22.4299 5.50566 22.3896 5.48494C22.3634 5.47173 22.3372 5.45851 22.3102 5.4449C22.1999 5.38905 22.0904 5.33266 21.9834 5.27205C21.9079 5.22939 21.8308 5.19358 21.75 5.15934C21.5586 5.07627 21.3753 4.98094 21.191 4.88616C21.0669 4.82239 20.942 4.76004 20.8167 4.69819C20.7982 4.68904 20.7796 4.67989 20.7605 4.67047C20.7182 4.64956 20.6757 4.62869 20.6333 4.60782C20.6848 4.45074 20.7807 4.35913 20.9211 4.25698C21.1058 4.17519 21.3325 4.20685 21.5078 4.28871Z" fill="#083345"/>
<path d="M8.85007 0.477936C9.0251 0.467006 9.16845 0.521836 9.30032 0.623872C9.42911 0.747622 9.45659 0.882651 9.45183 1.04781C9.43565 1.18948 9.34847 1.30435 9.23127 1.39691C9.07769 1.48926 8.91142 1.50607 8.73034 1.48196C8.55106 1.43114 8.46025 1.32758 8.37253 1.18428C8.36365 1.17076 8.35476 1.15725 8.3456 1.14333C8.2927 1.03104 8.30237 0.896749 8.35017 0.784593C8.43775 0.644581 8.55308 0.531917 8.72885 0.485245C8.76932 0.483773 8.80981 0.481823 8.85007 0.477936Z" fill="white"/>
<path d="M17.7711 14.6866C17.779 14.6866 17.7868 14.6866 17.795 14.6866C17.795 17.76 17.795 20.8335 17.795 24C11.9226 24 6.05028 24 0 24C0 23.993 0 23.986 0 23.9787C5.86446 23.9787 11.7289 23.9787 17.7711 23.9787C17.7632 20.9615 17.7554 17.9442 17.7472 14.8355C17.7118 14.8881 17.7118 14.8881 17.6757 14.9418C17.6235 14.9803 17.6235 14.9803 17.5803 15.0056C17.613 14.9274 17.6527 14.8577 17.701 14.7863C17.7136 14.7675 17.7262 14.7488 17.7391 14.7294C17.755 14.7082 17.755 14.7082 17.7711 14.6866Z" fill="#083345"/>
<path d="M2.67317 11.2339C2.69282 11.2338 2.71246 11.2338 2.7327 11.2337C2.79895 11.2335 2.86519 11.2338 2.93144 11.2341C2.97924 11.2341 3.02704 11.234 3.07484 11.2339C3.20654 11.2338 3.33822 11.234 3.46992 11.2344C3.6118 11.2346 3.75369 11.2345 3.89558 11.2345C4.14152 11.2345 4.38745 11.2347 4.63339 11.235C4.89137 11.2354 5.14935 11.2356 5.40733 11.2357C5.43138 11.2357 5.43138 11.2357 5.45591 11.2357C5.53733 11.2357 5.61875 11.2358 5.70016 11.2358C6.27704 11.2359 6.85393 11.2363 7.43081 11.237C7.99129 11.2375 8.55177 11.238 9.11225 11.2383C9.13815 11.2383 9.13815 11.2383 9.16459 11.2383C9.33804 11.2384 9.51149 11.2385 9.68495 11.2385C10.0383 11.2387 10.3917 11.2389 10.745 11.2391C10.7694 11.2391 10.7694 11.2391 10.7942 11.2391C11.8795 11.2397 12.9647 11.2407 14.0499 11.2418C14.0499 11.2488 14.0499 11.2558 14.0499 11.263C14.0255 11.263 14.0011 11.263 13.976 11.263C12.9016 11.2629 11.8272 11.2629 10.7528 11.2637C10.7366 11.2637 10.7203 11.2637 10.7036 11.2637C10.3502 11.264 9.9969 11.2643 9.64356 11.2646C9.47029 11.2648 9.29702 11.265 9.12375 11.2651C9.09788 11.2651 9.09788 11.2651 9.0715 11.2652C8.51236 11.2656 7.95323 11.2657 7.3941 11.2656C6.81964 11.2654 6.24517 11.2657 5.67071 11.2665C5.58962 11.2666 5.50852 11.2667 5.42743 11.2668C5.41147 11.2668 5.39551 11.2669 5.37906 11.2669C5.12189 11.2672 4.86471 11.2671 4.60753 11.2668C4.34913 11.2665 4.09074 11.2667 3.83234 11.2674C3.69227 11.2677 3.55221 11.2679 3.41214 11.2674C3.28402 11.2671 3.15592 11.2673 3.0278 11.2679C2.98134 11.2681 2.93489 11.268 2.88843 11.2677C2.82546 11.2673 2.76256 11.2677 2.69959 11.2683C2.68138 11.268 2.66317 11.2677 2.64441 11.2673C2.57493 11.2687 2.52084 11.2713 2.46779 11.3138C2.43898 11.3455 2.41202 11.3786 2.38534 11.4119C2.3696 11.4119 2.35385 11.4119 2.33763 11.4119C2.39678 11.2493 2.49301 11.2323 2.67317 11.2339Z" fill="#083345"/>
<path d="M17.7709 14.6866C17.7788 14.6866 17.7867 14.6866 17.7948 14.6866C17.7948 17.76 17.7948 20.8335 17.7948 24C17.7869 24 17.779 24 17.7709 24C17.763 20.9757 17.7552 17.9514 17.7471 14.8355C17.7116 14.8881 17.7116 14.8881 17.6755 14.9418C17.6233 14.9803 17.6233 14.9803 17.5801 15.0056C17.6128 14.9274 17.6525 14.8577 17.7008 14.7863C17.7134 14.7675 17.726 14.7488 17.7389 14.7294C17.7495 14.7153 17.76 14.7012 17.7709 14.6866Z" fill="#083345"/>
<path d="M9.30304 1.86475C9.31879 1.87176 9.33453 1.87878 9.35075 1.88601C9.34288 1.89303 9.33501 1.90004 9.3269 1.90727C10.5864 1.91429 11.8459 1.92131 13.1435 1.92854C13.1435 1.93555 13.1435 1.94257 13.1435 1.9498C11.8132 1.9498 10.4829 1.9498 9.11221 1.9498C9.17635 1.91169 9.23037 1.88634 9.30304 1.86475Z" fill="#083345"/>
<path d="M16.9842 10.4126C16.9921 10.4407 16.9999 10.4687 17.0081 10.4977C16.9923 10.4977 16.9766 10.4977 16.9604 10.4977C16.9618 10.5174 16.9633 10.5371 16.9648 10.5575C16.9604 10.6252 16.9604 10.6252 16.929 10.6585C16.9158 10.6685 16.9025 10.6786 16.8888 10.689C16.877 10.707 16.8652 10.725 16.853 10.7435C16.8172 10.7953 16.8172 10.7953 16.7457 10.8379C16.7799 10.7334 16.8301 10.6464 16.8918 10.5535C16.9007 10.5398 16.9095 10.5262 16.9187 10.5122C16.9404 10.4789 16.9623 10.4458 16.9842 10.4126Z" fill="#083345"/>
<path d="M14.0734 3.5658C14.0966 3.63076 14.0973 3.6702 14.0752 3.73524C14.0699 3.75089 14.0647 3.76654 14.0593 3.78267C14.0536 3.79881 14.048 3.81495 14.0421 3.83159C14.0367 3.84773 14.0313 3.86388 14.0258 3.88051C13.9573 4.08133 13.9573 4.08133 13.8587 4.13991C13.8867 4.04788 13.919 3.95964 13.9574 3.87054C13.9992 3.76993 14.0359 3.66771 14.0734 3.5658Z" fill="#083345"/>
<path d="M15.7673 17.8761C15.7831 17.9042 15.7988 17.9322 15.815 17.9612C15.7822 18.0037 15.7822 18.0037 15.7435 18.0462C15.7277 18.0462 15.712 18.0462 15.6958 18.0462C15.7036 18.0673 15.7115 18.0883 15.7196 18.11C15.6899 18.1894 15.6568 18.199 15.5765 18.2376C15.6162 18.1065 15.6929 17.9934 15.7673 17.8761Z" fill="#083345"/>
<path d="M14.074 15.0691C14.0975 15.1342 14.1009 15.1747 14.074 15.2392C14.0421 15.284 14.0421 15.284 14.004 15.3282C13.9852 15.3504 13.9852 15.3504 13.966 15.373C13.9309 15.4093 13.9309 15.4093 13.8832 15.4306C13.9229 15.2995 13.9996 15.1864 14.074 15.0691Z" fill="#083345"/>
<path d="M8.82022 0.458707C8.83685 0.458899 8.85349 0.459091 8.87063 0.459288C8.91148 0.459787 8.95232 0.46055 8.99316 0.461365C8.99316 0.468382 8.99316 0.475399 8.99316 0.482628C8.97071 0.484711 8.94827 0.486794 8.92514 0.488941C8.70228 0.509938 8.70228 0.509938 8.51608 0.610208C8.52205 0.559708 8.52205 0.559708 8.53994 0.503892C8.62478 0.447926 8.71943 0.456499 8.82022 0.458707Z" fill="#083345"/>
<path d="M9.30304 1.86475C9.31879 1.87176 9.33453 1.87878 9.35075 1.88601C9.34288 1.89303 9.33501 1.90004 9.3269 1.90727C9.39774 1.91429 9.46859 1.92131 9.54158 1.92854C9.54158 1.93555 9.54158 1.94257 9.54158 1.9498C9.39989 1.9498 9.2582 1.9498 9.11221 1.9498C9.17635 1.91169 9.23037 1.88634 9.30304 1.86475Z" fill="#083345"/>
<path d="M14.7175 19.5559C14.7254 19.5559 14.7332 19.5559 14.7413 19.5559C14.7473 19.6263 14.7473 19.6263 14.7413 19.7048C14.6951 19.742 14.6951 19.742 14.6459 19.7685C14.6381 19.7896 14.6302 19.8106 14.6221 19.8323C14.6063 19.8323 14.5906 19.8323 14.5744 19.8323C14.6146 19.7367 14.6654 19.6467 14.7175 19.5559Z" fill="#083345"/>
<path d="M15.5288 18.2587C15.5602 18.2657 15.5917 18.2727 15.6242 18.2799C15.5823 18.3716 15.5095 18.448 15.4095 18.4926C15.4441 18.412 15.4847 18.3355 15.5288 18.2587Z" fill="#083345"/>
<path d="M20.1087 9.85974C20.1323 9.85974 20.1559 9.85974 20.1802 9.85974C20.1542 9.94002 20.1347 9.99732 20.061 10.0511C20.061 10.002 20.061 9.95287 20.061 9.90227C20.0767 9.90227 20.0925 9.90227 20.1087 9.90227C20.1087 9.88823 20.1087 9.8742 20.1087 9.85974Z" fill="#083345"/>
<path d="M21.4444 9.98743C21.468 9.99444 21.4916 10.0015 21.5159 10.0087C21.4572 10.1291 21.4572 10.1291 21.3922 10.1655C21.3779 10.1699 21.3636 10.1743 21.3489 10.1788C21.3775 10.1132 21.408 10.0499 21.4444 9.98743Z" fill="#083345"/>
<path d="M18.9878 7.2019C18.9957 7.2019 19.0036 7.2019 19.0117 7.2019C19.0266 7.27367 19.0266 7.27367 19.0355 7.35075C19.0198 7.36478 19.004 7.37882 18.9878 7.39327C18.9642 7.37924 18.9406 7.36521 18.9163 7.35075C18.961 7.24975 18.961 7.24975 18.9878 7.2019Z" fill="#083345"/>
<path d="M12.4994 20.5978C12.523 20.5978 12.5466 20.5978 12.5709 20.5978C12.536 20.6912 12.476 20.7015 12.3801 20.7466C12.3722 20.7256 12.3643 20.7045 12.3562 20.6828C12.4035 20.6688 12.4507 20.6548 12.4994 20.6403C12.4994 20.6263 12.4994 20.6122 12.4994 20.5978Z" fill="#083345"/>
<path d="M17.3178 9.88086C17.339 9.93376 17.3459 9.95706 17.3208 10.0098C17.3119 10.0234 17.3031 10.037 17.2939 10.051C17.2861 10.072 17.2782 10.0931 17.2701 10.1148C17.2465 10.1148 17.2228 10.1148 17.1985 10.1148C17.2277 10.0286 17.2629 9.95648 17.3178 9.88086Z" fill="#083345"/>
<path d="M16.5306 15.6008C16.5542 15.6149 16.5778 15.6289 16.6022 15.6434C16.5707 15.6925 16.5392 15.7416 16.5068 15.7922C16.4989 15.7922 16.491 15.7922 16.4829 15.7922C16.5038 15.6248 16.5038 15.6248 16.5306 15.6008Z" fill="#083345"/>
<path d="M21.0866 10.5615C21.1045 10.5961 21.1045 10.5961 21.1105 10.6466C21.0347 10.7654 21.0347 10.7654 20.9674 10.7954C20.9966 10.7092 21.0318 10.6371 21.0866 10.5615Z" fill="#083345"/>
<path d="M8.61118 0.525146C8.62692 0.532163 8.64267 0.53918 8.65889 0.54641C8.59591 0.602545 8.53294 0.65868 8.46806 0.716517C8.45231 0.7095 8.43657 0.702483 8.42035 0.695253C8.48396 0.638551 8.54757 0.581849 8.61118 0.525146Z" fill="#083345"/>
<path d="M17.0795 15.7709C17.0873 15.7709 17.0952 15.7709 17.1033 15.7709C17.1078 15.82 17.1078 15.82 17.1033 15.8772C17.069 15.9117 17.069 15.9117 17.0318 15.941C17.0239 15.962 17.016 15.9831 17.0079 16.0048C16.9922 16.0048 16.9764 16.0048 16.9602 16.0048C16.9948 15.9242 17.0354 15.8477 17.0795 15.7709Z" fill="#083345"/>
<path d="M17.6755 9.30688C17.7001 9.36617 17.7004 9.38913 17.677 9.45041C17.6686 9.4662 17.6603 9.48199 17.6516 9.49825C17.628 9.49825 17.6044 9.49825 17.5801 9.49825C17.6087 9.4327 17.6392 9.36934 17.6755 9.30688Z" fill="#083345"/>
<path d="M18.1053 8.6051C18.121 8.63317 18.1368 8.66124 18.153 8.69016C18.1294 8.70068 18.1294 8.70068 18.1053 8.71142C18.0782 8.7543 18.0782 8.7543 18.0576 8.79647C18.0418 8.79647 18.0261 8.79647 18.0099 8.79647C18.0385 8.73091 18.0689 8.66756 18.1053 8.6051Z" fill="#083345"/>
<path d="M14.0974 20.3214C14.0239 20.3869 13.9349 20.4079 13.835 20.4277C13.9822 20.2871 13.9822 20.2871 14.0974 20.3214Z" fill="#083345"/>
<path d="M17.2465 14.4313C17.2544 14.4453 17.2622 14.4593 17.2703 14.4738C17.2861 14.4808 17.3018 14.4878 17.318 14.4951C17.2944 14.5372 17.2708 14.5793 17.2465 14.6226C17.2386 14.6226 17.2307 14.6226 17.2226 14.6226C17.2203 14.4918 17.2203 14.4918 17.2226 14.4525C17.2305 14.4455 17.2384 14.4385 17.2465 14.4313Z" fill="#083345"/>
<path d="M18.8209 11.9862C18.8367 11.9932 18.8524 12.0002 18.8686 12.0075C18.8371 12.0566 18.8056 12.1057 18.7732 12.1563C18.7575 12.1282 18.7417 12.1002 18.7255 12.0713C18.757 12.0432 18.7885 12.0151 18.8209 11.9862Z" fill="#083345"/>
<path d="M20.3952 4.92664C20.4267 4.93365 20.4582 4.94067 20.4906 4.9479C20.4906 4.96193 20.4906 4.97597 20.4906 4.99043C20.4434 5.01148 20.3962 5.03253 20.3475 5.05422C20.3632 5.01211 20.379 4.97001 20.3952 4.92664Z" fill="#083345"/>
<path d="M13.3822 3.73584C13.4058 3.74286 13.4295 3.74987 13.4538 3.7571C13.4459 3.80622 13.438 3.85534 13.4299 3.90595C13.4221 3.89191 13.4142 3.87788 13.4061 3.86342C13.3903 3.86342 13.3746 3.86342 13.3584 3.86342C13.3662 3.82132 13.3741 3.77922 13.3822 3.73584Z" fill="#083345"/>
<path d="M13.9545 19.6198C13.9702 19.6478 13.986 19.6759 14.0022 19.7048C14.0179 19.7048 14.0337 19.7048 14.0499 19.7048C14.042 19.7259 14.0342 19.7469 14.0261 19.7686C14.0024 19.7756 13.9788 19.7826 13.9545 19.7899C13.9545 19.7337 13.9545 19.6776 13.9545 19.6198Z" fill="#083345"/>
<path d="M16.0059 17.4934C16.0216 17.5215 16.0373 17.5495 16.0536 17.5785C16.0142 17.6135 15.9748 17.6486 15.9343 17.6848C15.9343 17.6062 15.9649 17.5619 16.0059 17.4934Z" fill="#083345"/>
<path d="M14.7893 13.9423C14.8086 13.9781 14.8086 13.9781 14.8131 14.0273C14.755 14.0858 14.755 14.0858 14.6938 14.1336C14.7191 14.0613 14.7418 14.0058 14.7893 13.9423Z" fill="#083345"/>
</svg>
