<svg width="24" height="25" viewBox="0 0 24 25" fill="none" xmlns="http://www.w3.org/2000/svg">
<path d="M9.15722 21.6659V18.5992C9.1572 17.8192 9.79312 17.1854 10.581 17.1801H13.4671C14.2587 17.1801 14.9005 17.8155 14.9005 18.5992V18.5992V21.6755C14.9003 22.3377 15.4343 22.879 16.103 22.8945H18.0271C19.9451 22.8945 21.5 21.3552 21.5 19.4564V19.4564V10.7324C21.4898 9.98536 21.1355 9.28388 20.538 8.82756L13.9577 3.57983C12.8049 2.6661 11.1662 2.6661 10.0134 3.57983L3.46203 8.83709C2.86226 9.29155 2.50739 9.9942 2.5 10.7419V19.4564C2.5 21.3552 4.05488 22.8945 5.97291 22.8945H7.89696C8.58235 22.8945 9.13797 22.3445 9.13797 21.6659V21.6659" stroke="#C0D8CF" stroke-width="1.5" stroke-linecap="round" stroke-linejoin="round"/>
</svg>
