<svg width="24" height="25" viewBox="0 0 24 25" fill="none" xmlns="http://www.w3.org/2000/svg">
<path d="M22.9933 12.3586L18.7518 10.5719L14.739 12.2924L14.5437 12.3761L14.3484 12.2924L11.2304 10.9555L10.0966 12.4673L9.69812 12.9985L9.29969 12.4673L8.12731 10.9042L5.51772 12.023L5.32241 12.1067L5.12711 12.023L0.999997 10.2535V20.3899L5.32241 22.2432L9.42364 20.4848L9.61895 20.401L9.81426 20.4848L14.5437 22.5125L18.5538 20.7932L18.7491 20.7094L18.9444 20.7932L23.0013 22.5325L22.9933 12.3586ZM18.9425 9.57132L23.6844 11.5689L23.9889 11.6971L23.9891 12.0278L23.998 23.289L23.9986 24.0455L23.3047 23.748L18.7491 21.7948L14.739 23.5142L14.5437 23.5979L14.3484 23.5142L9.61897 21.4864L5.51773 23.2449L5.32242 23.3286L5.12712 23.2449L0.304706 21.1772L0 21.0466V20.7182V9.49641V8.73932L0.695321 9.03742L5.32244 11.0213L8.09512 9.83252L8.45351 9.67889L8.68886 9.99267L9.69815 11.3384L10.6689 10.0441L10.9043 9.73027L11.2627 9.8839L14.5437 11.2906L18.5539 9.5713L18.7465 9.48871L18.9425 9.57132Z" fill="#C0D8CF"/>
<path d="M5.82248 11.5641V22.6621H4.82245V11.5641H5.82248Z" fill="#C0D8CF"/>
<path d="M15.186 11.5641V22.6621H14.186V11.5641H15.186Z" fill="#C0D8CF"/>
<path d="M10.2943 11.2557V21.0169H9.29425V11.2557H10.2943Z" fill="#C0D8CF"/>
<path d="M19.378 10.2861V21.3842H18.378V10.2861H19.378Z" fill="#C0D8CF"/>
<path d="M9.69808 6.78125C9.02437 6.78125 8.41433 6.50807 7.97272 6.0665C7.5311 5.62493 7.25793 5.01488 7.25793 4.3412C7.25793 3.66748 7.5311 3.05744 7.9727 2.61583C8.41431 2.17423 9.02435 1.90106 9.69808 1.90106C10.3718 1.90106 10.9818 2.17425 11.4234 2.61585C11.8649 3.05745 12.1381 3.66749 12.1381 4.3412C12.1381 5.01488 11.8649 5.62493 11.4234 6.0665C10.9818 6.50807 10.3718 6.78125 9.69808 6.78125ZM8.67976 5.35946C8.94034 5.62002 9.3004 5.78123 9.69808 5.78123C10.0957 5.78123 10.4558 5.62002 10.7163 5.35946C10.9769 5.0989 11.1381 4.73884 11.1381 4.3412C11.1381 3.94352 10.9769 3.58347 10.7163 3.32289C10.4558 3.06229 10.0957 2.90109 9.69808 2.90109C9.30038 2.90109 8.94032 3.06229 8.67974 3.32287C8.41916 3.58345 8.25796 3.94351 8.25796 4.3412C8.25796 4.73885 8.41918 5.0989 8.67976 5.35946Z" fill="#C0D8CF"/>
<path d="M9.69817 1.00002C8.62793 1.00002 7.65896 1.43384 6.95762 2.13517C6.25629 2.83651 5.82247 3.80548 5.82247 4.87572C5.82247 5.30878 5.89116 5.72086 6.01806 6.10202C6.15045 6.49972 6.34642 6.86955 6.59409 7.19984L9.69817 11.3384L12.8022 7.19984C13.0498 6.86957 13.2458 6.49972 13.3782 6.10197C13.505 5.72084 13.5737 5.30878 13.5737 4.87572C13.5737 3.80548 13.1399 2.83651 12.4386 2.13517C11.7373 1.43384 10.7683 1.00002 9.69817 1.00002ZM6.25059 1.42814C7.13295 0.54578 8.3519 0 9.69817 0C11.0444 0 12.2633 0.54578 13.1456 1.42814C14.028 2.31049 14.5737 3.52941 14.5737 4.87568C14.5737 5.40919 14.4858 5.92672 14.3235 6.41448C14.1561 6.91741 13.9097 7.38326 13.5991 7.79751L10.0966 12.4673L9.69819 12.9985L9.29974 12.4673L5.79721 7.79751C5.4866 7.38328 5.24013 6.91743 5.07273 6.41454C4.91035 5.92678 4.82245 5.40925 4.82245 4.87572C4.82245 3.52945 5.36825 2.31049 6.25059 1.42814Z" fill="#C0D8CF"/>
</svg>
