<svg width="24" height="25" viewBox="0 0 24 25" fill="none" xmlns="http://www.w3.org/2000/svg">
<path fill-rule="evenodd" clip-rule="evenodd" d="M20.8066 8.51808L20.1842 7.43799C19.6576 6.52407 18.4907 6.20879 17.5755 6.73319V6.73319C17.1399 6.98981 16.6201 7.06262 16.1307 6.93556C15.6413 6.80849 15.2226 6.49199 14.9668 6.05584C14.8023 5.77862 14.7139 5.46286 14.7105 5.14051V5.14051C14.7254 4.62369 14.5304 4.12287 14.17 3.75214C13.8096 3.38141 13.3145 3.17233 12.7975 3.17255H11.5435C11.0369 3.17254 10.5513 3.37438 10.194 3.73342C9.83666 4.09245 9.63714 4.57906 9.63958 5.08559V5.08559C9.62457 6.1314 8.77245 6.97128 7.72654 6.97117C7.40418 6.96783 7.08843 6.87941 6.8112 6.71488V6.71488C5.89603 6.19048 4.72908 6.50577 4.20251 7.41969L3.53432 8.51808C3.00838 9.43086 3.31937 10.5971 4.22997 11.1268V11.1268C4.82187 11.4685 5.1865 12.1001 5.1865 12.7835C5.1865 13.467 4.82187 14.0986 4.22997 14.4403V14.4403C3.32053 14.9664 3.0092 16.1298 3.53432 17.0398V17.0398L4.16589 18.1291C4.41262 18.5743 4.82657 18.9028 5.31616 19.0419C5.80575 19.1811 6.33061 19.1194 6.77459 18.8705V18.8705C7.21105 18.6158 7.73116 18.546 8.21931 18.6767C8.70746 18.8073 9.12321 19.1275 9.37413 19.5661C9.53867 19.8434 9.62708 20.1591 9.63043 20.4815V20.4815C9.63043 21.538 10.4869 22.3945 11.5435 22.3945H12.7975C13.8505 22.3945 14.7055 21.5436 14.7105 20.4906V20.4906C14.7081 19.9825 14.9088 19.4945 15.2681 19.1352C15.6274 18.7759 16.1154 18.5751 16.6236 18.5776C16.9451 18.5862 17.2596 18.6742 17.5389 18.8339V18.8339C18.4517 19.3598 19.6179 19.0488 20.1476 18.1382V18.1382L20.8066 17.0398C21.0617 16.602 21.1317 16.0805 21.0012 15.5908C20.8706 15.1012 20.5502 14.6838 20.111 14.4311V14.4311C19.6717 14.1784 19.3514 13.761 19.2208 13.2714C19.0902 12.7818 19.1602 12.2603 19.4153 11.8224C19.5812 11.5328 19.8213 11.2927 20.111 11.1268V11.1268C21.0161 10.5974 21.3264 9.43796 20.8066 8.52724V8.52724V8.51808Z" stroke="#C0D8CF" stroke-width="1.5" stroke-linecap="round" stroke-linejoin="round"/>
<circle cx="12.175" cy="12.7836" r="2.63616" stroke="#C0D8CF" stroke-width="1.5" stroke-linecap="round" stroke-linejoin="round"/>
</svg>
