<?xml version="1.0"?>
<svg xmlns="http://www.w3.org/2000/svg" version="1.0" width="900.000000pt" height="900.000000pt" viewBox="0 0 900.000000 900.000000" preserveAspectRatio="xMidYMid meet" style="background-color:transparent;">
  <g transform="translate(0.000000,900.000000) scale(0.100000,-0.100000)" fill="#000000" stroke="none">
    <path d="M4250 6935 c-25 -8 -57 -15 -72 -15 -15 0 -49 -7 -75 -15 -26 -8 -73 -22 -103 -31 -63 -18 -83 -26 -200 -81 -216 -102 -416 -280 -541 -483 -56 -90 -65 -109 -104 -210 -9 -25 -23 -57 -31 -72 -8 -14 -14 -38 -14 -53 0 -14 -5 -36 -11 -47 -6 -12 -15 -48 -20 -82 -5 -34 -13 -81 -18 -106 -6 -25 -10 -107 -11 -183 0 -132 11 -211 42 -302 5 -16 13 -46 17 -65 4 -19 12 -44 18 -55 5 -11 17 -35 26 -53 9 -19 17 -42 17 -52 0 -9 7 -23 15 -30 8 -7 15 -18 15 -25 0 -15 66 -145 81 -159 5 -6 9 -16 9 -23 0 -7 12 -32 27 -56 15 -23 124 -235 243 -472 187 -370 285 -562 368 -715 10 -19 37 -69 59 -110 35 -66 143 -269 164 -310 4 -8 10 -22 13 -30 4 -8 18 -35 32 -60 42 -74 189 -351 246 -462 40 -78 56 -76 100 10 34 65 97 184 153 287 15 28 58 109 95 180 68 130 110 209 201 380 27 50 69 131 95 180 25 50 62 122 83 160 21 39 82 156 136 260 177 342 199 385 215 413 6 9 13 24 16 32 3 8 9 22 14 30 5 8 19 35 30 60 12 25 26 52 31 60 5 8 12 22 15 30 11 30 59 135 153 332 28 59 51 110 51 114 0 4 8 25 19 48 26 58 42 105 51 151 5 22 14 58 20 80 15 47 9 325 -8 395 -10 41 -20 91 -41 195 -4 22 -12 49 -18 60 -6 11 -19 40 -28 65 -26 67 -84 181 -111 217 -13 17 -24 35 -24 40 0 14 -160 195 -203 230 -154 124 -276 199 -422 259 -56 22 -185 58 -310 85 -89 20 -447 22 -505 4z m412 -130 c59 -7 111 -16 117 -19 5 -4 29 -10 53 -15 87 -19 276 -104 345 -157 17 -13 35 -24 38 -24 14 0 163 -136 223 -203 61 -69 147 -190 159 -225 3 -9 11 -24 18 -32 31 -39 89 -208 119 -346 24 -107 22 -362 -4 -479 -33 -153 -81 -291 -115 -335 -7 -8 -15 -23 -18 -32 -12 -34 -97 -154 -154 -218 -126 -142 -230 -222 -403 -310 -150 -77 -320 -119 -519 -127 -135 -5 -210 4 -366 44 -265 68 -517 242 -685 473 -69 94 -69 94 -128 215 -50 101 -66 149 -99 285 -25 105 -25 393 0 500 33 138 79 267 118 330 5 8 13 25 19 38 5 12 27 49 48 81 161 242 474 472 710 522 24 5 48 12 54 15 19 12 282 42 323 37 22 -2 88 -10 147 -18z"/>
    <path d="M4335 6621 c-44 -4 -90 -12 -102 -19 -12 -7 -35 -12 -50 -12 -16 0 -38 -7 -49 -15 -10 -8 -25 -15 -31 -15 -23 0 -148 -65 -222 -114 -117 -78 -321 -294 -321 -340 0 -8 -4 -17 -9 -20 -5 -4 -19 -27 -31 -54 -12 -26 -26 -54 -31 -62 -5 -8 -11 -19 -13 -25 -79 -225 -89 -515 -24 -700 5 -16 12 -41 15 -55 12 -61 123 -257 182 -323 153 -170 259 -245 466 -333 75 -31 295 -74 380 -74 33 0 85 7 115 15 30 8 67 15 81 15 48 0 172 42 279 93 238 116 409 302 525 572 45 104 70 245 70 395 0 130 -8 191 -41 310 -63 225 -231 453 -429 584 -97 65 -107 70 -248 130 -21 9 -48 16 -60 16 -12 0 -40 7 -62 14 -48 17 -278 27 -390 17z m218 -119 c59 -62 21 -157 -63 -157 -57 0 -90 35 -90 94 0 61 28 91 85 91 32 0 47 -6 68 -28z m-643 -244 c58 -40 62 -108 8 -153 -40 -33 -78 -32 -117 4 -51 47 -39 122 24 159 29 17 48 15 85 -10z m1271 -17 c40 -41 40 -89 -2 -130 -39 -39 -86 -42 -126 -7 -23 20 -28 32 -28 71 0 39 5 51 28 71 40 34 90 32 128 -5z m-650 -64 c35 -27 39 -53 39 -260 l0 -204 36 -46 c26 -34 38 -60 42 -94 2 -27 10 -56 16 -65 16 -23 164 -185 259 -283 66 -68 77 -85 77 -114 0 -46 -33 -81 -76 -81 -29 0 -51 20 -207 180 l-174 180 -58 0 c-51 0 -63 4 -100 35 -77 63 -81 168 -9 249 l34 38 0 213 0 212 26 27 c29 28 68 34 95 13z m-874 -549 c8 -6 21 -25 29 -40 27 -53 -10 -121 -73 -134 -26 -5 -37 0 -72 31 -59 53 -54 104 12 146 34 21 77 20 104 -3z m1800 -37 c18 -26 20 -37 12 -59 -37 -98 -142 -104 -184 -11 -17 37 -17 39 5 73 40 65 122 64 167 -3z m-1538 -597 c26 -21 31 -33 31 -69 0 -37 -5 -47 -35 -74 -20 -17 -44 -31 -55 -31 -11 0 -35 14 -55 31 -30 27 -35 37 -35 74 0 36 5 48 31 69 17 15 43 26 59 26 16 0 42 -11 59 -26z m1266 -11 c43 -47 26 -116 -36 -149 -60 -31 -124 17 -124 93 0 57 28 83 91 83 34 0 48 -6 69 -27z m-636 -249 c26 -21 31 -33 31 -69 0 -36 -5 -48 -32 -70 -64 -54 -151 -12 -151 72 0 37 5 49 29 68 39 32 84 32 123 -1z"/>
    <path d="M3885 2914 c-97 -34 -192 -66 -220 -73 -63 -17 -248 -131 -298 -183 -62 -67 -84 -156 -54 -227 16 -38 96 -123 152 -161 50 -33 228 -120 249 -120 8 0 27 -6 43 -14 15 -8 51 -19 78 -26 28 -7 77 -19 110 -27 33 -8 98 -19 144 -24 46 -5 92 -14 103 -20 13 -7 117 -11 292 -11 214 1 284 4 331 16 32 9 78 16 101 16 24 0 55 5 71 11 15 6 51 15 78 20 108 19 296 86 365 130 8 5 22 12 30 16 69 30 182 136 206 192 21 51 18 113 -11 167 -40 75 -95 120 -232 190 -91 47 -123 60 -233 95 -36 12 -82 27 -103 35 -20 8 -61 14 -91 14 -61 0 -66 -5 -113 -95 -17 -33 -43 -80 -56 -105 -14 -25 -37 -67 -51 -95 -24 -46 -47 -89 -161 -300 -52 -97 -80 -125 -125 -125 -27 0 -43 7 -63 28 -15 15 -27 31 -27 35 0 3 -14 30 -31 59 -17 29 -54 96 -82 148 -48 90 -75 140 -141 262 -16 29 -41 76 -54 103 -41 80 -48 85 -111 84 -31 0 -74 -7 -96 -15z"/>
  </g>
</svg>
