<svg width="24" height="25" viewBox="0 0 24 25" fill="none" xmlns="http://www.w3.org/2000/svg">
<path d="M9.95335 1.10709C10.1772 1.26695 10.3481 1.48533 10.3957 1.74396C10.4128 1.90961 10.4112 2.05174 10.3532 2.21135C10.3403 2.24745 10.3403 2.24745 10.327 2.28429C10.3204 2.30236 10.3137 2.32043 10.3068 2.33905C10.3309 2.33896 10.3309 2.33896 10.3556 2.33887C10.7482 2.33748 11.1408 2.33644 11.5335 2.33578C11.7233 2.33546 11.9132 2.33502 12.1031 2.33429C12.2687 2.33366 12.4343 2.33326 12.5999 2.33312C12.6875 2.33304 12.775 2.33285 12.8626 2.33239C12.9607 2.33187 13.0587 2.33186 13.1567 2.33189C13.1854 2.33167 13.2142 2.33144 13.2437 2.33121C13.6406 2.33248 13.9382 2.46783 14.2251 2.71157C14.4156 2.89162 14.5385 3.1191 14.5338 3.36854C14.5621 3.3684 14.5621 3.3684 14.5909 3.36825C15.0493 3.36593 15.5078 3.36419 15.9662 3.3631C16.1879 3.36256 16.4096 3.36182 16.6313 3.36062C16.8246 3.35957 17.0179 3.35889 17.2112 3.35866C17.3135 3.35852 17.4158 3.3582 17.5181 3.35743C17.6145 3.35672 17.7108 3.3565 17.8072 3.35666C17.8425 3.35663 17.8778 3.35642 17.9131 3.35602C18.2324 3.35254 18.2324 3.35254 18.3733 3.43872C18.4753 3.53946 18.4894 3.64265 18.4884 3.77354C18.4886 3.79072 18.4887 3.8079 18.4889 3.8256C18.4893 3.88299 18.4893 3.94037 18.4892 3.99776C18.4894 4.03897 18.4897 4.08018 18.4899 4.12139C18.4906 4.23316 18.4908 4.34493 18.4909 4.4567C18.4912 4.57354 18.4918 4.69039 18.4924 4.80723C18.4934 5.02844 18.494 5.24966 18.4946 5.47087C18.4952 5.72274 18.4963 5.9746 18.4973 6.22646C18.4995 6.74452 18.5012 7.26258 18.5025 7.78064C18.5112 7.76635 18.5198 7.75206 18.5287 7.73734C18.5685 7.67164 18.6082 7.60595 18.6479 7.54026C18.6683 7.50655 18.6683 7.50655 18.6891 7.47215C18.8054 7.28003 18.9234 7.08888 19.0427 6.89822C19.061 6.86879 19.061 6.86879 19.0798 6.83876C19.3308 6.4368 19.3308 6.4368 19.4496 6.2497C19.579 6.04587 19.7066 5.84139 19.8308 5.635C19.8687 5.57237 19.9067 5.50976 19.9446 5.44718C19.9695 5.40611 19.9943 5.36499 20.019 5.32383C20.2215 4.98744 20.4208 4.7055 20.8421 4.56874C21.1209 4.50345 21.4075 4.53636 21.6728 4.62914C21.7122 4.64978 21.7513 4.67084 21.7902 4.69217C21.877 4.73774 21.9639 4.78298 22.0509 4.82811C22.0786 4.8425 22.1063 4.85693 22.134 4.87138C22.3438 4.98141 22.3438 4.98141 22.5652 5.07035C22.5652 5.08422 22.5652 5.09809 22.5652 5.11237C22.5831 5.11671 22.601 5.12104 22.6195 5.1255C22.9584 5.23858 23.2426 5.43302 23.4119 5.72191C23.5251 5.94429 23.5278 6.26731 23.4355 6.49509C23.376 6.61423 23.2998 6.72593 23.2194 6.83473C23.1664 6.90653 23.1664 6.90653 23.1542 6.98973C23.1867 7.04181 23.2315 7.04933 23.2932 7.0663C23.2932 7.08017 23.2932 7.09404 23.2932 7.10832C23.312 7.11317 23.3309 7.11802 23.3503 7.12301C23.4553 7.15728 23.5494 7.20288 23.6469 7.25145C23.6747 7.26488 23.6747 7.26488 23.7031 7.27858C23.9502 7.40107 23.9502 7.40107 23.9977 7.52852C24.0084 7.64504 23.9821 7.72427 23.9214 7.82529C23.913 7.83964 23.9047 7.854 23.8962 7.86879C23.8149 8.00711 23.7276 8.14243 23.6402 8.27767C23.5491 8.41883 23.4616 8.5615 23.3754 8.70509C23.2668 8.88576 23.155 9.0644 23.0405 9.24207C22.9695 9.35259 22.9011 9.46398 22.8352 9.577C22.7584 9.70884 22.6776 9.83821 22.5945 9.967C22.4919 10.1263 22.3924 10.2869 22.2951 10.4489C22.1887 10.6261 22.0792 10.8013 21.9669 10.9755C21.8774 11.1147 21.7916 11.2556 21.7066 11.397C21.6685 11.4599 21.6304 11.5227 21.5922 11.5856C21.5679 11.6257 21.5438 11.666 21.5199 11.7063C21.4867 11.7619 21.4529 11.8171 21.4189 11.8723C21.4045 11.8969 21.4045 11.8969 21.3899 11.922C21.3196 12.0343 21.2461 12.0886 21.1092 12.1297C21.0037 12.1492 20.9236 12.1432 20.8303 12.0943C20.7501 12.0161 20.7132 11.9696 20.7012 11.8618C20.7108 11.6678 20.8244 11.5035 20.9301 11.3392C20.952 11.3048 20.952 11.3048 20.9743 11.2697C21.0191 11.1991 21.0641 11.1287 21.1092 11.0582C21.1607 10.9773 21.212 10.8963 21.2633 10.8153C21.2758 10.7956 21.2883 10.7759 21.3011 10.7556C21.4049 10.5914 21.5054 10.4256 21.6053 10.2594C21.7046 10.0947 21.8071 9.93177 21.9106 9.76913C22.0017 9.62551 22.0902 9.48079 22.1777 9.33539C22.3034 9.12648 22.4329 8.91967 22.5638 8.71337C22.6674 8.5502 22.7691 8.38612 22.8705 8.22185C22.8818 8.20348 22.8932 8.18511 22.9048 8.16618C22.9404 8.10859 22.9759 8.05099 23.0114 7.99337C23.0279 7.96655 23.0279 7.96655 23.0448 7.93919C23.0602 7.91409 23.0602 7.91409 23.076 7.88848C23.0896 7.86635 23.0896 7.86635 23.1035 7.84377C23.1285 7.80211 23.1524 7.76003 23.1758 7.71761C23.1569 7.71285 23.138 7.70808 23.1185 7.70317C23.0287 7.67358 22.953 7.6346 22.8717 7.58999C22.8206 7.5635 22.8206 7.5635 22.7531 7.59155C22.7148 7.64018 22.7148 7.64018 22.679 7.70145C22.6577 7.73617 22.6577 7.73617 22.6359 7.7716C22.6207 7.79693 22.6054 7.82227 22.5901 7.84761C22.5743 7.87359 22.5584 7.89956 22.5425 7.92552C22.5025 7.99099 22.4627 8.05657 22.423 8.1222C22.3791 8.19469 22.335 8.26706 22.2909 8.33945C22.2682 8.37677 22.2455 8.41411 22.2228 8.45146C22.1264 8.60984 22.0273 8.76672 21.9277 8.9235C21.8412 9.06005 21.7564 9.19739 21.6728 9.33539C21.5768 9.49389 21.4788 9.65134 21.3793 9.80811C21.2661 9.98638 21.1552 10.1657 21.0459 10.3458C20.9464 10.5095 20.8455 10.6725 20.7441 10.8353C20.6587 10.9725 20.5735 11.1099 20.4883 11.2472C20.4203 11.3568 20.3522 11.4663 20.2838 11.5756C20.2729 11.5931 20.2619 11.6106 20.2506 11.6286C20.2307 11.6606 20.2106 11.6925 20.1906 11.7244C20.1546 11.782 20.1228 11.8358 20.0994 11.8986C20.0839 11.8986 20.0684 11.8986 20.0525 11.8986C20.0461 11.9171 20.0398 11.9355 20.0333 11.9545C20.0068 12.0214 19.9755 12.0777 19.9358 12.139C19.9224 12.1599 19.9089 12.1808 19.8951 12.2024C19.8742 12.2347 19.8742 12.2347 19.8528 12.2676C19.8251 12.3105 19.7975 12.3534 19.7699 12.3964C19.7577 12.4153 19.7454 12.4341 19.7328 12.4536C19.7015 12.5057 19.6765 12.5576 19.6532 12.6129C19.6377 12.6129 19.6222 12.6129 19.6063 12.6129C19.6001 12.631 19.594 12.6491 19.5877 12.6677C19.5586 12.7406 19.5229 12.8037 19.4808 12.8713C19.4731 12.8836 19.4655 12.896 19.4576 12.9087C19.4329 12.9485 19.408 12.9882 19.3832 13.0279C19.3661 13.0554 19.349 13.0829 19.3319 13.1104C19.29 13.1777 19.2481 13.245 19.2061 13.3122C19.164 13.3797 19.1221 13.4472 19.0801 13.5148C19.062 13.5441 19.0438 13.5734 19.0256 13.6026C19.0173 13.6158 19.0091 13.629 19.0006 13.6426C18.9929 13.655 18.9851 13.6675 18.9771 13.6802C18.9571 13.7128 18.9376 13.7455 18.9184 13.7784C18.8615 13.875 18.804 13.9651 18.7285 14.0511C18.4058 14.4407 18.4607 14.896 18.4665 15.358C18.4677 15.4827 18.4672 15.6073 18.4668 15.732C18.4665 15.9475 18.4673 16.1629 18.4688 16.3784C18.4704 16.6043 18.4713 16.8301 18.4713 17.0559C18.4713 17.07 18.4713 17.0841 18.4713 17.0987C18.4713 17.1703 18.4713 17.2419 18.4713 17.3136C18.4712 17.8196 18.4725 18.3257 18.4746 18.8318C18.4767 19.3227 18.4784 19.8136 18.4794 20.3046C18.4795 20.3273 18.4795 20.3273 18.4795 20.3505C18.4802 20.6964 18.4808 21.0423 18.4812 21.3882C18.4812 21.4027 18.4812 21.4173 18.4813 21.4322C18.4816 21.6948 18.4816 21.6948 18.4817 21.8244C18.4821 22.1642 18.4828 22.5039 18.4844 22.8437C18.4853 23.0565 18.486 23.2693 18.4864 23.4821C18.4867 23.6049 18.4871 23.7278 18.488 23.8506C18.4887 23.963 18.4891 24.0753 18.4891 24.1877C18.4891 24.2284 18.4894 24.2691 18.4898 24.3098C18.4903 24.365 18.4903 24.4202 18.4901 24.4755C18.4906 24.4993 18.4906 24.4993 18.491 24.5235C18.4894 24.6651 18.4374 24.7414 18.339 24.8493C18.2217 24.9044 18.1024 24.8941 17.972 24.8931C17.9414 24.8932 17.9109 24.8933 17.8794 24.8934C17.7943 24.8937 17.7092 24.8934 17.624 24.8931C17.5316 24.8928 17.4391 24.893 17.3466 24.8931C17.1844 24.8933 17.0222 24.8932 16.86 24.8928C16.6189 24.8923 16.3777 24.8923 16.1365 24.8924C15.7309 24.8925 15.3252 24.8922 14.9196 24.8917C14.5178 24.8912 14.1161 24.8909 13.7143 24.8908C13.6893 24.8908 13.6644 24.8908 13.6387 24.8908C13.5119 24.8907 13.3851 24.8907 13.2584 24.8907C12.36 24.8905 11.4617 24.8899 10.5634 24.8891C9.69054 24.8884 8.81772 24.8878 7.9449 24.8874C7.91801 24.8874 7.89111 24.8874 7.8634 24.8874C7.59331 24.8873 7.32322 24.8872 7.05313 24.8871C6.50291 24.8868 5.95269 24.8866 5.40247 24.8864C5.37717 24.8863 5.35187 24.8863 5.3258 24.8863C3.63582 24.8856 1.94584 24.8842 0.25586 24.8828C0.25586 24.8689 0.25586 24.8551 0.25586 24.8408C0.241912 24.8384 0.227964 24.836 0.213594 24.8336C0.136628 24.813 0.100059 24.7815 0.0502637 24.7259C-0.0165763 24.6043 0.00201284 24.4584 0.00342496 24.3255C0.00329221 24.2894 0.00309729 24.2533 0.00284662 24.2172C0.00233551 24.1176 0.00270574 24.0181 0.00321498 23.9185C0.00361384 23.8103 0.00319721 23.7021 0.00288317 23.5939C0.00244589 23.4042 0.00253408 23.2144 0.00296415 23.0247C0.00360191 22.7426 0.00343625 22.4604 0.00310748 22.1783C0.00257922 21.7037 0.00271888 21.2291 0.00325583 20.7545C0.00378692 20.2844 0.00406836 19.8142 0.00399901 19.3441C0.00399499 19.3146 0.00399078 19.2851 0.00398682 19.2556C0.00397049 19.137 0.00395268 19.0184 0.00393236 18.8998C0.00387624 18.5683 0.00386716 18.2368 0.00389437 17.9053C0.0038956 17.8902 0.0038967 17.8751 0.00389796 17.8596C0.00394017 17.3784 0.00418927 16.8973 0.00458523 16.4162C0.00459806 16.4006 0.00461071 16.385 0.00462393 16.3689C0.00483312 16.1154 0.00505464 15.862 0.00527681 15.6085C0.00615727 14.6031 0.00645891 13.5978 0.00619843 12.5924C0.00618214 12.5289 0.00616594 12.4654 0.0061497 12.4018C0.00614568 12.3861 0.00614166 12.3704 0.00613752 12.3542C0.00609308 12.1803 0.00605009 12.0063 0.00600924 11.8323C0.00600553 11.8167 0.0060023 11.8011 0.00599849 11.7851C0.00580024 10.9432 0.00604923 10.1014 0.00645643 9.25952C0.00647068 9.22984 0.00648451 9.20017 0.00649871 9.1705C0.00650574 9.15583 0.00651298 9.14116 0.00652021 9.12605C0.00653437 9.09646 0.00654838 9.06686 0.0065625 9.03727C0.00659767 8.96355 0.00663305 8.88982 0.00666928 8.81609C0.00682662 8.49276 0.00692343 8.16942 0.00685991 7.84608C0.00685707 7.83151 0.00685424 7.81693 0.00685131 7.80191C0.00683666 7.7285 0.00682146 7.6551 0.00680544 7.5817C0.00669042 7.05154 0.00688082 6.52138 0.00761384 5.99122C0.00799279 5.71065 0.00811341 5.43009 0.00786538 5.14952C0.00772605 4.96235 0.00792616 4.77518 0.0084079 4.588C0.00867333 4.4812 0.00878792 4.37441 0.00849389 4.26761C0.0082299 4.17055 0.00839342 4.0735 0.00890669 3.97645C0.00901554 3.94146 0.00896598 3.90646 0.00874186 3.87147C0.00846119 3.8241 0.00875565 3.77676 0.00919622 3.72938C0.00921309 3.70311 0.00922972 3.67684 0.0092471 3.64978C0.0261431 3.54772 0.0775677 3.48198 0.163393 3.4145C0.252022 3.3659 0.32617 3.36594 0.427785 3.36601C0.442901 3.366 0.458016 3.36598 0.47359 3.36596C0.524323 3.36592 0.575055 3.36604 0.625788 3.36616C0.662122 3.36616 0.698456 3.36616 0.73479 3.36615C0.833521 3.36614 0.932251 3.36626 1.03098 3.36641C1.13413 3.36654 1.23727 3.36655 1.34042 3.36658C1.53578 3.36664 1.73114 3.36682 1.9265 3.36703C2.1489 3.36726 2.37129 3.36738 2.59369 3.36748C3.05121 3.3677 3.50873 3.36807 3.96625 3.36854C3.9677 3.35565 3.96915 3.34276 3.97064 3.32948C3.97362 3.30404 3.97362 3.30404 3.97666 3.27809C3.97859 3.2613 3.98052 3.24451 3.98251 3.22721C4.02132 2.97064 4.22915 2.72956 4.44482 2.56704C4.7276 2.38832 4.99706 2.33252 5.33752 2.33428C5.36901 2.33429 5.4005 2.33428 5.43199 2.33426C5.51699 2.33425 5.60198 2.33449 5.68697 2.33479C5.77598 2.33505 5.86499 2.33508 5.954 2.33513C6.12233 2.33526 6.29066 2.3356 6.45898 2.33602C6.65071 2.33649 6.84245 2.33672 7.03418 2.33693C7.42837 2.33737 7.82257 2.33811 8.21677 2.33905C8.21195 2.32789 8.20714 2.31673 8.20218 2.30524C8.19585 2.29039 8.18953 2.27555 8.18301 2.26026C8.17674 2.24564 8.17048 2.23101 8.16402 2.21594C8.0763 1.99311 8.10522 1.71797 8.19328 1.49865C8.33996 1.23446 8.57407 1.03866 8.88311 0.934005C9.25632 0.846441 9.64173 0.904741 9.95335 1.10709ZM0.702046 3.97783C0.702046 10.6754 0.702046 17.373 0.702046 24.2735C6.34372 24.2735 11.9854 24.2735 17.798 24.2735C17.798 21.4101 17.798 18.5466 17.798 15.5964C17.7407 15.6476 17.7094 15.6819 17.6706 15.7429C17.6598 15.7598 17.649 15.7766 17.6379 15.794C17.6263 15.8124 17.6148 15.8308 17.6028 15.8498C17.5844 15.8788 17.5844 15.8788 17.5656 15.9084C17.454 16.0855 17.3466 16.2646 17.2395 16.4439C17.1427 16.6054 17.0426 16.7648 16.9402 16.9235C16.8516 17.0612 16.7666 17.2003 16.6826 17.3402C16.5761 17.5173 16.4667 17.6925 16.3544 17.8667C16.2643 18.0068 16.178 18.1485 16.0925 18.2909C16.0074 18.4327 15.921 18.5732 15.8284 18.7111C15.7162 18.8783 15.6141 19.0503 15.5119 19.2225C15.4041 19.4039 15.2932 19.5836 15.178 19.7614C15.0727 19.9245 14.9732 20.0903 14.8752 20.2571C14.7525 20.4633 14.6407 20.6022 14.4179 20.7268C14.3738 20.7522 14.3297 20.7778 14.2857 20.8033C14.2496 20.8241 14.2496 20.8241 14.2128 20.8453C14.0651 20.9314 13.9194 21.0203 13.7736 21.1089C13.742 21.128 13.7105 21.1471 13.679 21.1662C13.4703 21.2928 13.2631 21.421 13.0565 21.5503C12.8507 21.6788 12.642 21.8033 12.4328 21.9272C12.3335 21.986 12.2346 22.0451 12.1356 22.1042C12.1013 22.1247 12.067 22.1452 12.0327 22.1656C12.0185 22.1741 12.0042 22.1826 11.9896 22.1913C11.8682 22.2637 11.7897 22.27 11.6454 22.2565C11.557 22.2229 11.5082 22.1821 11.4575 22.1095C11.4354 22.0503 11.431 22.0139 11.4309 21.9526C11.4309 21.9341 11.4308 21.9155 11.4308 21.8964C11.4309 21.877 11.431 21.8576 11.4311 21.8377C11.431 21.819 11.4309 21.8004 11.4308 21.7812C11.431 21.6823 11.4352 21.5849 11.4453 21.4864C11.4571 21.3638 11.4634 21.2415 11.4676 21.1186C11.4692 21.073 11.4709 21.0275 11.4726 20.9819C11.4735 20.9581 11.4743 20.9344 11.4752 20.9099C11.4781 20.8342 11.4813 20.7586 11.4846 20.6829C11.4953 20.4394 11.505 20.196 11.5093 19.9523C11.5297 18.8725 11.5297 18.8725 11.8836 18.444C11.9471 18.3664 11.9989 18.2838 12.0519 18.2003C12.0705 18.1725 12.0891 18.1447 12.1077 18.117C12.1672 18.027 12.2212 17.9346 12.275 17.8418C12.3728 17.6733 12.4757 17.5078 12.5806 17.3428C12.7273 17.112 12.871 16.8798 13.0148 16.6476C13.0495 16.5917 13.0842 16.5359 13.1189 16.4801C13.2247 16.3103 13.3293 16.14 13.433 15.9693C13.5233 15.8208 13.6153 15.6734 13.7097 15.5269C13.771 15.431 13.8293 15.3337 13.888 15.2366C13.9976 15.0556 14.1108 14.8766 14.2256 14.6982C14.3638 14.4834 14.4971 14.2667 14.6275 14.0481C14.7232 13.888 14.8224 13.73 14.9238 13.5728C15.0068 13.4438 15.0872 13.3137 15.1664 13.1828C15.2629 13.0234 15.3613 12.8651 15.4614 12.7075C15.5752 12.5284 15.6865 12.3481 15.7963 12.1671C15.8719 12.0426 15.9487 11.919 16.0268 11.7958C16.1006 11.6789 16.1722 11.561 16.2437 11.443C16.3719 11.2318 16.5045 11.0231 16.6383 10.8148C16.6877 10.7377 16.7366 10.6603 16.7853 10.5829C16.7931 10.5705 16.8009 10.5581 16.809 10.5453C16.8688 10.45 16.9273 10.3541 16.9857 10.2581C17.0231 10.1968 17.0607 10.1357 17.0985 10.0746C17.1107 10.0547 17.123 10.0348 17.1356 10.0142C17.1609 9.97321 17.1862 9.93224 17.2116 9.89129C17.2237 9.87161 17.2357 9.85194 17.2482 9.83167C17.2591 9.81399 17.27 9.79632 17.2813 9.77811C17.3083 9.73634 17.3083 9.73634 17.3049 9.69256C17.3204 9.69256 17.3359 9.69256 17.3518 9.69256C17.3624 9.67292 17.373 9.65329 17.3839 9.63306C17.3991 9.60517 17.4144 9.57729 17.4296 9.54943C17.4414 9.52762 17.4414 9.52762 17.4535 9.50537C17.4993 9.42249 17.5472 9.34408 17.6059 9.26789C17.8101 8.99774 17.8341 8.77508 17.8274 8.4548C17.8273 8.40568 17.8273 8.35656 17.8275 8.30745C17.8275 8.17536 17.826 8.04332 17.8242 7.91125C17.8228 7.78683 17.8225 7.66242 17.8223 7.53799C17.8217 7.29188 17.82 7.04578 17.8175 6.79967C17.8151 6.56089 17.8133 6.32211 17.8122 6.08332C17.8122 6.0684 17.8121 6.05348 17.812 6.03811C17.8114 5.90831 17.8109 5.7785 17.8103 5.64869C17.8079 5.09172 17.8027 4.5348 17.798 3.97783C16.7053 3.97783 15.6127 3.97783 14.4869 3.97783C14.452 4.16503 14.452 4.16503 14.4164 4.35601C14.395 4.42852 14.374 4.49615 14.346 4.56611C14.3396 4.58222 14.3332 4.59833 14.3266 4.61493C13.9394 5.55816 13.2135 6.32435 12.1855 6.75115C11.8916 6.86785 11.5957 6.96617 11.2781 7.01552C11.2396 7.0216 11.2012 7.02807 11.1628 7.03483C10.9769 7.06584 10.7975 7.07228 10.6087 7.07174C10.5764 7.0718 10.5441 7.07187 10.5119 7.07196C10.425 7.07215 10.3381 7.07208 10.2513 7.07195C10.1598 7.07184 10.0682 7.07194 9.9767 7.07201C9.82297 7.07208 9.66924 7.07198 9.51551 7.07178C9.33874 7.07155 9.16197 7.07163 8.98519 7.07186C8.83254 7.07205 8.67988 7.07208 8.52722 7.07197C8.43644 7.0719 8.34566 7.07189 8.25487 7.07203C7.38626 7.07319 7.38626 7.07319 6.96333 6.96388C6.94236 6.95876 6.92138 6.95364 6.89976 6.94837C5.8915 6.69569 5.01491 6.07527 4.4994 5.26117C4.4862 5.2398 4.473 5.21843 4.45941 5.19641C4.45062 5.18361 4.44183 5.1708 4.43277 5.1576C4.3445 5.02514 4.28969 4.88481 4.23667 4.73877C4.22174 4.69771 4.20644 4.65678 4.19109 4.61585C4.1132 4.40586 4.05387 4.19606 4.01322 3.97783C2.92053 3.97783 1.82785 3.97783 0.702046 3.97783Z" fill="#C0D8CF"/>
<path d="M3.25332 8.53425C3.27436 8.53419 3.2954 8.53412 3.31707 8.53406C3.38822 8.53388 3.45936 8.53384 3.53051 8.53381C3.58178 8.53371 3.63304 8.5336 3.68431 8.53349C3.82569 8.53319 3.96708 8.53303 4.10846 8.5329C4.2296 8.53277 4.35074 8.53255 4.47189 8.53234C4.87104 8.53164 5.2702 8.53119 5.66936 8.5308C5.77325 8.5307 5.87714 8.5306 5.98103 8.53049C6.62576 8.52984 7.27049 8.52928 7.91522 8.52893C8.06461 8.52885 8.21401 8.52876 8.3634 8.52868C8.38197 8.52867 8.40053 8.52865 8.41965 8.52864C9.02153 8.5283 9.62341 8.52749 10.2253 8.52642C10.8439 8.52532 11.4626 8.52464 12.0812 8.52448C12.1685 8.52446 12.2559 8.52444 12.3432 8.52441C12.3604 8.5244 12.3776 8.5244 12.3953 8.52439C12.6722 8.52429 12.949 8.52377 13.2258 8.52309C13.504 8.52242 13.7822 8.52222 14.0603 8.52247C14.2111 8.52259 14.3618 8.52251 14.5126 8.52188C14.6505 8.5213 14.7885 8.52131 14.9264 8.52178C14.9764 8.52185 15.0263 8.5217 15.0763 8.52132C15.1441 8.52084 15.2119 8.52113 15.2798 8.52162C15.2992 8.52129 15.3187 8.52096 15.3387 8.52063C15.4858 8.52296 15.5825 8.56837 15.6849 8.66325C15.7434 8.75353 15.7504 8.83387 15.7319 8.93638C15.6816 9.04103 15.6161 9.08934 15.4983 9.13303C15.4119 9.15713 15.3264 9.15506 15.2365 9.15435C15.2155 9.15443 15.1944 9.15452 15.1726 9.15461C15.1019 9.15482 15.0311 9.15458 14.9604 9.15434C14.9092 9.1544 14.858 9.15448 14.8068 9.15459C14.666 9.15481 14.5252 9.15464 14.3845 9.15441C14.2327 9.15422 14.0809 9.1544 13.9291 9.15453C13.6489 9.15473 13.3687 9.15462 13.0886 9.15438C12.8298 9.15416 12.571 9.15406 12.3122 9.15409C12.295 9.15409 12.2779 9.1541 12.2602 9.1541C12.1905 9.1541 12.1209 9.15411 12.0512 9.15412C11.3977 9.15421 10.7441 9.15394 10.0906 9.1535C9.50979 9.15312 8.92898 9.15299 8.34817 9.15311C8.31087 9.15312 8.27357 9.15312 8.23627 9.15313C8.21783 9.15313 8.19939 9.15314 8.18039 9.15314C8.08757 9.15316 7.99474 9.15318 7.90192 9.15319C7.87445 9.1532 7.87445 9.1532 7.84643 9.1532C7.36128 9.15329 6.87613 9.15317 6.39097 9.15299C6.33879 9.15297 6.2866 9.15295 6.23441 9.15294C6.19978 9.15292 6.16516 9.15291 6.13054 9.1529C5.889 9.15281 5.64747 9.1528 5.40593 9.15284C5.09473 9.15289 4.78353 9.1528 4.47233 9.15248C4.32221 9.15232 4.1721 9.15224 4.02198 9.15233C3.88469 9.15242 3.74741 9.15231 3.61012 9.15205C3.56033 9.15199 3.51053 9.15199 3.46074 9.15208C3.3933 9.15219 3.32587 9.15204 3.25843 9.15182C3.23889 9.15191 3.21935 9.15201 3.19922 9.1521C3.08484 9.1514 2.98602 9.14715 2.89705 9.07499C2.81328 8.97936 2.78401 8.91342 2.78578 8.79062C2.79972 8.70044 2.86087 8.64131 2.93485 8.58314C3.03671 8.52729 3.13801 8.53414 3.25332 8.53425Z" fill="#C0D8CF"/>
<path d="M3.21409 11.8305C3.23315 11.8304 3.25221 11.8304 3.27185 11.8303C3.33611 11.8301 3.40038 11.8303 3.46464 11.8304C3.51102 11.8303 3.5574 11.8302 3.60378 11.8301C3.73155 11.8299 3.85932 11.83 3.98708 11.8301C4.12475 11.8301 4.26242 11.8299 4.40009 11.8298C4.66993 11.8295 4.93976 11.8295 5.2096 11.8295C5.42886 11.8295 5.64812 11.8295 5.86738 11.8294C5.89886 11.8294 5.93034 11.8294 5.96182 11.8294C6.00925 11.8294 6.05669 11.8293 6.10412 11.8293C6.54527 11.8291 6.98643 11.829 7.42758 11.8291C7.45253 11.8291 7.45253 11.8291 7.47799 11.8291C7.56232 11.8292 7.64665 11.8292 7.73098 11.8292C7.74773 11.8292 7.76448 11.8292 7.78173 11.8292C7.8156 11.8292 7.84947 11.8292 7.88334 11.8292C8.41038 11.8293 8.93742 11.8292 9.46446 11.8288C10.0564 11.8284 10.6483 11.8281 11.2402 11.8282C11.3033 11.8282 11.3664 11.8282 11.4294 11.8282C11.445 11.8282 11.4605 11.8282 11.4765 11.8282C11.7112 11.8283 11.9459 11.8281 12.1806 11.8279C12.4475 11.8277 12.7144 11.8276 12.9813 11.8279C13.1175 11.828 13.2537 11.828 13.39 11.8278C13.5146 11.8275 13.6392 11.8276 13.7638 11.8279C13.809 11.828 13.8542 11.8279 13.8993 11.8277C13.9606 11.8275 14.0218 11.8277 14.0831 11.828C14.1008 11.8278 14.1184 11.8277 14.1366 11.8275C14.2839 11.8289 14.3743 11.8658 14.4843 11.9514C14.5498 12.028 14.5521 12.1055 14.5472 12.1994C14.5263 12.2901 14.4755 12.3484 14.3933 12.4031C14.2918 12.4491 14.1971 12.4511 14.0858 12.4505C14.0571 12.4507 14.0571 12.4507 14.0278 12.4508C13.9635 12.451 13.8991 12.4509 13.8347 12.4508C13.7883 12.4508 13.7418 12.4509 13.6953 12.4511C13.5673 12.4513 13.4393 12.4513 13.3113 12.4513C13.1734 12.4512 13.0354 12.4515 12.8975 12.4517C12.6272 12.452 12.3569 12.4521 12.0865 12.4522C11.8669 12.4522 11.6472 12.4523 11.4276 12.4524C11.3644 12.4524 11.3012 12.4525 11.238 12.4525C11.2144 12.4525 11.2144 12.4525 11.1904 12.4525C10.7484 12.4528 10.3064 12.453 9.86442 12.4529C9.84775 12.4529 9.83109 12.4529 9.81392 12.4529C9.72944 12.4529 9.64497 12.4529 9.5605 12.4529C9.54372 12.4529 9.52694 12.4529 9.50966 12.4529C9.47573 12.4529 9.44181 12.4529 9.40788 12.4529C8.87989 12.4529 8.3519 12.4532 7.82391 12.4538C7.23088 12.4544 6.63785 12.4548 6.04482 12.4548C5.98161 12.4548 5.9184 12.4548 5.85519 12.4548C5.83962 12.4548 5.82406 12.4548 5.80802 12.4548C5.57289 12.4548 5.33776 12.455 5.10262 12.4553C4.83528 12.4557 4.56793 12.4558 4.30058 12.4555C4.16411 12.4554 4.02764 12.4554 3.89117 12.4557C3.76632 12.4561 3.64148 12.456 3.51663 12.4556C3.47139 12.4556 3.42614 12.4556 3.3809 12.4559C3.31953 12.4562 3.25819 12.456 3.19682 12.4556C3.1703 12.4559 3.1703 12.4559 3.14325 12.4562C3.02316 12.4548 2.95579 12.4281 2.86287 12.3611C2.77946 12.279 2.7779 12.189 2.78095 12.0823C2.79932 11.9904 2.85261 11.9347 2.93332 11.8779C3.0217 11.8254 3.11178 11.83 3.21409 11.8305Z" fill="#C0D8CF"/>
<path d="M3.3169 15.1233C3.34924 15.1231 3.38158 15.123 3.41392 15.1228C3.50267 15.1223 3.59141 15.1224 3.68016 15.1226C3.77593 15.1227 3.87169 15.1223 3.96745 15.122C4.15501 15.1215 4.34257 15.1214 4.53013 15.1215C4.68258 15.1216 4.83504 15.1215 4.98749 15.1213C5.00919 15.1213 5.03088 15.1213 5.05324 15.1213C5.09731 15.1212 5.14138 15.1212 5.18546 15.1211C5.59882 15.1206 6.01219 15.1207 6.42555 15.121C6.80369 15.1212 7.18183 15.1207 7.55997 15.1199C7.94826 15.1191 8.33655 15.1188 8.72484 15.1189C8.94283 15.119 9.16081 15.1189 9.3788 15.1183C9.56438 15.1178 9.74996 15.1178 9.93554 15.1183C10.0302 15.1185 10.1249 15.1186 10.2195 15.1181C10.3063 15.1176 10.393 15.1177 10.4797 15.1183C10.5258 15.1185 10.5719 15.118 10.6181 15.1176C10.7762 15.1193 10.8778 15.1324 11.0004 15.225C11.0805 15.307 11.0921 15.3804 11.0892 15.4862C11.074 15.5827 11.0111 15.64 10.9343 15.7044C10.8598 15.75 10.8228 15.754 10.7334 15.754C10.6921 15.7543 10.6921 15.7543 10.6499 15.7546C10.6197 15.7544 10.5895 15.7542 10.5584 15.754C10.526 15.7541 10.4935 15.7542 10.461 15.7544C10.3718 15.7547 10.2826 15.7545 10.1934 15.7542C10.0972 15.754 10.001 15.7542 9.9048 15.7544C9.71633 15.7547 9.52786 15.7545 9.3394 15.7542C9.11999 15.7539 8.90059 15.7539 8.68118 15.754C8.28975 15.7541 7.89832 15.7538 7.50688 15.7533C7.12692 15.7528 6.74696 15.7527 6.36699 15.7529C5.9534 15.7531 5.5398 15.7532 5.1262 15.7529C5.08211 15.7528 5.03802 15.7528 4.99393 15.7528C4.97224 15.7527 4.95054 15.7527 4.92819 15.7527C4.7752 15.7526 4.6222 15.7527 4.46921 15.7527C4.2828 15.7528 4.09639 15.7527 3.90999 15.7523C3.81485 15.7521 3.71972 15.752 3.62458 15.7522C3.53752 15.7523 3.45047 15.7522 3.36341 15.7518C3.31693 15.7517 3.27045 15.7518 3.22396 15.752C3.1964 15.7519 3.16883 15.7517 3.14043 15.7515C3.11664 15.7515 3.09285 15.7515 3.06834 15.7514C2.96182 15.7384 2.88446 15.6906 2.81999 15.6148C2.75459 15.5272 2.74626 15.4468 2.76862 15.3443C2.89094 15.1212 3.06564 15.1219 3.3169 15.1233Z" fill="#C0D8CF"/>
<path d="M3.12802 18.4301C3.159 18.43 3.159 18.43 3.19061 18.4298C3.21332 18.4298 3.23602 18.4298 3.25942 18.4299C3.29559 18.4297 3.29559 18.4297 3.33248 18.4296C3.41366 18.4294 3.49484 18.4293 3.57602 18.4292C3.63407 18.4291 3.69211 18.429 3.75016 18.4288C3.92463 18.4284 4.09909 18.4282 4.27356 18.428C4.35572 18.4279 4.43789 18.4278 4.52005 18.4277C4.79318 18.4273 5.0663 18.427 5.33943 18.4269C5.41031 18.4268 5.48118 18.4268 5.55205 18.4267C5.57847 18.4267 5.57847 18.4267 5.60543 18.4267C5.89081 18.4265 6.17618 18.426 6.46155 18.4253C6.75455 18.4246 7.04754 18.4242 7.34054 18.4242C7.50504 18.4241 7.66954 18.424 7.83405 18.4234C7.98879 18.4229 8.14352 18.4228 8.29826 18.4231C8.35507 18.4231 8.41188 18.4229 8.46869 18.4226C8.54623 18.4223 8.62374 18.4224 8.70128 18.4227C8.73502 18.4223 8.73502 18.4223 8.76945 18.422C8.94015 18.4235 9.0353 18.4607 9.16686 18.5603C9.22396 18.6564 9.22361 18.7469 9.20355 18.8531C9.15996 18.9369 9.10201 18.9907 9.01568 19.0422C8.96822 19.0476 8.96822 19.0476 8.91272 19.0477C8.89155 19.0478 8.87038 19.048 8.84856 19.0481C8.82527 19.0481 8.80198 19.048 8.77799 19.048C8.75327 19.0481 8.72855 19.0482 8.70308 19.0483C8.61985 19.0486 8.53661 19.0487 8.45338 19.0487C8.39386 19.0488 8.33435 19.049 8.27484 19.0492C8.11288 19.0497 7.95093 19.0498 7.78897 19.05C7.68787 19.05 7.58677 19.0502 7.48567 19.0503C7.20581 19.0507 6.92595 19.0511 6.6461 19.0511C6.61923 19.0511 6.61923 19.0511 6.59181 19.0511C6.5555 19.0511 6.51919 19.0512 6.48287 19.0512C6.46484 19.0512 6.44682 19.0512 6.42824 19.0512C6.4102 19.0512 6.39215 19.0512 6.37355 19.0512C6.08101 19.0513 5.78846 19.0518 5.49592 19.0526C5.19565 19.0534 4.89539 19.0538 4.59512 19.0538C4.4265 19.0538 4.25788 19.054 4.08926 19.0546C3.9307 19.0552 3.77215 19.0552 3.61359 19.0549C3.55532 19.0548 3.49705 19.055 3.43879 19.0553C3.35938 19.0557 3.28001 19.0555 3.2006 19.0551C3.16582 19.0556 3.16582 19.0556 3.13034 19.056C3.02196 19.0548 2.97291 19.0531 2.88447 18.9928C2.83952 18.9372 2.83952 18.9372 2.81604 18.8742C2.80054 18.8742 2.78504 18.8742 2.76907 18.8742C2.74993 18.7813 2.73729 18.7078 2.77054 18.6168C2.86253 18.5 2.96407 18.4305 3.12802 18.4301Z" fill="#C0D8CF"/>
<path d="M3.02716 11.8358C4.09758 11.8347 5.168 11.8337 6.23841 11.8331C6.26217 11.8331 6.26217 11.8331 6.28641 11.8331C6.6306 11.8329 6.97479 11.8327 7.31898 11.8326C7.48777 11.8325 7.65655 11.8324 7.82534 11.8323C7.85053 11.8323 7.85053 11.8323 7.87624 11.8323C8.42083 11.832 8.96542 11.8315 9.51002 11.831C10.0696 11.8304 10.6291 11.83 11.1887 11.8299C11.2677 11.8298 11.3467 11.8298 11.4257 11.8298C11.4412 11.8298 11.4568 11.8298 11.4728 11.8298C11.7388 11.8297 12.0047 11.8294 12.2706 11.829C12.5069 11.8286 12.7431 11.8285 12.9793 11.8286C13.1158 11.8287 13.2522 11.8286 13.3886 11.8283C13.5134 11.828 13.6382 11.8279 13.763 11.8282C13.8083 11.8282 13.8535 11.8281 13.8987 11.8279C13.9601 11.8276 14.0214 11.8278 14.0827 11.828C14.1004 11.8279 14.1181 11.8277 14.1363 11.8275C14.2469 11.8285 14.3232 11.8455 14.4167 11.8988C14.4322 11.9196 14.4477 11.9404 14.4636 11.9618C14.4481 11.9688 14.4326 11.9757 14.4167 11.9828C14.4026 11.9694 14.3886 11.956 14.3741 11.9421C14.2826 11.8649 14.1869 11.8747 14.0683 11.8749C14.0493 11.8748 14.0302 11.8748 14.0106 11.8747C13.9463 11.8745 13.882 11.8745 13.8177 11.8745C13.7713 11.8744 13.7249 11.8743 13.6786 11.8742C13.5507 11.8739 13.4229 11.8737 13.2951 11.8736C13.1574 11.8734 13.0197 11.8731 12.882 11.8728C12.6434 11.8724 12.4047 11.872 12.166 11.8717C11.9156 11.8713 11.6652 11.8709 11.4148 11.8705C11.3993 11.8705 11.3837 11.8704 11.3677 11.8704C11.2887 11.8703 11.2097 11.8701 11.1307 11.87C10.5708 11.869 10.0109 11.8681 9.45107 11.8672C8.90711 11.8664 8.36314 11.8655 7.81918 11.8646C7.80242 11.8646 7.78565 11.8645 7.76838 11.8645C7.60006 11.8642 7.43173 11.8639 7.26341 11.8637C6.9205 11.8631 6.57759 11.8625 6.23468 11.8619C6.21891 11.8619 6.20315 11.8618 6.1869 11.8618C5.13365 11.86 4.08041 11.8584 3.02716 11.8568C3.02716 11.8498 3.02716 11.8429 3.02716 11.8358Z" fill="#C0D8CF"/>
<path d="M13.2657 16.2058C13.2889 16.2335 13.3122 16.2613 13.3361 16.2899C13.3053 16.3424 13.3053 16.3424 13.2657 16.3949C13.2424 16.3949 13.2192 16.3949 13.1952 16.3949C13.1952 16.4088 13.1952 16.4226 13.1952 16.4369C13.1797 16.4369 13.1642 16.4369 13.1483 16.4369C13.1823 16.3573 13.2223 16.2817 13.2657 16.2058Z" fill="#C0D8CF"/>
<path d="M22.7065 6.37305C22.7297 6.38691 22.753 6.40078 22.7769 6.41507C22.7614 6.42893 22.7459 6.4428 22.73 6.45709C22.7061 6.49892 22.6826 6.54096 22.6595 6.58315C22.6228 6.64355 22.6228 6.64355 22.5891 6.6882C22.5736 6.6882 22.5581 6.6882 22.5421 6.6882C22.5784 6.57308 22.6397 6.4757 22.7065 6.37305Z" fill="#C0D8CF"/>
<path d="M19.7707 5.7218C19.7785 5.7218 19.7862 5.7218 19.7942 5.7218C19.8001 5.7914 19.8001 5.7914 19.7942 5.86887C19.7487 5.90564 19.7487 5.90564 19.7003 5.9319C19.6925 5.9527 19.6848 5.9735 19.6768 5.99493C19.6613 5.99493 19.6458 5.99493 19.6298 5.99493C19.6694 5.90043 19.7195 5.81154 19.7707 5.7218Z" fill="#C0D8CF"/>
<path d="M17.7514 8.97827C17.7746 8.9852 17.7979 8.99214 17.8218 8.99928C17.8107 9.08868 17.7531 9.13008 17.6809 9.18837C17.6577 9.19877 17.6577 9.19877 17.634 9.20938C17.668 9.12973 17.708 9.05417 17.7514 8.97827Z" fill="#C0D8CF"/>
<path d="M4.27164 2.71741C4.27939 2.71741 4.28714 2.71741 4.29512 2.71741C4.30246 2.76337 4.30246 2.76337 4.29512 2.82246C4.23935 2.88155 4.23935 2.88155 4.1777 2.92751C4.16221 2.92751 4.14671 2.92751 4.13074 2.92751C4.16954 2.8523 4.21836 2.78506 4.27164 2.71741Z" fill="#C0D8CF"/>
<path d="M16.9292 10.302C16.9762 10.344 16.9762 10.344 16.9762 10.4071C16.9459 10.4359 16.9146 10.464 16.8823 10.4911C16.8745 10.505 16.8668 10.5188 16.8588 10.5331C16.8433 10.5331 16.8278 10.5331 16.8118 10.5331C16.8459 10.4535 16.8858 10.3779 16.9292 10.302Z" fill="#C0D8CF"/>
<path d="M19.278 6.52014C19.3029 6.55822 19.3029 6.55822 19.3249 6.60418C19.3172 6.62498 19.3094 6.64578 19.3014 6.66721C19.2413 6.69216 19.2413 6.69216 19.184 6.70923C19.2122 6.64446 19.2422 6.58185 19.278 6.52014Z" fill="#C0D8CF"/>
<path d="M20.8749 9.33557C20.8981 9.3425 20.9214 9.34944 20.9453 9.35658C20.9221 9.36698 20.9221 9.36698 20.8983 9.37759C20.8916 9.39406 20.8848 9.41052 20.8778 9.42749C20.8482 9.48926 20.8199 9.51026 20.7574 9.54567C20.7888 9.47016 20.827 9.40375 20.8749 9.33557Z" fill="#C0D8CF"/>
<path d="M15.7789 17.5295C15.7944 17.5503 15.8099 17.5711 15.8259 17.5926C15.8099 17.6049 15.8099 17.6049 15.7936 17.6175C15.7489 17.6621 15.7305 17.7046 15.7085 17.7607C15.693 17.7607 15.6775 17.7607 15.6615 17.7607C15.6903 17.6755 15.7249 17.6043 15.7789 17.5295Z" fill="#C0D8CF"/>
<path d="M14.3932 14.3989C14.4087 14.3989 14.4242 14.3989 14.4402 14.3989C14.433 14.4761 14.4224 14.4994 14.3565 14.5526C14.3376 14.5643 14.3187 14.576 14.2993 14.588C14.3274 14.5232 14.3574 14.4606 14.3932 14.3989Z" fill="#C0D8CF"/>
<path d="M21.5084 10.47C21.5317 10.4908 21.5549 10.5116 21.5789 10.533C21.5648 10.5386 21.5508 10.5443 21.5363 10.5501C21.4856 10.5747 21.4531 10.6001 21.4145 10.6381C21.4145 10.5723 21.4245 10.5461 21.4615 10.491C21.477 10.484 21.4925 10.4771 21.5084 10.47Z" fill="#C0D8CF"/>
<path d="M21.5319 8.26392C21.5481 8.29937 21.5481 8.29937 21.5554 8.34796C21.5169 8.42035 21.49 8.45 21.4145 8.49503C21.4433 8.40988 21.4779 8.33864 21.5319 8.26392Z" fill="#C0D8CF"/>
<path d="M22.2364 9.25159C22.2517 9.28868 22.2517 9.28868 22.2599 9.33563C22.2365 9.37601 22.2365 9.37601 22.2026 9.41441C22.186 9.43375 22.186 9.43375 22.169 9.45348C22.1602 9.46312 22.1515 9.47276 22.1425 9.4827C22.1347 9.46883 22.127 9.45496 22.119 9.44068C22.1424 9.39521 22.1424 9.39521 22.1762 9.34351C22.1873 9.32633 22.1984 9.30916 22.2099 9.29147C22.2186 9.27831 22.2274 9.26515 22.2364 9.25159Z" fill="#C0D8CF"/>
<path d="M21.3207 8.70532C21.3362 8.71919 21.3517 8.73306 21.3676 8.74734C21.3251 8.78936 21.3251 8.78936 21.2737 8.83138C21.2504 8.83138 21.2272 8.83138 21.2032 8.83138C21.2032 8.81752 21.2032 8.80365 21.2032 8.78936C21.2187 8.78936 21.2342 8.78936 21.2502 8.78936C21.2502 8.76856 21.2502 8.74776 21.2502 8.72633C21.2735 8.7194 21.2967 8.71247 21.3207 8.70532Z" fill="#C0D8CF"/>
<path d="M22.0251 7.46558C22.0406 7.47944 22.0561 7.49331 22.0721 7.5076C22.0706 7.5483 22.0706 7.5483 22.0486 7.59164C21.9884 7.6284 21.9884 7.6284 21.9312 7.65467C21.9593 7.58989 21.9893 7.52729 22.0251 7.46558Z" fill="#C0D8CF"/>
<path d="M9.60229 1.64575C9.67908 1.6576 9.71562 1.67726 9.76668 1.72979C9.72018 1.75059 9.72018 1.75059 9.67275 1.77181C9.6495 1.73021 9.62625 1.68861 9.60229 1.64575Z" fill="#C0D8CF"/>
<path d="M22.4716 8.87329C22.4951 8.93632 22.4951 8.93632 22.4745 8.97965C22.4658 8.99309 22.4571 9.00652 22.4481 9.02036C22.4404 9.03423 22.4326 9.04809 22.4246 9.06238C22.4091 9.06238 22.3936 9.06238 22.3777 9.06238C22.4025 8.99088 22.4248 8.93604 22.4716 8.87329Z" fill="#C0D8CF"/>
<path d="M12.4674 17.4873C12.4829 17.515 12.4984 17.5428 12.5144 17.5713C12.4756 17.606 12.4369 17.6407 12.397 17.6764C12.397 17.5988 12.4271 17.555 12.4674 17.4873Z" fill="#C0D8CF"/>
<path d="M12.5851 17.2983C12.6013 17.3338 12.6013 17.3338 12.6086 17.3824C12.5778 17.4402 12.5778 17.4402 12.5382 17.4874C12.5227 17.4874 12.5072 17.4874 12.4912 17.4874C12.5194 17.4227 12.5494 17.3601 12.5851 17.2983Z" fill="#C0D8CF"/>
<path d="M22.0724 7.04553C22.1194 7.10856 22.1194 7.10856 22.1194 7.1926C22.0884 7.18567 22.0574 7.17874 22.0254 7.17159C22.046 7.06917 22.046 7.06917 22.0724 7.04553Z" fill="#C0D8CF"/>
<path d="M4.5063 2.5282C4.5218 2.53513 4.5373 2.54206 4.55327 2.54921C4.48816 2.61394 4.43437 2.6477 4.34192 2.67527C4.39671 2.62624 4.45151 2.57722 4.5063 2.5282Z" fill="#C0D8CF"/>
<path d="M21.908 7.65491C21.9158 7.65491 21.9235 7.65491 21.9315 7.65491C21.9374 7.70218 21.9374 7.70218 21.9315 7.75996C21.8846 7.80854 21.8846 7.80854 21.8376 7.844C21.8376 7.76638 21.8677 7.72259 21.908 7.65491Z" fill="#C0D8CF"/>
</svg>
