<svg width="24" height="24" viewBox="0 0 24 24" fill="none" xmlns="http://www.w3.org/2000/svg">
<path d="M9.95335 0.21256C10.1772 0.372424 10.3481 0.590798 10.3957 0.849426C10.4128 1.01507 10.4112 1.15721 10.3532 1.31682C10.3403 1.35292 10.3403 1.35292 10.327 1.38976C10.3204 1.40783 10.3137 1.4259 10.3068 1.44452C10.3309 1.44443 10.3309 1.44443 10.3556 1.44434C10.7482 1.44295 11.1408 1.44191 11.5335 1.44125C11.7233 1.44093 11.9132 1.44049 12.1031 1.43976C12.2687 1.43913 12.4343 1.43873 12.5999 1.43859C12.6875 1.43851 12.775 1.43832 12.8626 1.43785C12.9607 1.43734 13.0587 1.43733 13.1567 1.43736C13.1854 1.43714 13.2142 1.43691 13.2437 1.43668C13.6406 1.43795 13.9382 1.5733 14.2251 1.81704C14.4156 1.99709 14.5385 2.22457 14.5338 2.47401C14.5621 2.47386 14.5621 2.47386 14.5909 2.47372C15.0493 2.47139 15.5078 2.46966 15.9662 2.46857C16.1879 2.46802 16.4096 2.46729 16.6313 2.46608C16.8246 2.46504 17.0179 2.46436 17.2112 2.46413C17.3135 2.46399 17.4158 2.46367 17.5181 2.4629C17.6145 2.46219 17.7108 2.46197 17.8072 2.46213C17.8425 2.4621 17.8778 2.46189 17.9131 2.46149C18.2324 2.45801 18.2324 2.45801 18.3733 2.54419C18.4753 2.64493 18.4894 2.74812 18.4884 2.87901C18.4886 2.89619 18.4887 2.91337 18.4889 2.93107C18.4893 2.98846 18.4893 3.04584 18.4892 3.10323C18.4894 3.14444 18.4897 3.18565 18.4899 3.22686C18.4906 3.33863 18.4908 3.4504 18.4909 3.56217C18.4912 3.67901 18.4918 3.79585 18.4924 3.9127C18.4934 4.13391 18.494 4.35512 18.4946 4.57634C18.4952 4.82821 18.4963 5.08007 18.4973 5.33193C18.4995 5.84999 18.5012 6.36805 18.5025 6.88611C18.5112 6.87182 18.5198 6.85753 18.5287 6.8428C18.5685 6.77711 18.6082 6.71142 18.6479 6.64573C18.6683 6.61201 18.6683 6.61201 18.6891 6.57762C18.8054 6.3855 18.9234 6.19435 19.0427 6.00369C19.061 5.97426 19.061 5.97426 19.0798 5.94423C19.3308 5.54227 19.3308 5.54227 19.4496 5.35517C19.579 5.15134 19.7066 4.94686 19.8308 4.74047C19.8687 4.67784 19.9067 4.61523 19.9446 4.55265C19.9695 4.51158 19.9943 4.47046 20.019 4.4293C20.2215 4.09291 20.4208 3.81097 20.8421 3.67421C21.1209 3.60892 21.4075 3.64183 21.6728 3.73461C21.7122 3.75524 21.7513 3.77631 21.7902 3.79764C21.877 3.84321 21.9639 3.88845 22.0509 3.93358C22.0786 3.94797 22.1063 3.96239 22.134 3.97685C22.3438 4.08688 22.3438 4.08688 22.5652 4.17582C22.5652 4.18969 22.5652 4.20355 22.5652 4.21784C22.5831 4.22217 22.601 4.22651 22.6195 4.23097C22.9584 4.34404 23.2426 4.53848 23.4119 4.82738C23.5251 5.04976 23.5278 5.37278 23.4355 5.60056C23.376 5.7197 23.2998 5.8314 23.2194 5.9402C23.1664 6.012 23.1664 6.012 23.1542 6.0952C23.1867 6.14728 23.2315 6.1548 23.2932 6.17177C23.2932 6.18564 23.2932 6.19951 23.2932 6.21379C23.312 6.21864 23.3309 6.22349 23.3503 6.22848C23.4553 6.26275 23.5494 6.30835 23.6469 6.35692C23.6747 6.37035 23.6747 6.37035 23.7031 6.38405C23.9502 6.50654 23.9502 6.50654 23.9977 6.63399C24.0084 6.75051 23.9821 6.82973 23.9214 6.93076C23.913 6.94511 23.9047 6.95947 23.8962 6.97426C23.8149 7.11258 23.7276 7.24789 23.6402 7.38314C23.5491 7.5243 23.4616 7.66697 23.3754 7.81055C23.2668 7.99123 23.155 8.16986 23.0405 8.34754C22.9695 8.45806 22.9011 8.56945 22.8352 8.68247C22.7584 8.81431 22.6776 8.94367 22.5945 9.07247C22.4919 9.23178 22.3924 9.3924 22.2951 9.55439C22.1887 9.73152 22.0792 9.90675 21.9669 10.0809C21.8774 10.2202 21.7916 10.361 21.7066 10.5025C21.6685 10.5653 21.6304 10.6282 21.5922 10.691C21.5679 10.7312 21.5438 10.7714 21.5198 10.8117C21.4867 10.8673 21.4529 10.9226 21.4189 10.9778C21.4045 11.0024 21.4045 11.0024 21.3899 11.0275C21.3196 11.1398 21.2461 11.1941 21.1092 11.2352C21.0037 11.2547 20.9236 11.2487 20.8303 11.1997C20.7501 11.1216 20.7132 11.0751 20.7012 10.9673C20.7108 10.7732 20.8244 10.6089 20.9301 10.4447C20.952 10.4103 20.952 10.4103 20.9743 10.3752C21.0191 10.3046 21.0641 10.2341 21.1092 10.1637C21.1607 10.0828 21.212 10.0018 21.2633 9.92075C21.2758 9.90106 21.2883 9.88136 21.3011 9.86107C21.4049 9.69682 21.5054 9.53102 21.6053 9.36488C21.7046 9.20018 21.8071 9.03724 21.9106 8.8746C22.0017 8.73098 22.0902 8.58626 22.1777 8.44086C22.3034 8.23195 22.4329 8.02514 22.5638 7.81884C22.6674 7.65567 22.7691 7.49159 22.8705 7.32732C22.8818 7.30895 22.8932 7.29058 22.9049 7.27165C22.9404 7.21406 22.9759 7.15646 23.0114 7.09884C23.0279 7.07202 23.0279 7.07202 23.0448 7.04466C23.0602 7.01956 23.0602 7.01956 23.076 6.99395C23.0896 6.97182 23.0896 6.97182 23.1035 6.94924C23.1285 6.90757 23.1524 6.8655 23.1758 6.82308C23.1569 6.81832 23.138 6.81355 23.1185 6.80864C23.0287 6.77905 22.953 6.74007 22.8717 6.69546C22.8206 6.66897 22.8206 6.66897 22.7531 6.69702C22.7148 6.74564 22.7148 6.74564 22.679 6.80692C22.6577 6.84164 22.6577 6.84164 22.6359 6.87706C22.6207 6.9024 22.6054 6.92774 22.5901 6.95308C22.5743 6.97906 22.5584 7.00503 22.5425 7.03099C22.5025 7.09646 22.4627 7.16204 22.423 7.22767C22.3791 7.30016 22.335 7.37253 22.2909 7.44492C22.2682 7.48224 22.2455 7.51958 22.2228 7.55693C22.1264 7.7153 22.0273 7.87219 21.9277 8.02896C21.8412 8.16552 21.7564 8.30286 21.6728 8.44086C21.5768 8.59936 21.4788 8.75681 21.3793 8.91358C21.2661 9.09185 21.1552 9.27114 21.0459 9.45129C20.9464 9.61501 20.8455 9.77797 20.7442 9.94072C20.6587 10.078 20.5735 10.2153 20.4883 10.3527C20.4203 10.4622 20.3522 10.5717 20.2838 10.681C20.2729 10.6986 20.2619 10.7161 20.2506 10.7341C20.2307 10.7661 20.2106 10.798 20.1906 10.8299C20.1546 10.8875 20.1228 10.9413 20.0994 11.0041C20.0839 11.0041 20.0684 11.0041 20.0525 11.0041C20.0461 11.0225 20.0398 11.041 20.0333 11.06C20.0068 11.1269 19.9755 11.1831 19.9358 11.2445C19.9224 11.2654 19.9089 11.2863 19.8951 11.3079C19.8742 11.3401 19.8742 11.3401 19.8528 11.3731C19.8251 11.416 19.7975 11.4589 19.7699 11.5018C19.7577 11.5207 19.7454 11.5396 19.7328 11.5591C19.7015 11.6112 19.6765 11.6631 19.6532 11.7184C19.6377 11.7184 19.6222 11.7184 19.6063 11.7184C19.6001 11.7365 19.594 11.7546 19.5877 11.7732C19.5586 11.8461 19.5229 11.9092 19.4808 11.9768C19.4731 11.9891 19.4655 12.0014 19.4576 12.0141C19.4329 12.0539 19.408 12.0936 19.3832 12.1334C19.3661 12.1609 19.349 12.1884 19.3319 12.2159C19.29 12.2832 19.2481 12.3504 19.2061 12.4176C19.164 12.4851 19.1221 12.5527 19.0801 12.6203C19.062 12.6496 19.0438 12.6788 19.0256 12.7081C19.0173 12.7213 19.0091 12.7345 19.0006 12.7481C18.9929 12.7605 18.9851 12.7729 18.9771 12.7857C18.9571 12.8182 18.9376 12.851 18.9184 12.8839C18.8615 12.9804 18.804 13.0706 18.7285 13.1565C18.4058 13.5461 18.4607 14.0014 18.4665 14.4635C18.4677 14.5881 18.4672 14.7128 18.4668 14.8374C18.4665 15.0529 18.4673 15.2684 18.4688 15.4839C18.4704 15.7097 18.4713 15.9356 18.4713 16.1614C18.4713 16.1755 18.4713 16.1896 18.4713 16.2041C18.4713 16.2758 18.4713 16.3474 18.4713 16.419C18.4712 16.9251 18.4725 17.4312 18.4746 17.9372C18.4767 18.4282 18.4784 18.9191 18.4794 19.4101C18.4795 19.4328 18.4795 19.4328 18.4795 19.456C18.4802 19.8019 18.4808 20.1478 18.4812 20.4937C18.4812 20.5082 18.4812 20.5227 18.4813 20.5377C18.4816 20.8003 18.4816 20.8003 18.4817 20.9299C18.4821 21.2696 18.4828 21.6094 18.4844 21.9491C18.4853 22.1619 18.486 22.3748 18.4864 22.5876C18.4867 22.7104 18.4871 22.8332 18.488 22.9561C18.4887 23.0684 18.4891 23.1808 18.4891 23.2932C18.4891 23.3339 18.4894 23.3746 18.4898 23.4153C18.4903 23.4705 18.4903 23.5257 18.4901 23.5809C18.4906 23.6047 18.4906 23.6047 18.491 23.629C18.4894 23.7706 18.4374 23.8469 18.339 23.9548C18.2217 24.0099 18.1024 23.9996 17.972 23.9986C17.9414 23.9987 17.9109 23.9988 17.8794 23.9989C17.7943 23.9992 17.7092 23.9989 17.624 23.9985C17.5316 23.9983 17.4391 23.9985 17.3466 23.9986C17.1844 23.9988 17.0222 23.9986 16.86 23.9983C16.6189 23.9978 16.3777 23.9978 16.1365 23.9978C15.7309 23.9979 15.3252 23.9977 14.9196 23.9972C14.5178 23.9967 14.1161 23.9963 13.7143 23.9962C13.6893 23.9962 13.6644 23.9962 13.6387 23.9962C13.5119 23.9962 13.3851 23.9962 13.2584 23.9961C12.36 23.996 11.4617 23.9954 10.5634 23.9946C9.69054 23.9938 8.81772 23.9932 7.9449 23.9929C7.91801 23.9929 7.89111 23.9929 7.8634 23.9929C7.59331 23.9927 7.32322 23.9926 7.05313 23.9925C6.50291 23.9923 5.95269 23.9921 5.40247 23.9918C5.37717 23.9918 5.35187 23.9918 5.3258 23.9918C3.63582 23.991 1.94584 23.9897 0.25586 23.9883C0.25586 23.9744 0.25586 23.9605 0.25586 23.9462C0.241912 23.9439 0.227964 23.9415 0.213594 23.9391C0.136628 23.9185 0.100059 23.887 0.0502637 23.8314C-0.0165763 23.7097 0.00201284 23.5639 0.00342496 23.431C0.00329221 23.3949 0.00309729 23.3588 0.00284662 23.3227C0.00233551 23.2231 0.00270574 23.1235 0.00321498 23.024C0.00361384 22.9158 0.00319721 22.8076 0.00288317 22.6994C0.00244589 22.5096 0.00253408 22.3199 0.00296415 22.1302C0.00360191 21.848 0.00343625 21.5659 0.00310748 21.2838C0.00257922 20.8091 0.00271888 20.3345 0.00325583 19.8599C0.00378692 19.3898 0.00406836 18.9197 0.00399901 18.4496C0.00399499 18.4201 0.00399078 18.3906 0.00398682 18.361C0.00397049 18.2425 0.00395268 18.1239 0.00393236 18.0053C0.00387624 17.6738 0.00386716 17.3423 0.00389437 17.0108C0.0038956 16.9957 0.0038967 16.9806 0.00389796 16.965C0.00394017 16.4839 0.00418927 16.0028 0.00458523 15.5216C0.00459806 15.506 0.00461071 15.4904 0.00462393 15.4744C0.00483312 15.2209 0.00505464 14.9674 0.00527681 14.714C0.00615727 13.7086 0.00645891 12.7033 0.00619843 11.6979C0.00618214 11.6344 0.00616594 11.5708 0.0061497 11.5073C0.00614568 11.4916 0.00614166 11.4759 0.00613752 11.4597C0.00609308 11.2857 0.00605009 11.1118 0.00600924 10.9378C0.00600553 10.9222 0.0060023 10.9066 0.00599849 10.8905C0.00580024 10.0487 0.00604923 9.20684 0.00645643 8.36499C0.00647068 8.33531 0.00648451 8.30564 0.00649871 8.27597C0.00650574 8.2613 0.00651297 8.24663 0.00652021 8.23152C0.00653437 8.20193 0.00654838 8.17233 0.0065625 8.14274C0.00659767 8.06901 0.00663305 7.99529 0.00666928 7.92156C0.00682662 7.59823 0.00692343 7.27489 0.00685991 6.95155C0.00685707 6.93697 0.00685424 6.9224 0.00685131 6.90738C0.00683666 6.83397 0.00682146 6.76057 0.00680544 6.68717C0.00669042 6.15701 0.00688082 5.62685 0.00761384 5.09669C0.00799279 4.81612 0.00811341 4.53556 0.00786538 4.25499C0.00772605 4.06782 0.00792616 3.88064 0.0084079 3.69347C0.00867333 3.58667 0.00878792 3.47987 0.00849389 3.37307C0.0082299 3.27602 0.00839342 3.17897 0.00890669 3.08192C0.00901554 3.04692 0.00896598 3.01193 0.00874186 2.97694C0.00846119 2.92957 0.00875565 2.88222 0.00919622 2.83485C0.00921309 2.80858 0.00922972 2.78231 0.0092471 2.75525C0.0261431 2.65319 0.0775677 2.58745 0.163393 2.51997C0.252022 2.47137 0.32617 2.47141 0.427785 2.47148C0.442901 2.47146 0.458016 2.47145 0.47359 2.47143C0.524323 2.47139 0.575055 2.47151 0.625788 2.47162C0.662122 2.47163 0.698456 2.47163 0.73479 2.47161C0.833521 2.47161 0.932251 2.47173 1.03098 2.47188C1.13413 2.47201 1.23727 2.47202 1.34042 2.47205C1.53578 2.47211 1.73114 2.47229 1.9265 2.4725C2.1489 2.47273 2.37129 2.47285 2.59369 2.47295C3.05121 2.47317 3.50873 2.47354 3.96625 2.47401C3.9677 2.46112 3.96915 2.44823 3.97064 2.43495C3.97362 2.40951 3.97362 2.40951 3.97666 2.38356C3.97859 2.36677 3.98052 2.34998 3.98251 2.33268C4.02132 2.07611 4.22915 1.83503 4.44482 1.67251C4.7276 1.49379 4.99706 1.43799 5.33752 1.43975C5.36901 1.43976 5.4005 1.43975 5.43199 1.43973C5.51699 1.43972 5.60198 1.43996 5.68697 1.44026C5.77598 1.44052 5.86499 1.44055 5.954 1.44059C6.12233 1.44073 6.29066 1.44107 6.45898 1.44149C6.65071 1.44196 6.84244 1.44219 7.03418 1.4424C7.42837 1.44284 7.82257 1.44358 8.21677 1.44452C8.21195 1.43336 8.20714 1.4222 8.20218 1.41071C8.19585 1.39586 8.18953 1.38102 8.18301 1.36573C8.17674 1.35111 8.17048 1.33648 8.16402 1.32141C8.0763 1.09857 8.10522 0.823438 8.19328 0.604118C8.33996 0.339929 8.57407 0.14413 8.88311 0.0394733C9.25632 -0.0480905 9.64173 0.0102101 9.95335 0.21256Z" fill="white"/>
<path d="M9.95335 0.21256C10.1772 0.372424 10.3481 0.590798 10.3957 0.849426C10.4128 1.01507 10.4112 1.15721 10.3532 1.31682C10.3403 1.35292 10.3403 1.35292 10.327 1.38976C10.3204 1.40783 10.3137 1.4259 10.3068 1.44452C10.3309 1.44443 10.3309 1.44443 10.3556 1.44434C10.7482 1.44295 11.1408 1.44191 11.5335 1.44125C11.7233 1.44093 11.9132 1.44049 12.1031 1.43976C12.2687 1.43913 12.4343 1.43873 12.5999 1.43859C12.6875 1.43851 12.775 1.43832 12.8626 1.43785C12.9607 1.43734 13.0587 1.43733 13.1567 1.43736C13.1854 1.43714 13.2142 1.43691 13.2437 1.43668C13.6406 1.43795 13.9382 1.5733 14.2251 1.81704C14.4156 1.99709 14.5385 2.22457 14.5338 2.47401C14.5621 2.47386 14.5621 2.47386 14.5909 2.47372C15.0493 2.47139 15.5078 2.46966 15.9662 2.46857C16.1879 2.46802 16.4096 2.46729 16.6313 2.46608C16.8246 2.46504 17.0179 2.46436 17.2112 2.46413C17.3135 2.46399 17.4158 2.46367 17.5181 2.4629C17.6145 2.46219 17.7108 2.46197 17.8072 2.46213C17.8425 2.4621 17.8778 2.46189 17.9131 2.46149C18.2324 2.45801 18.2324 2.45801 18.3733 2.54419C18.4753 2.64493 18.4894 2.74812 18.4884 2.87901C18.4886 2.89619 18.4887 2.91337 18.4889 2.93107C18.4893 2.98846 18.4893 3.04584 18.4892 3.10323C18.4894 3.14444 18.4897 3.18565 18.4899 3.22686C18.4906 3.33863 18.4908 3.4504 18.4909 3.56217C18.4912 3.67901 18.4918 3.79585 18.4924 3.9127C18.4934 4.13391 18.494 4.35512 18.4946 4.57634C18.4952 4.82821 18.4963 5.08007 18.4973 5.33193C18.4995 5.84999 18.5012 6.36805 18.5025 6.88611C18.5112 6.87182 18.5198 6.85753 18.5287 6.8428C18.5685 6.77711 18.6082 6.71142 18.6479 6.64573C18.6683 6.61201 18.6683 6.61201 18.6891 6.57762C18.8054 6.3855 18.9234 6.19435 19.0427 6.00369C19.061 5.97426 19.061 5.97426 19.0798 5.94423C19.3308 5.54227 19.3308 5.54227 19.4496 5.35517C19.579 5.15134 19.7066 4.94686 19.8308 4.74047C19.8687 4.67784 19.9067 4.61523 19.9446 4.55265C19.9695 4.51158 19.9943 4.47046 20.019 4.4293C20.2215 4.09291 20.4208 3.81097 20.8421 3.67421C21.1209 3.60892 21.4075 3.64183 21.6728 3.73461C21.7122 3.75524 21.7513 3.77631 21.7902 3.79764C21.877 3.84321 21.9639 3.88845 22.0509 3.93358C22.0786 3.94797 22.1063 3.96239 22.134 3.97685C22.3438 4.08688 22.3438 4.08688 22.5652 4.17582C22.5652 4.18969 22.5652 4.20355 22.5652 4.21784C22.5831 4.22217 22.601 4.22651 22.6195 4.23097C22.9584 4.34404 23.2426 4.53848 23.4119 4.82738C23.5251 5.04976 23.5278 5.37278 23.4355 5.60056C23.376 5.7197 23.2998 5.8314 23.2194 5.9402C23.1664 6.012 23.1664 6.012 23.1542 6.0952C23.1867 6.14728 23.2315 6.1548 23.2932 6.17177C23.2932 6.18564 23.2932 6.19951 23.2932 6.21379C23.312 6.21864 23.3309 6.22349 23.3503 6.22848C23.4553 6.26275 23.5494 6.30835 23.6469 6.35692C23.6747 6.37035 23.6747 6.37035 23.7031 6.38405C23.9502 6.50654 23.9502 6.50654 23.9977 6.63399C24.0084 6.75051 23.9821 6.82973 23.9214 6.93076C23.913 6.94511 23.9047 6.95947 23.8962 6.97426C23.8149 7.11258 23.7276 7.24789 23.6402 7.38314C23.5491 7.5243 23.4616 7.66697 23.3754 7.81055C23.2668 7.99123 23.155 8.16986 23.0405 8.34754C22.9695 8.45806 22.9011 8.56945 22.8352 8.68247C22.7584 8.81431 22.6776 8.94367 22.5945 9.07247C22.4919 9.23178 22.3924 9.3924 22.2951 9.55439C22.1887 9.73152 22.0792 9.90675 21.9669 10.0809C21.8774 10.2202 21.7916 10.361 21.7066 10.5025C21.6685 10.5653 21.6304 10.6282 21.5922 10.691C21.5679 10.7312 21.5438 10.7714 21.5198 10.8117C21.4867 10.8673 21.4529 10.9226 21.4189 10.9778C21.4045 11.0024 21.4045 11.0024 21.3899 11.0275C21.3196 11.1398 21.2461 11.1941 21.1092 11.2352C21.0037 11.2547 20.9236 11.2487 20.8303 11.1997C20.7501 11.1216 20.7132 11.0751 20.7012 10.9673C20.7108 10.7732 20.8244 10.6089 20.9301 10.4447C20.952 10.4103 20.952 10.4103 20.9743 10.3752C21.0191 10.3046 21.0641 10.2341 21.1092 10.1637C21.1607 10.0828 21.212 10.0018 21.2633 9.92075C21.2758 9.90106 21.2883 9.88136 21.3011 9.86107C21.4049 9.69682 21.5054 9.53102 21.6053 9.36488C21.7046 9.20018 21.8071 9.03724 21.9106 8.8746C22.0017 8.73098 22.0902 8.58626 22.1777 8.44086C22.3034 8.23195 22.4329 8.02514 22.5638 7.81884C22.6674 7.65567 22.7691 7.49159 22.8705 7.32732C22.8818 7.30895 22.8932 7.29058 22.9049 7.27165C22.9404 7.21406 22.9759 7.15646 23.0114 7.09884C23.0279 7.07202 23.0279 7.07202 23.0448 7.04466C23.0602 7.01956 23.0602 7.01956 23.076 6.99395C23.0896 6.97182 23.0896 6.97182 23.1035 6.94924C23.1285 6.90757 23.1524 6.8655 23.1758 6.82308C23.1569 6.81832 23.138 6.81355 23.1185 6.80864C23.0287 6.77905 22.953 6.74007 22.8717 6.69546C22.8206 6.66897 22.8206 6.66897 22.7531 6.69702C22.7148 6.74564 22.7148 6.74564 22.679 6.80692C22.6577 6.84164 22.6577 6.84164 22.6359 6.87706C22.6207 6.9024 22.6054 6.92774 22.5901 6.95308C22.5743 6.97906 22.5584 7.00503 22.5425 7.03099C22.5025 7.09646 22.4627 7.16204 22.423 7.22767C22.3791 7.30016 22.335 7.37253 22.2909 7.44492C22.2682 7.48224 22.2455 7.51958 22.2228 7.55693C22.1264 7.7153 22.0273 7.87219 21.9277 8.02896C21.8412 8.16552 21.7564 8.30286 21.6728 8.44086C21.5768 8.59936 21.4788 8.75681 21.3793 8.91358C21.2661 9.09185 21.1552 9.27114 21.0459 9.45129C20.9464 9.61501 20.8455 9.77797 20.7442 9.94072C20.6587 10.078 20.5735 10.2153 20.4883 10.3527C20.4203 10.4622 20.3522 10.5717 20.2838 10.681C20.2729 10.6986 20.2619 10.7161 20.2506 10.7341C20.2307 10.7661 20.2106 10.798 20.1906 10.8299C20.1546 10.8875 20.1228 10.9413 20.0994 11.0041C20.0839 11.0041 20.0684 11.0041 20.0525 11.0041C20.0461 11.0225 20.0398 11.041 20.0333 11.06C20.0068 11.1269 19.9755 11.1831 19.9358 11.2445C19.9224 11.2654 19.9089 11.2863 19.8951 11.3079C19.8742 11.3401 19.8742 11.3401 19.8528 11.3731C19.8251 11.416 19.7975 11.4589 19.7699 11.5018C19.7577 11.5207 19.7454 11.5396 19.7328 11.5591C19.7015 11.6112 19.6765 11.6631 19.6532 11.7184C19.6377 11.7184 19.6222 11.7184 19.6063 11.7184C19.6001 11.7365 19.594 11.7546 19.5877 11.7732C19.5586 11.8461 19.5229 11.9092 19.4808 11.9768C19.4731 11.9891 19.4655 12.0014 19.4576 12.0141C19.4329 12.0539 19.408 12.0936 19.3832 12.1334C19.3661 12.1609 19.349 12.1884 19.3319 12.2159C19.29 12.2832 19.2481 12.3504 19.2061 12.4176C19.164 12.4851 19.1221 12.5527 19.0801 12.6203C19.062 12.6496 19.0438 12.6788 19.0256 12.7081C19.0173 12.7213 19.0091 12.7345 19.0006 12.7481C18.9929 12.7605 18.9851 12.7729 18.9771 12.7857C18.9571 12.8182 18.9376 12.851 18.9184 12.8839C18.8615 12.9804 18.804 13.0706 18.7285 13.1565C18.4058 13.5461 18.4607 14.0014 18.4665 14.4635C18.4677 14.5881 18.4672 14.7128 18.4668 14.8374C18.4665 15.0529 18.4673 15.2684 18.4688 15.4839C18.4704 15.7097 18.4713 15.9356 18.4713 16.1614C18.4713 16.1755 18.4713 16.1896 18.4713 16.2041C18.4713 16.2758 18.4713 16.3474 18.4713 16.419C18.4712 16.9251 18.4725 17.4312 18.4746 17.9372C18.4767 18.4282 18.4784 18.9191 18.4794 19.4101C18.4795 19.4328 18.4795 19.4328 18.4795 19.456C18.4802 19.8019 18.4808 20.1478 18.4812 20.4937C18.4812 20.5082 18.4812 20.5227 18.4813 20.5377C18.4816 20.8003 18.4816 20.8003 18.4817 20.9299C18.4821 21.2696 18.4828 21.6094 18.4844 21.9491C18.4853 22.1619 18.486 22.3748 18.4864 22.5876C18.4867 22.7104 18.4871 22.8332 18.488 22.9561C18.4887 23.0684 18.4891 23.1808 18.4891 23.2932C18.4891 23.3339 18.4894 23.3746 18.4898 23.4153C18.4903 23.4705 18.4903 23.5257 18.4901 23.5809C18.4906 23.6047 18.4906 23.6047 18.491 23.629C18.4894 23.7706 18.4374 23.8469 18.339 23.9548C18.2217 24.0099 18.1024 23.9996 17.972 23.9986C17.9414 23.9987 17.9109 23.9988 17.8794 23.9989C17.7943 23.9992 17.7092 23.9989 17.624 23.9985C17.5316 23.9983 17.4391 23.9985 17.3466 23.9986C17.1844 23.9988 17.0222 23.9986 16.86 23.9983C16.6189 23.9978 16.3777 23.9978 16.1365 23.9978C15.7309 23.9979 15.3252 23.9977 14.9196 23.9972C14.5178 23.9967 14.1161 23.9963 13.7143 23.9962C13.6893 23.9962 13.6644 23.9962 13.6387 23.9962C13.5119 23.9962 13.3851 23.9962 13.2584 23.9961C12.36 23.996 11.4617 23.9954 10.5634 23.9946C9.69054 23.9938 8.81772 23.9932 7.9449 23.9929C7.91801 23.9929 7.89111 23.9929 7.8634 23.9929C7.59331 23.9927 7.32322 23.9926 7.05313 23.9925C6.50291 23.9923 5.95269 23.9921 5.40247 23.9918C5.37717 23.9918 5.35187 23.9918 5.3258 23.9918C3.63582 23.991 1.94584 23.9897 0.25586 23.9883C0.25586 23.9744 0.25586 23.9605 0.25586 23.9462C0.241912 23.9439 0.227964 23.9415 0.213594 23.9391C0.136628 23.9185 0.100059 23.887 0.0502637 23.8314C-0.0165763 23.7097 0.00201284 23.5639 0.00342496 23.431C0.00329221 23.3949 0.00309729 23.3588 0.00284662 23.3227C0.00233551 23.2231 0.00270574 23.1235 0.00321498 23.024C0.00361384 22.9158 0.00319721 22.8076 0.00288317 22.6994C0.00244589 22.5096 0.00253408 22.3199 0.00296415 22.1302C0.00360191 21.848 0.00343625 21.5659 0.00310748 21.2838C0.00257922 20.8091 0.00271888 20.3345 0.00325583 19.8599C0.00378692 19.3898 0.00406836 18.9197 0.00399901 18.4496C0.00399499 18.4201 0.00399078 18.3906 0.00398682 18.361C0.00397049 18.2425 0.00395268 18.1239 0.00393236 18.0053C0.00387624 17.6738 0.00386716 17.3423 0.00389437 17.0108C0.0038956 16.9957 0.0038967 16.9806 0.00389796 16.965C0.00394017 16.4839 0.00418927 16.0028 0.00458523 15.5216C0.00459806 15.506 0.00461071 15.4904 0.00462393 15.4744C0.00483312 15.2209 0.00505464 14.9674 0.00527681 14.714C0.00615727 13.7086 0.00645891 12.7033 0.00619843 11.6979C0.00618214 11.6344 0.00616594 11.5708 0.0061497 11.5073C0.00614568 11.4916 0.00614166 11.4759 0.00613752 11.4597C0.00609308 11.2857 0.00605009 11.1118 0.00600924 10.9378C0.00600553 10.9222 0.0060023 10.9066 0.00599849 10.8905C0.00580024 10.0487 0.00604923 9.20684 0.00645643 8.36499C0.00647068 8.33531 0.00648451 8.30564 0.00649871 8.27597C0.00650574 8.2613 0.00651297 8.24663 0.00652021 8.23152C0.00653437 8.20193 0.00654838 8.17233 0.0065625 8.14274C0.00659767 8.06901 0.00663305 7.99529 0.00666928 7.92156C0.00682662 7.59823 0.00692343 7.27489 0.00685991 6.95155C0.00685707 6.93697 0.00685424 6.9224 0.00685131 6.90738C0.00683666 6.83397 0.00682146 6.76057 0.00680544 6.68717C0.00669042 6.15701 0.00688082 5.62685 0.00761384 5.09669C0.00799279 4.81612 0.00811341 4.53556 0.00786538 4.25499C0.00772605 4.06782 0.00792616 3.88064 0.0084079 3.69347C0.00867333 3.58667 0.00878792 3.47987 0.00849389 3.37307C0.0082299 3.27602 0.00839342 3.17897 0.00890669 3.08192C0.00901554 3.04692 0.00896598 3.01193 0.00874186 2.97694C0.00846119 2.92957 0.00875565 2.88222 0.00919622 2.83485C0.00921309 2.80858 0.00922972 2.78231 0.0092471 2.75525C0.0261431 2.65319 0.0775677 2.58745 0.163393 2.51997C0.252022 2.47137 0.32617 2.47141 0.427785 2.47148C0.442901 2.47146 0.458016 2.47145 0.47359 2.47143C0.524323 2.47139 0.575055 2.47151 0.625788 2.47162C0.662122 2.47163 0.698456 2.47163 0.73479 2.47161C0.833521 2.47161 0.932251 2.47173 1.03098 2.47188C1.13413 2.47201 1.23727 2.47202 1.34042 2.47205C1.53578 2.47211 1.73114 2.47229 1.9265 2.4725C2.1489 2.47273 2.37129 2.47285 2.59369 2.47295C3.05121 2.47317 3.50873 2.47354 3.96625 2.47401C3.9677 2.46112 3.96915 2.44823 3.97064 2.43495C3.97362 2.40951 3.97362 2.40951 3.97666 2.38356C3.97859 2.36677 3.98052 2.34998 3.98251 2.33268C4.02132 2.07611 4.22915 1.83503 4.44482 1.67251C4.7276 1.49379 4.99706 1.43799 5.33752 1.43975C5.36901 1.43976 5.4005 1.43975 5.43199 1.43973C5.51699 1.43972 5.60198 1.43996 5.68697 1.44026C5.77598 1.44052 5.86499 1.44055 5.954 1.44059C6.12233 1.44073 6.29066 1.44107 6.45898 1.44149C6.65071 1.44196 6.84244 1.44219 7.03418 1.4424C7.42837 1.44284 7.82257 1.44358 8.21677 1.44452C8.21195 1.43336 8.20714 1.4222 8.20218 1.41071C8.19585 1.39586 8.18953 1.38102 8.18301 1.36573C8.17674 1.35111 8.17048 1.33648 8.16402 1.32141C8.0763 1.09857 8.10522 0.823438 8.19328 0.604118C8.33996 0.339929 8.57407 0.14413 8.88311 0.0394733C9.25632 -0.0480905 9.64173 0.0102101 9.95335 0.21256ZM0.702046 3.0833C0.702046 9.78087 0.702046 16.4784 0.702046 23.379C6.34372 23.379 11.9854 23.379 17.798 23.379C17.798 20.5155 17.798 17.6521 17.798 14.7018C17.7407 14.7531 17.7094 14.7874 17.6706 14.8483C17.6598 14.8652 17.649 14.8821 17.6379 14.8995C17.6263 14.9179 17.6148 14.9363 17.6028 14.9553C17.5844 14.9843 17.5844 14.9843 17.5656 15.0139C17.454 15.191 17.3466 15.3701 17.2395 15.5493C17.1427 15.7109 17.0426 15.8703 16.9402 16.029C16.8516 16.1666 16.7666 16.3058 16.6826 16.4457C16.5761 16.6228 16.4667 16.798 16.3544 16.9721C16.2643 17.1123 16.178 17.254 16.0925 17.3964C16.0074 17.5381 15.921 17.6786 15.8284 17.8166C15.7162 17.9838 15.6141 18.1557 15.5119 18.3279C15.4041 18.5094 15.2932 18.689 15.178 18.8669C15.0727 19.03 14.9732 19.1958 14.8752 19.3626C14.7525 19.5688 14.6407 19.7076 14.4179 19.8322C14.3738 19.8577 14.3297 19.8832 14.2857 19.9088C14.2496 19.9296 14.2496 19.9296 14.2128 19.9508C14.0651 20.0369 13.9194 20.1257 13.7736 20.2143C13.742 20.2334 13.7105 20.2525 13.679 20.2717C13.4703 20.3982 13.2631 20.5265 13.0565 20.6558C12.8507 20.7842 12.642 20.9088 12.4328 21.0327C12.3335 21.0915 12.2346 21.1506 12.1356 21.2097C12.1013 21.2302 12.067 21.2506 12.0327 21.2711C12.0185 21.2796 12.0042 21.288 11.9896 21.2967C11.8682 21.3692 11.7897 21.3755 11.6454 21.362C11.557 21.3284 11.5082 21.2875 11.4575 21.2149C11.4354 21.1558 11.431 21.1193 11.4309 21.0581C11.4309 21.0395 11.4308 21.021 11.4308 21.0019C11.4309 20.9825 11.431 20.9631 11.4311 20.9431C11.431 20.9245 11.4309 20.9058 11.4308 20.8866C11.431 20.7878 11.4352 20.6903 11.4453 20.5919C11.4571 20.4693 11.4634 20.347 11.4676 20.224C11.4692 20.1785 11.4709 20.1329 11.4726 20.0874C11.4735 20.0636 11.4743 20.0398 11.4752 20.0153C11.4781 19.9397 11.4813 19.864 11.4846 19.7884C11.4953 19.5449 11.505 19.3015 11.5092 19.0578C11.5297 17.978 11.5297 17.978 11.8836 17.5494C11.9471 17.4718 11.9989 17.3893 12.0519 17.3058C12.0705 17.278 12.0891 17.2502 12.1077 17.2225C12.1672 17.1324 12.2212 17.0401 12.275 16.9473C12.3728 16.7788 12.4757 16.6133 12.5806 16.4482C12.7273 16.2175 12.871 15.9853 13.0148 15.7531C13.0495 15.6972 13.0842 15.6414 13.1189 15.5856C13.2247 15.4158 13.3293 15.2455 13.433 15.0748C13.5233 14.9262 13.6153 14.7789 13.7097 14.6324C13.771 14.5365 13.8293 14.4392 13.888 14.342C13.9976 14.1611 14.1108 13.9821 14.2256 13.8037C14.3638 13.5889 14.4971 13.3722 14.6275 13.1535C14.7232 12.9935 14.8224 12.8355 14.9238 12.6783C15.0068 12.5493 15.0872 12.4192 15.1664 12.2883C15.2629 12.1289 15.3613 11.9706 15.4614 11.813C15.5752 11.6338 15.6865 11.4536 15.7963 11.2725C15.8719 11.1481 15.9487 11.0244 16.0268 10.9012C16.1006 10.7843 16.1722 10.6664 16.2437 10.5484C16.3719 10.3373 16.5045 10.1286 16.6383 9.9203C16.6877 9.84317 16.7366 9.76579 16.7853 9.68832C16.7931 9.67592 16.8009 9.66352 16.809 9.65075C16.8688 9.55547 16.9273 9.45954 16.9857 9.36355C17.0231 9.30228 17.0607 9.24116 17.0985 9.18006C17.1107 9.16014 17.123 9.14022 17.1356 9.1197C17.1609 9.07868 17.1862 9.0377 17.2116 8.99676C17.2237 8.97708 17.2357 8.95741 17.2482 8.93713C17.2591 8.91946 17.27 8.90179 17.2812 8.88358C17.3083 8.84181 17.3083 8.84181 17.3049 8.79803C17.3204 8.79803 17.3359 8.79803 17.3519 8.79803C17.3624 8.77839 17.373 8.75875 17.3839 8.73852C17.3991 8.71064 17.4144 8.68276 17.4296 8.65489C17.4414 8.63309 17.4414 8.63309 17.4535 8.61084C17.4993 8.52795 17.5472 8.44955 17.6059 8.37335C17.8101 8.10321 17.8341 7.88055 17.8274 7.56027C17.8273 7.51115 17.8273 7.46203 17.8275 7.41292C17.8275 7.28083 17.826 7.14879 17.8242 7.01672C17.8228 6.8923 17.8225 6.76788 17.8223 6.64346C17.8217 6.39735 17.82 6.15125 17.8175 5.90514C17.8151 5.66636 17.8133 5.42758 17.8122 5.18879C17.8122 5.17387 17.8121 5.15895 17.812 5.14358C17.8114 5.01377 17.8109 4.88397 17.8103 4.75416C17.8079 4.19719 17.8027 3.64027 17.798 3.0833C16.7053 3.0833 15.6127 3.0833 14.4869 3.0833C14.452 3.2705 14.452 3.2705 14.4164 3.46148C14.395 3.53398 14.374 3.60162 14.346 3.67158C14.3396 3.68769 14.3332 3.7038 14.3266 3.7204C13.9394 4.66362 13.2135 5.42981 12.1855 5.85662C11.8916 5.97332 11.5957 6.07164 11.2781 6.12099C11.2396 6.12707 11.2012 6.13354 11.1628 6.1403C10.9769 6.17131 10.7975 6.17775 10.6087 6.17721C10.5764 6.17727 10.5441 6.17734 10.5119 6.17743C10.425 6.17762 10.3381 6.17755 10.2513 6.17742C10.1598 6.17731 10.0682 6.17741 9.9767 6.17747C9.82297 6.17755 9.66924 6.17745 9.51551 6.17725C9.33874 6.17702 9.16197 6.1771 8.98519 6.17733C8.83254 6.17752 8.67988 6.17754 8.52722 6.17744C8.43644 6.17737 8.34566 6.17736 8.25487 6.1775C7.38626 6.17866 7.38626 6.17866 6.96334 6.06935C6.94236 6.06423 6.92138 6.05911 6.89976 6.05384C5.8915 5.80115 5.01491 5.18074 4.4994 4.36663C4.4862 4.34527 4.473 4.3239 4.45941 4.30188C4.45062 4.28907 4.44183 4.27627 4.43277 4.26307C4.3445 4.13061 4.28969 3.99028 4.23667 3.84424C4.22174 3.80318 4.20644 3.76225 4.19109 3.72131C4.1132 3.51133 4.05387 3.30153 4.01322 3.0833C2.92053 3.0833 1.82785 3.0833 0.702046 3.0833Z" fill="#C0D8CF"/>
<path d="M5.24002 2.04861C5.26905 2.04847 5.29808 2.04834 5.32798 2.0482C5.36 2.04826 5.39202 2.04832 5.42404 2.04839C5.45821 2.04832 5.49237 2.04822 5.52654 2.04811C5.62033 2.04785 5.71411 2.04785 5.8079 2.0479C5.90909 2.04791 6.01028 2.04768 6.11147 2.04748C6.30968 2.04713 6.50789 2.04702 6.7061 2.04699C6.86722 2.04697 7.02834 2.04689 7.18946 2.04675C7.64629 2.04638 8.10311 2.04619 8.55994 2.04622C8.58457 2.04622 8.60919 2.04622 8.63456 2.04623C8.67155 2.04623 8.67155 2.04623 8.70928 2.04623C9.10889 2.04625 9.5085 2.04585 9.90811 2.04525C10.3185 2.04465 10.7288 2.04436 11.1391 2.0444C11.3695 2.04441 11.5999 2.0443 11.8302 2.04384C12.0264 2.04346 12.2225 2.04337 12.4186 2.04365C12.5187 2.04379 12.6187 2.04379 12.7188 2.04343C12.8104 2.0431 12.9021 2.04316 12.9937 2.04353C13.0268 2.04359 13.0599 2.04351 13.093 2.04328C13.3486 2.04159 13.5231 2.07756 13.7215 2.22308C13.8489 2.36177 13.8686 2.49266 13.8649 2.66856C13.8646 2.6907 13.8643 2.71285 13.864 2.73567C13.8458 3.37641 13.5519 3.96506 13.1252 4.47017C13.1097 4.49097 13.0942 4.51177 13.0782 4.5332C13.0627 4.5332 13.0472 4.5332 13.0312 4.5332C13.0257 4.5449 13.0202 4.5566 13.0145 4.56865C12.718 5.04467 11.9181 5.34896 11.3713 5.50302C11.3064 5.51805 11.2418 5.53007 11.176 5.54168C11.1571 5.54537 11.1382 5.54906 11.1187 5.55286C10.9429 5.58507 10.7731 5.58966 10.594 5.58913C10.5623 5.58919 10.5306 5.58927 10.499 5.58936C10.4137 5.58955 10.3285 5.58947 10.2432 5.58934C10.1535 5.58923 10.0637 5.58933 9.97393 5.5894C9.82317 5.58947 9.67243 5.58938 9.52167 5.58917C9.34819 5.58895 9.17472 5.58902 9.00124 5.58925C8.85153 5.58944 8.70183 5.58947 8.55212 5.58936C8.46305 5.58929 8.37397 5.58928 8.2849 5.58942C8.20103 5.58955 8.11716 5.58946 8.03329 5.58922C7.98843 5.58914 7.94356 5.58926 7.8987 5.58939C7.64103 5.58828 7.38843 5.56264 7.13981 5.50097C7.11227 5.49428 7.08472 5.48759 7.05634 5.4807C6.54177 5.33916 6.09811 5.11277 5.70438 4.78532C5.68644 4.77048 5.68644 4.77048 5.66814 4.75534C5.51003 4.62319 5.3786 4.4836 5.2582 4.3231C5.2325 4.29011 5.2325 4.29011 5.20628 4.25645C5.02935 4.02463 4.9003 3.77186 4.80439 3.50484C4.78863 3.46195 4.77115 3.41987 4.7533 3.37764C4.64431 3.07788 4.54469 2.62568 4.69459 2.32846C4.82588 2.14511 4.99501 2.0489 5.24002 2.04861Z" fill="white"/>
<path d="M16.2251 11.8027C16.3227 11.817 16.402 11.8628 16.4863 11.9065C16.5205 11.9239 16.5546 11.9413 16.5888 11.9588C16.6152 11.9723 16.6152 11.9723 16.6421 11.986C16.7244 12.0279 16.8071 12.069 16.8899 12.11C16.9253 12.1276 16.9607 12.1451 16.9961 12.1627C17.0151 12.1722 17.0342 12.1816 17.0538 12.1914C17.1669 12.2475 17.28 12.3037 17.3931 12.3599C17.4611 12.3938 17.5291 12.4276 17.5971 12.4613C17.8856 12.6048 17.8856 12.6048 18.1742 12.7482C18.1603 12.8271 18.1352 12.8869 18.0924 12.9568C18.0742 12.9867 18.0742 12.9867 18.0556 13.0172C18.0424 13.0385 18.0293 13.0598 18.0157 13.0817C18.002 13.104 17.9883 13.1264 17.9743 13.1494C17.8694 13.3201 17.7624 13.4897 17.6546 13.659C17.5638 13.8021 17.4759 13.9465 17.389 14.0915C17.2881 14.2596 17.1834 14.425 17.0749 14.5892C16.9403 14.7929 16.8146 15 16.6912 15.2091C16.5815 15.3948 16.4689 15.5785 16.3512 15.7602C16.2622 15.8981 16.1772 16.0378 16.093 16.1781C16.0078 16.3198 15.9214 16.4603 15.8288 16.5983C15.7166 16.7655 15.6146 16.9374 15.5123 17.1096C15.4038 17.2923 15.2921 17.473 15.1764 17.6522C15.0938 17.7805 15.0138 17.9099 14.9349 18.0401C14.8261 18.2198 14.7149 18.3982 14.6015 18.5755C14.5365 18.6775 14.4735 18.7799 14.4136 18.8843C14.1923 19.2685 14.1923 19.2685 13.9706 19.3874C13.9409 19.4051 13.9113 19.423 13.8818 19.441C13.7921 19.4956 13.7016 19.5491 13.6109 19.6024C13.209 19.8374 13.209 19.8374 12.8155 20.0833C12.6759 20.1739 12.5333 20.2602 12.3899 20.3459C12.3679 20.3592 12.3458 20.3724 12.3231 20.386C12.3026 20.3982 12.2821 20.4104 12.261 20.4229C12.2334 20.4394 12.2334 20.4394 12.2051 20.4562C12.1624 20.4799 12.1624 20.4799 12.1389 20.4799C12.1354 20.1162 12.1466 19.7534 12.1609 19.39C12.163 19.3356 12.1651 19.2813 12.1671 19.2269C12.1712 19.1208 12.1755 19.0148 12.18 18.9087C12.1842 18.8095 12.1869 18.7104 12.1886 18.6111C12.1891 18.5882 12.1897 18.5654 12.1903 18.5418C12.1913 18.4994 12.1919 18.457 12.192 18.4147C12.196 18.2754 12.2363 18.1962 12.3268 18.0847C12.3543 18.0417 12.3814 17.9985 12.4081 17.955C12.4228 17.9309 12.4376 17.9069 12.4528 17.8821C12.4605 17.8696 12.4682 17.857 12.4761 17.8441C12.509 17.7903 12.542 17.7367 12.575 17.683C12.5921 17.6552 12.6091 17.6273 12.6262 17.5995C12.7128 17.4586 12.8001 17.3179 12.8875 17.1774C12.9022 17.1536 12.9169 17.1299 12.9321 17.1055C12.9933 17.007 13.0546 16.9085 13.1158 16.8101C13.1341 16.7806 13.1524 16.7512 13.1707 16.7217C13.1796 16.7075 13.1884 16.6932 13.1975 16.6786C13.2589 16.5798 13.32 16.4808 13.3809 16.3818C13.3931 16.3619 13.3931 16.3619 13.4056 16.3416C13.4462 16.2757 13.4867 16.2099 13.5272 16.1439C13.6042 16.0187 13.6821 15.894 13.7617 15.7701C13.8436 15.6424 13.9223 15.5134 14 15.3836C14.0974 15.2217 14.1967 15.061 14.2994 14.9017C14.4154 14.7219 14.5266 14.54 14.6366 14.3572C14.714 14.2288 14.7924 14.101 14.8728 13.9741C14.9508 13.8509 15.0276 13.7271 15.1043 13.6032C15.224 13.4101 15.3444 13.2173 15.4662 13.0253C15.5784 12.8485 15.688 12.6706 15.7964 12.492C15.8837 12.3482 15.9727 12.2054 16.0627 12.063C16.1173 11.9765 16.1713 11.8897 16.2251 11.8027Z" fill="white"/>
<path d="M20.217 5.37354C20.3083 5.40416 20.3916 5.44195 20.4767 5.48433C20.4903 5.49105 20.5038 5.49776 20.5178 5.50468C20.5619 5.52657 20.606 5.54854 20.65 5.5705C20.7119 5.60122 20.7737 5.6319 20.8356 5.66259C20.851 5.67024 20.8664 5.67789 20.8823 5.68577C21.0163 5.75225 21.1508 5.81772 21.2855 5.88303C21.4799 5.97742 21.6724 6.07459 21.8639 6.17362C21.9633 6.22494 22.0627 6.27437 22.1662 6.31899C22.152 6.40865 22.1166 6.47409 22.0673 6.5528C22.0597 6.56504 22.0521 6.57728 22.0442 6.58989C22.0195 6.62966 21.9945 6.66932 21.9695 6.70898C21.9523 6.73656 21.9351 6.76414 21.9179 6.79173C21.8836 6.84678 21.8492 6.9018 21.8148 6.9568C21.7516 7.05769 21.6896 7.15907 21.6275 7.2605C21.5682 7.35739 21.5085 7.45409 21.4475 7.55021C21.4378 7.56559 21.428 7.58098 21.418 7.59684C21.3999 7.62538 21.3817 7.6539 21.3634 7.68236C21.3194 7.75158 21.2809 7.81992 21.2503 7.89474C21.2348 7.89474 21.2193 7.89474 21.2034 7.89474C21.1952 7.92062 21.1952 7.92062 21.1868 7.94702C21.1501 8.03605 21.0998 8.11198 21.0448 8.19282C21.0236 8.22464 21.0023 8.25649 20.9811 8.28835C20.9708 8.30372 20.9606 8.31909 20.95 8.33492C20.8698 8.45621 20.7965 8.58031 20.7269 8.70666C20.6627 8.82183 20.5924 8.93339 20.5209 9.04504C20.4183 9.20617 20.3173 9.3679 20.2185 9.53089C20.0765 9.76502 19.931 9.99728 19.7852 10.2295C19.7312 10.3156 19.6776 10.4019 19.6241 10.4882C19.6147 10.5033 19.6053 10.5184 19.5957 10.534C19.5493 10.6087 19.503 10.6835 19.4567 10.7583C19.4376 10.7891 19.4186 10.8198 19.3995 10.8506C19.39 10.8659 19.3805 10.8812 19.3708 10.897C19.3023 11.0073 19.2329 11.1171 19.1632 11.2267C19.0506 11.4041 18.9399 11.582 18.8343 11.7628C18.7626 11.8853 18.6865 12.0052 18.6092 12.1249C18.5884 12.1571 18.5683 12.1896 18.5497 12.2228C18.4545 12.2102 18.3854 12.1828 18.3019 12.1404C18.2639 12.1213 18.2639 12.1213 18.2252 12.1018C18.1978 12.0878 18.1705 12.0739 18.1432 12.06C18.0858 12.031 18.0284 12.0022 17.971 11.9733C17.9565 11.966 17.942 11.9587 17.927 11.9512C17.7872 11.8808 17.6461 11.8127 17.5047 11.7448C17.3126 11.6524 17.1227 11.5573 16.9349 11.458C16.8255 11.4005 16.7147 11.3481 16.6006 11.2984C16.6101 11.1657 16.6643 11.0746 16.7415 10.9622C16.757 10.9622 16.7725 10.9622 16.7885 10.9622C16.7923 10.9396 16.7923 10.9396 16.7962 10.9165C16.8133 10.852 16.8395 10.8057 16.8762 10.7482C16.8962 10.7168 16.8962 10.7168 16.9166 10.6847C16.931 10.6623 16.9453 10.6399 16.9602 10.6168C16.9904 10.5692 17.0207 10.5215 17.0509 10.4738C17.0661 10.4499 17.0813 10.426 17.0969 10.4013C17.1597 10.3018 17.2208 10.2013 17.2816 10.1008C17.3934 9.91658 17.5074 9.73356 17.6221 9.55083C17.7306 9.37784 17.838 9.20433 17.945 9.03059C17.9531 9.01753 17.9611 9.00447 17.9694 8.99101C17.9932 8.95242 18.0169 8.91383 18.0407 8.87523C18.1364 8.71976 18.2327 8.56457 18.3292 8.40946C18.3911 8.30992 18.4529 8.21034 18.5147 8.11076C18.5531 8.04904 18.5914 7.98732 18.6297 7.9256C18.6442 7.9022 18.6588 7.8788 18.6737 7.85469C18.9037 7.48439 19.1336 7.11408 19.3636 6.74378C19.3728 6.72891 19.382 6.71404 19.3916 6.69872C19.4096 6.6697 19.4276 6.64068 19.4456 6.61166C19.5042 6.51735 19.5627 6.42301 19.6212 6.32867C19.7659 6.09548 19.9107 5.86238 20.0572 5.63009C20.1109 5.54477 20.1641 5.45923 20.217 5.37354Z" fill="white"/>
<path d="M3.25329 7.63972C3.27433 7.63965 3.29537 7.63959 3.31705 7.63953C3.3882 7.63935 3.45934 7.63931 3.53049 7.63928C3.58175 7.63918 3.63302 7.63907 3.68428 7.63896C3.82567 7.63866 3.96705 7.6385 4.10844 7.63837C4.22958 7.63823 4.35072 7.63802 4.47186 7.63781C4.87102 7.63711 5.27018 7.63666 5.66934 7.63627C5.77323 7.63617 5.87712 7.63607 5.98101 7.63596C6.62574 7.63531 7.27047 7.63475 7.9152 7.6344C8.06459 7.63431 8.21399 7.63423 8.36338 7.63414C8.38194 7.63413 8.4005 7.63412 8.41963 7.63411C9.02151 7.63377 9.62339 7.63296 10.2253 7.63189C10.8439 7.63079 11.4625 7.6301 12.0812 7.62995C12.1685 7.62993 12.2559 7.6299 12.3432 7.62988C12.3604 7.62987 12.3776 7.62986 12.3953 7.62986C12.6721 7.62976 12.949 7.62924 13.2258 7.62856C13.504 7.62788 13.7821 7.62769 14.0603 7.62794C14.2111 7.62806 14.3618 7.62798 14.5125 7.62734C14.6505 7.62677 14.7884 7.62678 14.9264 7.62725C14.9763 7.62732 15.0263 7.62717 15.0762 7.62679C15.1441 7.62631 15.2119 7.6266 15.2797 7.62708C15.2992 7.62676 15.3186 7.62643 15.3387 7.6261C15.4858 7.62843 15.5825 7.67384 15.6849 7.76871C15.7434 7.859 15.7504 7.93934 15.7319 8.04184C15.6816 8.1465 15.616 8.19481 15.4983 8.2385C15.4118 8.2626 15.3264 8.26053 15.2365 8.25982C15.2154 8.2599 15.1943 8.25999 15.1726 8.26008C15.1019 8.26029 15.0311 8.26004 14.9604 8.25981C14.9092 8.25986 14.858 8.25995 14.8068 8.26006C14.666 8.26028 14.5252 8.26011 14.3844 8.25988C14.2326 8.25969 14.0809 8.25987 13.9291 8.26C13.6489 8.2602 13.3687 8.26009 13.0885 8.25985C12.8298 8.25963 12.571 8.25953 12.3122 8.25956C12.295 8.25956 12.2778 8.25956 12.2602 8.25957C12.1905 8.25957 12.1208 8.25958 12.0512 8.25959C11.3976 8.25967 10.7441 8.25941 10.0906 8.25897C9.50977 8.25858 8.92896 8.25846 8.34815 8.25858C8.31085 8.25858 8.27355 8.25859 8.23625 8.2586C8.21781 8.2586 8.19937 8.25861 8.18037 8.25861C8.08755 8.25863 7.99472 8.25864 7.9019 8.25866C7.87443 8.25867 7.87443 8.25867 7.84641 8.25867C7.36126 8.25876 6.8761 8.25864 6.39095 8.25846C6.33876 8.25844 6.28657 8.25842 6.23438 8.2584C6.19976 8.25839 6.16514 8.25838 6.13052 8.25837C5.88898 8.25828 5.64745 8.25827 5.40591 8.25831C5.09471 8.25836 4.78351 8.25827 4.47231 8.25794C4.32219 8.25779 4.17207 8.25771 4.02196 8.2578C3.88467 8.25789 3.74738 8.25778 3.6101 8.25752C3.5603 8.25745 3.51051 8.25746 3.46072 8.25755C3.39328 8.25766 3.32585 8.25751 3.25841 8.25729C3.23887 8.25738 3.21933 8.25748 3.1992 8.25757C3.08481 8.25687 2.986 8.25262 2.89703 8.18046C2.81326 8.08483 2.78399 8.01889 2.78576 7.89609C2.79969 7.80591 2.86085 7.74677 2.93482 7.68861C3.03669 7.63275 3.13799 7.6396 3.25329 7.63972Z" fill="#C0D8CF"/>
<path d="M3.21413 10.936C3.23318 10.9359 3.25224 10.9358 3.27188 10.9358C3.33614 10.9356 3.40041 10.9357 3.46468 10.9358C3.51105 10.9358 3.55743 10.9357 3.60381 10.9356C3.73158 10.9354 3.85935 10.9354 3.98711 10.9355C4.12478 10.9356 4.26245 10.9354 4.40012 10.9352C4.66996 10.935 4.93979 10.9349 5.20963 10.935C5.42889 10.935 5.64815 10.935 5.86741 10.9349C5.89889 10.9349 5.93037 10.9349 5.96185 10.9348C6.00928 10.9348 6.05672 10.9348 6.10415 10.9348C6.54531 10.9346 6.98646 10.9345 7.42761 10.9346C7.45256 10.9346 7.45256 10.9346 7.47802 10.9346C7.56235 10.9346 7.64668 10.9346 7.73101 10.9347C7.74776 10.9347 7.76451 10.9347 7.78176 10.9347C7.81563 10.9347 7.8495 10.9347 7.88337 10.9347C8.41041 10.9348 8.93745 10.9346 9.4645 10.9343C10.0564 10.9338 10.6483 10.9336 11.2402 10.9337C11.3033 10.9337 11.3664 10.9337 11.4295 10.9337C11.445 10.9337 11.4606 10.9337 11.4766 10.9337C11.7113 10.9337 11.946 10.9336 12.1807 10.9334C12.4475 10.9331 12.7144 10.9331 12.9813 10.9333C13.1175 10.9335 13.2538 10.9335 13.39 10.9332C13.5146 10.933 13.6392 10.9331 13.7639 10.9334C13.809 10.9334 13.8542 10.9334 13.8994 10.9332C13.9606 10.933 14.0219 10.9332 14.0831 10.9334C14.1008 10.9333 14.1184 10.9331 14.1366 10.933C14.2839 10.9344 14.3743 10.9713 14.4843 11.0569C14.5498 11.1334 14.5521 11.2109 14.5472 11.3049C14.5264 11.3955 14.4756 11.4538 14.3933 11.5086C14.2919 11.5546 14.1972 11.5566 14.0858 11.556C14.0571 11.5561 14.0571 11.5561 14.0278 11.5562C13.9635 11.5564 13.8991 11.5563 13.8348 11.5562C13.7883 11.5563 13.7418 11.5564 13.6953 11.5565C13.5673 11.5568 13.4393 11.5568 13.3113 11.5567C13.1734 11.5567 13.0355 11.5569 12.8975 11.5571C12.6272 11.5575 12.3569 11.5576 12.0866 11.5576C11.8669 11.5577 11.6473 11.5577 11.4276 11.5579C11.3644 11.5579 11.3012 11.5579 11.238 11.558C11.2144 11.558 11.2144 11.558 11.1904 11.558C10.7484 11.5583 10.3064 11.5584 9.86445 11.5584C9.84778 11.5584 9.83112 11.5584 9.81395 11.5584C9.72947 11.5584 9.645 11.5584 9.56053 11.5584C9.54375 11.5584 9.52698 11.5584 9.50969 11.5584C9.47576 11.5584 9.44184 11.5584 9.40791 11.5584C8.87992 11.5584 8.35193 11.5587 7.82394 11.5593C7.23091 11.5599 6.63788 11.5603 6.04485 11.5602C5.98164 11.5602 5.91843 11.5602 5.85522 11.5602C5.83965 11.5602 5.82409 11.5602 5.80805 11.5602C5.57292 11.5602 5.33779 11.5604 5.10266 11.5608C4.83531 11.5612 4.56796 11.5613 4.30061 11.561C4.16414 11.5608 4.02767 11.5608 3.8912 11.5612C3.76635 11.5615 3.64151 11.5615 3.51666 11.5611C3.47142 11.561 3.42617 11.5611 3.38093 11.5613C3.31956 11.5616 3.25822 11.5614 3.19685 11.5611C3.17033 11.5614 3.17033 11.5614 3.14328 11.5617C3.02319 11.5602 2.95583 11.5336 2.8629 11.4666C2.77949 11.3845 2.77793 11.2944 2.78099 11.1878C2.79935 11.0959 2.85264 11.0402 2.93335 10.9833C3.02173 10.9309 3.11181 10.9354 3.21413 10.936Z" fill="#C0D8CF"/>
<path d="M3.31693 14.2287C3.34927 14.2286 3.38161 14.2284 3.41395 14.2282C3.5027 14.2278 3.59144 14.2279 3.68019 14.2281C3.77596 14.2282 3.87172 14.2278 3.96748 14.2275C4.15504 14.227 4.3426 14.2269 4.53016 14.227C4.68261 14.2271 4.83507 14.227 4.98752 14.2268C5.00922 14.2268 5.03091 14.2268 5.05327 14.2267C5.09734 14.2267 5.14141 14.2266 5.18549 14.2266C5.59885 14.2261 6.01222 14.2262 6.42558 14.2265C6.80372 14.2267 7.18186 14.2262 7.56 14.2254C7.94829 14.2246 8.33658 14.2242 8.72487 14.2244C8.94286 14.2245 9.16084 14.2244 9.37883 14.2238C9.56442 14.2233 9.74999 14.2232 9.93557 14.2237C10.0302 14.224 10.1249 14.224 10.2196 14.2235C10.3063 14.2231 10.393 14.2232 10.4797 14.2238C10.5258 14.224 10.572 14.2235 10.6181 14.223C10.7762 14.2248 10.8778 14.2379 11.0004 14.3305C11.0806 14.4125 11.0922 14.4859 11.0892 14.5917C11.074 14.6882 11.0111 14.7455 10.9343 14.8098C10.8598 14.8555 10.8229 14.8595 10.7335 14.8595C10.6921 14.8598 10.6921 14.8598 10.6499 14.8601C10.6198 14.8599 10.5896 14.8597 10.5585 14.8595C10.526 14.8596 10.4935 14.8597 10.4611 14.8599C10.3719 14.8602 10.2827 14.86 10.1935 14.8597C10.0972 14.8594 10.001 14.8597 9.90483 14.8599C9.71636 14.8602 9.52789 14.86 9.33943 14.8597C9.12002 14.8593 8.90062 14.8594 8.68121 14.8595C8.28978 14.8596 7.89835 14.8593 7.50691 14.8588C7.12695 14.8583 6.74699 14.8581 6.36702 14.8583C5.95343 14.8586 5.53983 14.8586 5.12623 14.8583C5.08214 14.8583 5.03805 14.8583 4.99396 14.8582C4.97227 14.8582 4.95057 14.8582 4.92822 14.8582C4.77523 14.8581 4.62223 14.8581 4.46924 14.8582C4.28283 14.8583 4.09643 14.8582 3.91002 14.8578C3.81488 14.8576 3.71975 14.8575 3.62461 14.8576C3.53755 14.8578 3.4505 14.8576 3.36344 14.8573C3.31696 14.8571 3.27048 14.8573 3.22399 14.8575C3.19643 14.8573 3.16886 14.8572 3.14046 14.857C3.11667 14.8569 3.09288 14.8569 3.06837 14.8569C2.96185 14.8439 2.8845 14.7961 2.82002 14.7203C2.75462 14.6327 2.74629 14.5522 2.76865 14.4498C2.89097 14.2267 3.06567 14.2274 3.31693 14.2287Z" fill="#C0D8CF"/>
<path d="M3.12799 17.5356C3.15897 17.5355 3.15897 17.5355 3.19058 17.5353C3.21329 17.5353 3.23599 17.5353 3.25939 17.5353C3.29556 17.5352 3.29556 17.5352 3.33245 17.5351C3.41363 17.5349 3.49481 17.5348 3.57599 17.5347C3.63404 17.5346 3.69208 17.5344 3.75013 17.5343C3.9246 17.5339 4.09906 17.5336 4.27353 17.5335C4.35569 17.5334 4.43785 17.5333 4.52002 17.5331C4.79315 17.5328 5.06627 17.5325 5.3394 17.5323C5.41027 17.5323 5.48115 17.5323 5.55202 17.5322C5.57844 17.5322 5.57844 17.5322 5.6054 17.5322C5.89078 17.532 6.17615 17.5315 6.46152 17.5308C6.75452 17.5301 7.04751 17.5297 7.34051 17.5297C7.50501 17.5296 7.66951 17.5294 7.83402 17.5289C7.98876 17.5284 8.14349 17.5283 8.29823 17.5285C8.35504 17.5285 8.41185 17.5284 8.46866 17.5281C8.5462 17.5277 8.62371 17.5279 8.70124 17.5282C8.73499 17.5278 8.73499 17.5278 8.76942 17.5275C8.94012 17.5289 9.03527 17.5662 9.16683 17.6658C9.22393 17.7618 9.22358 17.8523 9.20352 17.9586C9.15993 18.0424 9.10198 18.0962 9.01565 18.1477C8.96819 18.153 8.96819 18.153 8.91269 18.1532C8.89152 18.1533 8.87035 18.1535 8.84853 18.1536C8.82524 18.1536 8.80195 18.1535 8.77796 18.1535C8.75324 18.1536 8.72852 18.1537 8.70305 18.1538C8.61982 18.1541 8.53658 18.1541 8.45334 18.1541C8.39383 18.1543 8.33432 18.1545 8.27481 18.1547C8.11285 18.1551 7.9509 18.1553 7.78894 18.1554C7.68784 18.1555 7.58674 18.1556 7.48564 18.1558C7.20578 18.1562 6.92592 18.1565 6.64606 18.1566C6.6192 18.1566 6.6192 18.1566 6.59178 18.1566C6.55547 18.1566 6.51916 18.1566 6.48284 18.1566C6.46481 18.1566 6.44679 18.1566 6.42821 18.1566C6.41017 18.1566 6.39212 18.1567 6.37352 18.1567C6.08098 18.1567 5.78843 18.1573 5.49589 18.1581C5.19562 18.1589 4.89536 18.1593 4.59509 18.1593C4.42647 18.1593 4.25785 18.1595 4.08923 18.1601C3.93067 18.1607 3.77212 18.1607 3.61356 18.1604C3.55529 18.1603 3.49702 18.1605 3.43876 18.1608C3.35935 18.1612 3.27998 18.161 3.20057 18.1606C3.16579 18.161 3.16579 18.161 3.13031 18.1615C3.02193 18.1603 2.97288 18.1586 2.88444 18.0983C2.83949 18.0427 2.83949 18.0427 2.81601 17.9796C2.80051 17.9796 2.78501 17.9796 2.76904 17.9796C2.7499 17.8868 2.73726 17.8133 2.77051 17.7222C2.8625 17.6054 2.96404 17.5359 3.12799 17.5356Z" fill="#C0D8CF"/>
<path d="M21.2741 4.25998C21.4055 4.30601 21.5271 4.36617 21.6499 4.42806C21.6784 4.44241 21.6784 4.44241 21.7075 4.45704C21.8105 4.50915 21.9132 4.56187 22.0157 4.61493C22.1624 4.69063 22.3111 4.76304 22.4604 4.83454C22.7293 4.96488 22.7293 4.96488 22.8006 5.10038C22.8415 5.29613 22.7683 5.43871 22.6596 5.60462C22.6371 5.64137 22.6146 5.67813 22.5921 5.71492C22.5756 5.74122 22.559 5.76749 22.5422 5.79371C22.4475 5.78098 22.3762 5.75369 22.2922 5.71295C22.2668 5.70071 22.2414 5.68847 22.2153 5.67586C22.1885 5.66275 22.1618 5.64964 22.1342 5.63614C22.1065 5.62267 22.0788 5.60921 22.051 5.59576C21.8795 5.51218 21.7105 5.42573 21.5451 5.3328C21.4754 5.29493 21.4031 5.26295 21.3299 5.23079C21.177 5.1632 21.0304 5.0875 20.8837 5.00977C20.834 4.98359 20.7843 4.9574 20.7346 4.93123C20.713 4.91982 20.6914 4.90841 20.6692 4.89666C20.6365 4.87966 20.6034 4.86337 20.5696 4.84826C20.6441 4.62712 20.776 4.4132 20.9923 4.28099C21.0846 4.23973 21.1739 4.24513 21.2741 4.25998Z" fill="white"/>
<path d="M9.49554 0.656884C9.61726 0.763124 9.7127 0.862404 9.72744 1.01799C9.72501 1.13661 9.6771 1.22894 9.58581 1.31451C9.44965 1.42265 9.34083 1.43129 9.16044 1.42949C9.06265 1.42194 9.01539 1.40098 8.94515 1.33971C8.81358 1.19781 8.78862 1.08207 8.80425 0.898499C8.84529 0.784022 8.93089 0.713918 9.03908 0.646379C9.18392 0.603187 9.35567 0.602277 9.49554 0.656884Z" fill="white"/>
<path d="M3.02717 10.9412C4.09759 10.9402 5.168 10.9392 6.23842 10.9386C6.26218 10.9386 6.26218 10.9386 6.28642 10.9385C6.63061 10.9384 6.9748 10.9382 7.31899 10.938C7.48777 10.9379 7.65656 10.9379 7.82535 10.9378C7.85054 10.9378 7.85054 10.9378 7.87625 10.9378C8.42084 10.9375 8.96543 10.937 9.51002 10.9364C10.0696 10.9358 10.6291 10.9354 11.1887 10.9353C11.2677 10.9353 11.3467 10.9353 11.4257 10.9353C11.4413 10.9353 11.4568 10.9353 11.4728 10.9352C11.7388 10.9352 12.0047 10.9348 12.2706 10.9344C12.5069 10.9341 12.7431 10.934 12.9793 10.9341C13.1158 10.9341 13.2522 10.9341 13.3886 10.9337C13.5134 10.9334 13.6382 10.9334 13.763 10.9336C13.8083 10.9336 13.8535 10.9336 13.8987 10.9334C13.9601 10.9331 14.0214 10.9333 14.0828 10.9335C14.1004 10.9333 14.1181 10.9332 14.1363 10.933C14.2469 10.9339 14.3232 10.951 14.4167 11.0043C14.4322 11.0251 14.4477 11.0459 14.4636 11.0673C14.4481 11.0742 14.4326 11.0812 14.4167 11.0883C14.4026 11.0749 14.3886 11.0614 14.3741 11.0476C14.2826 10.9704 14.1869 10.9802 14.0683 10.9803C14.0493 10.9803 14.0302 10.9802 14.0106 10.9802C13.9463 10.98 13.882 10.98 13.8177 10.9799C13.7713 10.9798 13.7249 10.9797 13.6786 10.9796C13.5507 10.9793 13.4229 10.9792 13.2951 10.979C13.1574 10.9789 13.0197 10.9786 12.882 10.9783C12.6434 10.9779 12.4047 10.9775 12.166 10.9771C11.9156 10.9768 11.6652 10.9764 11.4148 10.976C11.3993 10.9759 11.3837 10.9759 11.3677 10.9759C11.2887 10.9757 11.2097 10.9756 11.1307 10.9755C10.5708 10.9745 10.0109 10.9735 9.45108 10.9727C8.90712 10.9719 8.36315 10.971 7.81918 10.9701C7.80242 10.97 7.78566 10.97 7.76839 10.97C7.60007 10.9697 7.43174 10.9694 7.26342 10.9691C6.92051 10.9685 6.5776 10.9679 6.23469 10.9674C6.21892 10.9673 6.20315 10.9673 6.18691 10.9673C5.13366 10.9655 4.08042 10.9639 3.02717 10.9623C3.02717 10.9553 3.02717 10.9484 3.02717 10.9412Z" fill="#C0D8CF"/>
<path d="M13.2657 15.3113C13.2889 15.339 13.3122 15.3667 13.3361 15.3953C13.3053 15.4478 13.3053 15.4478 13.2657 15.5004C13.2424 15.5004 13.2192 15.5004 13.1952 15.5004C13.1952 15.5142 13.1952 15.5281 13.1952 15.5424C13.1797 15.5424 13.1642 15.5424 13.1482 15.5424C13.1823 15.4627 13.2223 15.3872 13.2657 15.3113Z" fill="#C0D8CF"/>
<path d="M22.7065 5.47852C22.7297 5.49238 22.753 5.50625 22.7769 5.52054C22.7614 5.5344 22.7459 5.54827 22.73 5.56256C22.7061 5.60439 22.6826 5.64643 22.6595 5.68862C22.6228 5.74902 22.6228 5.74902 22.5891 5.79367C22.5736 5.79367 22.5581 5.79367 22.5421 5.79367C22.5784 5.67855 22.6397 5.58116 22.7065 5.47852Z" fill="#C0D8CF"/>
<path d="M19.7707 4.82727C19.7785 4.82727 19.7862 4.82727 19.7942 4.82727C19.8001 4.89687 19.8001 4.89687 19.7942 4.97434C19.7487 5.01111 19.7487 5.01111 19.7003 5.03737C19.6925 5.05817 19.6848 5.07897 19.6768 5.1004C19.6613 5.1004 19.6458 5.1004 19.6298 5.1004C19.6694 5.0059 19.7195 4.91701 19.7707 4.82727Z" fill="#C0D8CF"/>
<path d="M17.7514 8.08374C17.7746 8.09067 17.7979 8.09761 17.8218 8.10475C17.8107 8.19415 17.7531 8.23555 17.6809 8.29384C17.6577 8.30424 17.6577 8.30424 17.634 8.31485C17.668 8.2352 17.708 8.15964 17.7514 8.08374Z" fill="#C0D8CF"/>
<path d="M4.27161 1.82288C4.27936 1.82288 4.28711 1.82288 4.2951 1.82288C4.30243 1.86884 4.30243 1.86884 4.2951 1.92793C4.23932 1.98702 4.23932 1.98702 4.17768 2.03298C4.16218 2.03298 4.14668 2.03298 4.13071 2.03298C4.16951 1.95777 4.21833 1.89053 4.27161 1.82288Z" fill="#C0D8CF"/>
<path d="M16.9292 9.40747C16.9762 9.44949 16.9762 9.44949 16.9762 9.51252C16.9459 9.5414 16.9145 9.56944 16.8823 9.59656C16.8745 9.61043 16.8668 9.62429 16.8588 9.63858C16.8433 9.63858 16.8278 9.63858 16.8118 9.63858C16.8458 9.55893 16.8858 9.48337 16.9292 9.40747Z" fill="#C0D8CF"/>
<path d="M19.2779 5.62561C19.3029 5.66369 19.3029 5.66369 19.3249 5.70965C19.3172 5.73045 19.3094 5.75125 19.3014 5.77268C19.2412 5.79763 19.2412 5.79763 19.184 5.8147C19.2122 5.74992 19.2422 5.68732 19.2779 5.62561Z" fill="#C0D8CF"/>
<path d="M20.8749 8.44104C20.8981 8.44797 20.9214 8.45491 20.9453 8.46205C20.9221 8.47245 20.9221 8.47245 20.8983 8.48306C20.8916 8.49953 20.8848 8.51599 20.8778 8.53296C20.8482 8.59473 20.8199 8.61573 20.7574 8.65114C20.7888 8.57563 20.827 8.50922 20.8749 8.44104Z" fill="#C0D8CF"/>
<path d="M15.7789 16.635C15.7944 16.6558 15.8099 16.6766 15.8259 16.698C15.8099 16.7104 15.8099 16.7104 15.7936 16.723C15.7489 16.7675 15.7305 16.81 15.7084 16.8661C15.6929 16.8661 15.6774 16.8661 15.6615 16.8661C15.6902 16.781 15.7249 16.7097 15.7789 16.635Z" fill="#C0D8CF"/>
<path d="M14.3932 13.5044C14.4087 13.5044 14.4242 13.5044 14.4402 13.5044C14.433 13.5816 14.4224 13.6049 14.3565 13.658C14.3376 13.6697 14.3187 13.6814 14.2993 13.6935C14.3274 13.6287 14.3574 13.5661 14.3932 13.5044Z" fill="#C0D8CF"/>
<path d="M21.5084 9.57544C21.5317 9.59624 21.5549 9.61704 21.5789 9.63847C21.5648 9.6441 21.5508 9.64974 21.5363 9.65554C21.4856 9.68017 21.453 9.70557 21.4145 9.74352C21.4145 9.67778 21.4244 9.65162 21.4614 9.59645C21.4769 9.58952 21.4924 9.58258 21.5084 9.57544Z" fill="#C0D8CF"/>
<path d="M21.5319 7.36938C21.548 7.40484 21.548 7.40484 21.5554 7.45342C21.5168 7.52582 21.49 7.55547 21.4145 7.60049C21.4432 7.51535 21.4779 7.4441 21.5319 7.36938Z" fill="#C0D8CF"/>
<path d="M22.2364 8.35706C22.2517 8.39415 22.2517 8.39415 22.2599 8.4411C22.2365 8.48147 22.2365 8.48147 22.2026 8.51988C22.186 8.53922 22.186 8.53922 22.169 8.55895C22.1602 8.56859 22.1515 8.57823 22.1425 8.58817C22.1347 8.5743 22.127 8.56043 22.119 8.54615C22.1424 8.50068 22.1424 8.50068 22.1762 8.44897C22.1873 8.4318 22.1984 8.41463 22.2099 8.39694C22.2186 8.38378 22.2274 8.37062 22.2364 8.35706Z" fill="#C0D8CF"/>
<path d="M21.3207 7.81079C21.3362 7.82466 21.3517 7.83852 21.3676 7.85281C21.3251 7.89483 21.3251 7.89483 21.2737 7.93685C21.2505 7.93685 21.2272 7.93685 21.2033 7.93685C21.2033 7.92298 21.2033 7.90912 21.2033 7.89483C21.2188 7.89483 21.2343 7.89483 21.2502 7.89483C21.2502 7.87403 21.2502 7.85323 21.2502 7.8318C21.2735 7.82487 21.2967 7.81793 21.3207 7.81079Z" fill="#C0D8CF"/>
<path d="M22.0251 6.57104C22.0406 6.58491 22.0561 6.59878 22.0721 6.61306C22.0706 6.65377 22.0706 6.65377 22.0486 6.69711C21.9884 6.73387 21.9884 6.73387 21.9312 6.76014C21.9593 6.69536 21.9893 6.63276 22.0251 6.57104Z" fill="#C0D8CF"/>
<path d="M9.60232 0.751221C9.6791 0.763064 9.71565 0.782728 9.76671 0.835261C9.72021 0.856061 9.72021 0.856061 9.67277 0.877281C9.64952 0.835681 9.62627 0.794081 9.60232 0.751221Z" fill="#C0D8CF"/>
<path d="M22.4716 7.97876C22.4951 8.04179 22.4951 8.04179 22.4745 8.08512C22.4658 8.09856 22.4571 8.11199 22.4481 8.12583C22.4404 8.1397 22.4326 8.15356 22.4246 8.16785C22.4091 8.16785 22.3936 8.16785 22.3777 8.16785C22.4025 8.09635 22.4248 8.04151 22.4716 7.97876Z" fill="#C0D8CF"/>
<path d="M12.4674 16.5928C12.4829 16.6205 12.4984 16.6482 12.5144 16.6768C12.4756 16.7115 12.4369 16.7461 12.3969 16.7819C12.3969 16.7042 12.4271 16.6605 12.4674 16.5928Z" fill="#C0D8CF"/>
<path d="M12.5851 16.4038C12.6013 16.4393 12.6013 16.4393 12.6086 16.4878C12.5778 16.5456 12.5778 16.5456 12.5382 16.5929C12.5227 16.5929 12.5072 16.5929 12.4912 16.5929C12.5194 16.5281 12.5494 16.4655 12.5851 16.4038Z" fill="#C0D8CF"/>
<path d="M22.0724 6.151C22.1193 6.21403 22.1193 6.21403 22.1193 6.29807C22.0883 6.29114 22.0574 6.2842 22.0254 6.27706C22.046 6.17464 22.046 6.17464 22.0724 6.151Z" fill="#C0D8CF"/>
<path d="M4.50631 1.63367C4.52181 1.6406 4.53731 1.64753 4.55328 1.65468C4.48816 1.71941 4.43437 1.75317 4.34193 1.78074C4.39672 1.73171 4.45152 1.68269 4.50631 1.63367Z" fill="#C0D8CF"/>
<path d="M21.908 6.76038C21.9158 6.76038 21.9235 6.76038 21.9315 6.76038C21.9374 6.80765 21.9374 6.80765 21.9315 6.86543C21.8846 6.91401 21.8846 6.91401 21.8376 6.94947C21.8376 6.87185 21.8677 6.82806 21.908 6.76038Z" fill="#C0D8CF"/>
</svg>
